<svg xmlns="http://www.w3.org/2000/svg" xmlns:xlink="http://www.w3.org/1999/xlink" width="85" height="84" viewBox="0 0 85 84">
  <defs>
    <filter id="Path_3485" x="0" y="0" width="85" height="84" filterUnits="userSpaceOnUse">
      <feOffset input="SourceAlpha"/>
      <feGaussianBlur stdDeviation="5.5" result="blur"/>
      <feFlood flood-color="#103bb5" flood-opacity="0.42"/>
      <feComposite operator="in" in2="blur"/>
      <feComposite in="SourceGraphic"/>
    </filter>
    <filter id="Ellipse_117" x="19.5" y="22.5" width="46" height="46" filterUnits="userSpaceOnUse">
      <feOffset dy="3" input="SourceAlpha"/>
      <feGaussianBlur stdDeviation="3" result="blur-2"/>
      <feFlood flood-opacity="0.078"/>
      <feComposite operator="in" in2="blur-2"/>
      <feComposite in="SourceGraphic"/>
    </filter>
  </defs>
  <g id="Group_5813" data-name="Group 5813" transform="translate(-1461.5 -544.5)">
    <g transform="matrix(1, 0, 0, 1, 1461.5, 544.5)" filter="url(#Path_3485)">
      <path id="Path_3485-2" data-name="Path 3485" d="M25.5,0h1a25.5,25.5,0,0,1,0,51h-1a25.5,25.5,0,0,1,0-51Z" transform="translate(16.5 16.5)" fill="#103bb5"/>
    </g>
    <g id="Group_5812" data-name="Group 5812" transform="translate(115 73)">
      <g id="Group_5811" data-name="Group 5811" transform="translate(9 1)">
        <g transform="matrix(1, 0, 0, 1, 1337.5, 470.5)" filter="url(#Ellipse_117)">
          <circle id="Ellipse_117-2" data-name="Ellipse 117" cx="14" cy="14" r="14" transform="translate(28.5 28.5)" fill="#fff"/>
        </g>
        <g id="Group_5824" data-name="Group 5824">
          <path id="Path_3483" data-name="Path 3483" d="M4678.917,7629.308h10.813" transform="translate(-3303.417 -7116.865)" fill="none" stroke="#103bb5" stroke-linecap="round" stroke-width="2"/>
          <path id="Path_3484" data-name="Path 3484" d="M0,0H10.813" transform="translate(1380.5 518.019) rotate(-90)" fill="none" stroke="#103bb5" stroke-linecap="round" stroke-width="2"/>
        </g>
      </g>
    </g>
  </g>
</svg>
