<?xml version="1.0" encoding="utf-8"?>
<!-- Generator: Adobe Illustrator 16.0.0, SVG Export Plug-In . SVG Version: 6.00 Build 0)  -->
<!DOCTYPE svg PUBLIC "-//W3C//DTD SVG 1.1//EN" "http://www.w3.org/Graphics/SVG/1.1/DTD/svg11.dtd">
<svg version="1.1" id="Capa_1" xmlns="http://www.w3.org/2000/svg" xmlns:xlink="http://www.w3.org/1999/xlink" x="0px" y="0px"
	 width="10px" height="7.665px" viewBox="264.05 128.77 10 7.665" enable-background="new 264.05 128.77 10 7.665"
	 xml:space="preserve">
<g>
	<g>
		<g>
			<g>
				<g>
					<path fill="#103BB5" d="M270.796,128.77c-1.196,0-2.206,1.009-2.206,2.206s1.009,2.206,2.206,2.206s2.169-1.009,2.169-2.206
						S271.992,128.77,270.796,128.77z"/>
				</g>
			</g>
			<g>
				<g>
					<path fill="#103BB5" d="M273.204,133.181c-0.596,0.661-1.45,1.084-2.408,1.084s-1.848-0.423-2.444-1.084
						c-0.52,0.577-0.846,1.333-0.846,2.169v0.542c0,0.3,0.243,0.542,0.542,0.542h5.459c0.3,0,0.542-0.243,0.542-0.542v-0.542
						C274.05,134.514,273.724,133.758,273.204,133.181z"/>
				</g>
			</g>
		</g>
	</g>
	<polygon fill="#103BB5" points="265.525,131.307 265.175,131.657 266.158,132.64 264.05,132.64 264.05,136.175 264.545,136.175 
		264.545,133.135 266.173,133.135 265.189,134.118 265.54,134.468 267.113,132.895 	"/>
</g>
</svg>
