<svg xmlns="http://www.w3.org/2000/svg" width="17.203" height="14.144" viewBox="0 0 17.203 14.144">
  <g id="Group_6215" data-name="Group 6215" transform="translate(-2.5 -10.9)">
    <path id="Path_3731" data-name="Path 3731" d="M13.257,23.251l-1.539.254a.558.558,0,0,1-.181.018,1.071,1.071,0,0,1-.779-.344,1.023,1.023,0,0,1-.272-.815l.109-1.557a1.191,1.191,0,0,1,.308-.724l3.477-3.8v-4.89a.487.487,0,0,0-.489-.489H2.989a.487.487,0,0,0-.489.489V24.555a.487.487,0,0,0,.489.489h10.9a.487.487,0,0,0,.489-.489V22.382l-.435.471A1.081,1.081,0,0,1,13.257,23.251Zm-7.9-9.761h6.175a.489.489,0,0,1,0,.978H5.361a.487.487,0,0,1-.489-.489A.476.476,0,0,1,5.361,13.49Zm0,2.662h6.175a.489.489,0,1,1,0,.978H5.361a.487.487,0,0,1-.489-.489A.476.476,0,0,1,5.361,16.152ZM8.6,22.472H5.361a.489.489,0,1,1,0-.978H8.6a.489.489,0,1,1,0,.978Zm.489-2.662H5.361a.489.489,0,0,1,0-.978H9.092a.489.489,0,1,1,0,.978Z" transform="translate(0 0)" fill="#103bb5"/>
    <path id="Path_3732" data-name="Path 3732" d="M85.517,27.673l-1.358-1.231a.312.312,0,0,0-.435.018L83,27.274l1.811,1.648.743-.815A.313.313,0,0,0,85.517,27.673Z" transform="translate(-65.922 -12.662)" fill="#103bb5"/>
    <path id="Path_3733" data-name="Path 3733" d="M51.193,64.2a.235.235,0,0,0,.272.254L53,64.2a.413.413,0,0,0,.217-.109l.489-.543L51.9,61.9l-.489.543a.334.334,0,0,0-.091.217Z" transform="translate(-39.874 -41.764)" fill="#103bb5"/>
    <path id="Path_3734" data-name="Path 3734" d="M62.13,34.7,58.2,38.992h0l1.811,1.666,3.912-4.292Z" transform="translate(-45.613 -19.49)" fill="#103bb5"/>
  </g>
</svg>
