<?xml version="1.0" encoding="utf-8"?>
<!-- Generator: Adobe Illustrator 16.0.0, SVG Export Plug-In . SVG Version: 6.00 Build 0)  -->
<!DOCTYPE svg PUBLIC "-//W3C//DTD SVG 1.1//EN" "http://www.w3.org/Graphics/SVG/1.1/DTD/svg11.dtd">
<svg version="1.1" id="Capa_1" xmlns="http://www.w3.org/2000/svg" xmlns:xlink="http://www.w3.org/1999/xlink" x="0px" y="0px"
	 width="10px" height="7.665px" viewBox="264.05 128.77 10 7.665" enable-background="new 264.05 128.77 10 7.665"
	 xml:space="preserve">
<g>
	<polygon fill="#103BB5" points="265.525,131.307 265.175,131.657 266.158,132.64 264.05,132.64 264.05,136.175 264.545,136.175 
		264.545,133.135 266.173,133.135 265.189,134.118 265.54,134.468 267.113,132.895 	"/>
</g>
<g>
	<path fill="#103BB5" d="M272.5,134.819c-0.445,0-0.808-0.363-0.808-0.808s0.363-0.808,0.808-0.808s0.808,0.362,0.808,0.808
		S272.946,134.819,272.5,134.819z"/>
	<path fill="#103BB5" d="M273.197,135.002c-0.197,0.139-0.438,0.22-0.696,0.22s-0.499-0.081-0.696-0.22
		c-0.176,0.101-0.33,0.238-0.448,0.401v0.425c0,0.209-0.107,0.395-0.27,0.503v0.103h2.828v-0.202
		C273.915,135.706,273.625,135.246,273.197,135.002z"/>
	<path fill="#103BB5" d="M270.75,133.607h-3.232c-0.112,0-0.202,0.09-0.202,0.202v2.02c0,0.111,0.09,0.202,0.202,0.202h0.932
		l-0.135,0.404h1.638l-0.135-0.404h0.932c0.112,0,0.202-0.091,0.202-0.202v-2.02C270.952,133.697,270.861,133.607,270.75,133.607z"
		/>
</g>
<path fill="#103BB5" d="M271.234,129.486h-2.963c-0.26,0-0.471,0.211-0.471,0.471v1.078c0,0.26,0.211,0.471,0.471,0.471h1.689
	l0.757,0.505c0.034,0.023,0.073,0.034,0.112,0.034c0.032,0,0.065-0.008,0.095-0.024c0.065-0.035,0.106-0.104,0.106-0.178v-0.337
	h0.202c0.26,0,0.471-0.211,0.471-0.471v-1.078C271.705,129.697,271.494,129.486,271.234,129.486z M270.695,130.698h-1.886
	c-0.111,0-0.202-0.091-0.202-0.202s0.091-0.202,0.202-0.202h1.886c0.111,0,0.202,0.091,0.202,0.202S270.807,130.698,270.695,130.698
	z"/>
</svg>
