<svg xmlns="http://www.w3.org/2000/svg" width="17.202" height="14.14" viewBox="0 0 17.202 14.14">
  <path id="Subtraction_7" data-name="Subtraction 7" d="M7272.389-7832.859h-10.9a.486.486,0,0,1-.346-.144.477.477,0,0,1-.142-.347v-13.161a.477.477,0,0,1,.142-.347.477.477,0,0,1,.339-.142H7272.4a.477.477,0,0,1,.339.142.493.493,0,0,1,.142.347v4.89l-3.476,3.8a1.206,1.206,0,0,0-.309.725l-.108,1.558a1.018,1.018,0,0,0,.271.813,1.073,1.073,0,0,0,.78.344h.038a.529.529,0,0,0,.141-.019l1.54-.254a1.076,1.076,0,0,0,.685-.4l.435-.471v2.172a.494.494,0,0,1-.142.347A.487.487,0,0,1,7272.389-7832.859Zm-6.1-10.622h0l.521,6.671a.354.354,0,0,0,.339.327h.025a.361.361,0,0,0,.351-.28l.752-4.346.449,1.188a.339.339,0,0,0,.338.232h.443a.075.075,0,0,0,.027-.006.088.088,0,0,1,.034-.008.736.736,0,0,0,.618.341.732.732,0,0,0,.739-.741.693.693,0,0,0-.2-.507.726.726,0,0,0-.519-.22.738.738,0,0,0-.668.423h-.21l-.79-2.085a.368.368,0,0,0-.336-.231h-.025a.359.359,0,0,0-.328.28l-.522,3.291-.484-6.263a.364.364,0,0,0-.329-.327h-.028a.38.38,0,0,0-.36.255l-1.517,5.045h-1.963a.363.363,0,0,0-.362.362.364.364,0,0,0,.362.365h2.231a.382.382,0,0,0,.353-.254Zm3.765,8.271a.243.243,0,0,1-.16-.063.233.233,0,0,1-.073-.195l.126-1.54a.331.331,0,0,1,.093-.216l.488-.542,1.806,1.646-.488.543a.421.421,0,0,1-.219.108l-1.534.254h-.01Zm2.846-1.526h0l-1.812-1.666,3.931-4.292,1.794,1.667-3.912,4.29Zm4.492-4.908h0l-1.812-1.648.725-.813a.311.311,0,0,1,.227-.1.314.314,0,0,1,.208.079l1.356,1.231a.314.314,0,0,1,.038.435l-.741.813Z" transform="translate(-7261 7846.999)" fill="#103bb5"/>
</svg>
