<svg xmlns="http://www.w3.org/2000/svg" width="31.933" height="31.757" viewBox="0 0 31.933 31.757"><defs><style>.a{fill:#f23e3e;stroke:#f23e3e;}</style></defs><g transform="translate(52.158 14.499)"><g transform="translate(-51.657 -13.999)"><g transform="translate(0 0)"><path class="a" d="M29.5,11.2,13.872,26.652a6.684,6.684,0,0,1-9.379,0,6.507,6.507,0,0,1,0-9.275L18.561,3.466a4.457,4.457,0,0,1,6.252,0,4.337,4.337,0,0,1,0,6.183L10.745,23.56a2.228,2.228,0,0,1-3.127,0,2.17,2.17,0,0,1,0-3.092L20.123,8.1,18.56,6.558,6.056,18.924a4.337,4.337,0,0,0,0,6.183,4.457,4.457,0,0,0,6.252,0L26.376,11.2a6.507,6.507,0,0,0,0-9.275,6.685,6.685,0,0,0-9.379,0L2.148,16.605l.054.054A8.669,8.669,0,0,0,2.929,28.2a8.911,8.911,0,0,0,11.669.719l.054.054,16.412-16.23Z" transform="translate(-0.343 -0.001)"/></g></g></g></svg>