<svg width="96" height="96" xmlns="http://www.w3.org/2000/svg">

 <g>
  <title>background</title>
  <rect fill="none" id="canvas_background" height="402" width="582" y="-1" x="-1"/>
 </g>
 <g>
  <title>Layer 1</title>
  <path fill="#ffffff" id="svg_1" d="m96.138889,76c-8,-8 -12,-20 -16,-40c-3.466,-17.327 -14.33,-32 -32,-32s-28.535,14.673 -32,32c-4,20 -8,32 -16,40l36.697,0c-0.443,1.253 -0.697,2.596 -0.697,4c0,6.627 5.373,12 12,12c6.627,0 12,-5.373 12,-12c0,-1.404 -0.254,-2.747 -0.697,-4l36.697,0zm-72.155,-38.432c1.199,-5.998 6.487,-25.568 24.155,-25.568c17.668,0 22.956,19.571 24.155,25.569c2.48,12.399 5.03,22.342 8.824,30.431l-65.958,0c3.794,-8.089 6.344,-18.033 8.824,-30.432zm28.155,42.432c0,2.206 -1.794,4 -4,4c-2.206,0 -4,-1.794 -4,-4s1.794,-4 4,-4c2.206,0 4,1.794 4,4z"/>
 </g>
</svg>