<svg xmlns="http://www.w3.org/2000/svg" width="160.094" height="40.334" viewBox="0 0 160.094 40.334">
  <g id="Group_5765" data-name="Group 5765" transform="translate(-31.999 -27)">
    <g id="Group_5764" data-name="Group 5764">
      <g id="Group_5319" data-name="Group 5319" transform="translate(381.154 18.647)">
        <g id="Group_5317" data-name="Group 5317" transform="translate(-349.155 8.353)">
          <path id="Path_2783" data-name="Path 2783" d="M-331.678,24.851V12.11a3.757,3.757,0,0,0-3.757-3.757H-345.4a3.756,3.756,0,0,0-3.756,3.757V44.6a3.756,3.756,0,0,0,3.756,3.757h30.219a3.757,3.757,0,0,0,3.756-3.757V32.364a3.757,3.757,0,0,0-3.756-3.757h-12.741A3.756,3.756,0,0,1-331.678,24.851Z" transform="translate(349.155 -8.353)" fill="#103bb5"/>
        </g>
        <g id="Group_5318" data-name="Group 5318" transform="translate(-341.532 5.353)">
          <path id="Path_2785" data-name="Path 2785" d="M-317.388,34.441V11.353h4.74V27.162a6.88,6.88,0,0,1,5.163-1.947c5.332,0,9.057,3.724,9.057,9.226a9.469,9.469,0,0,1-9.48,9.226C-313.41,43.668-317.388,39.943-317.388,34.441Zm14.22,0a4.6,4.6,0,0,0-4.74-4.825,4.649,4.649,0,0,0-4.74,4.825,4.7,4.7,0,0,0,4.74,4.825A4.649,4.649,0,0,0-303.168,34.441Z" transform="translate(317.388 -8.353)" fill="#fff"/>
        </g>
        <path id="Path_2784" data-name="Path 2784" d="M-285.32,24.733V11.992a3.754,3.754,0,0,0-2.84-3.639v16.38c0,4.577,4.67,8.3,9.247,8.3h13.848v-.787a3.756,3.756,0,0,0-3.756-3.757h-12.741A3.756,3.756,0,0,1-285.32,24.733Z" transform="translate(-46.358)" fill="#5d5d5d" opacity="0.4" style="mix-blend-mode: multiply;isolation: isolate"/>
        <path id="Path_2786" data-name="Path 2786" d="M-271.232,22.634-281.28,12.587a4.012,4.012,0,0,1,1.189,2.74V28.069a3.756,3.756,0,0,0,3.757,3.757h12.741a3.74,3.74,0,0,1,2.62,1.068Z" transform="translate(-51.587 -3.218)" fill="#2d3f74"/>
      </g>
      <g id="Group_5763" data-name="Group 5763" transform="translate(-2 -1.29)">
        <path id="Path_3453" data-name="Path 3453" d="M10.281-8.211a3.535,3.535,0,0,1,2.185,1.357,3.991,3.991,0,0,1,.9,2.553,3.956,3.956,0,0,1-.633,2.2A4.286,4.286,0,0,1,10.9-.564,6.465,6.465,0,0,1,8.119,0H1.725V-15.985h6.1a6.542,6.542,0,0,1,2.806.552A4.118,4.118,0,0,1,12.4-13.95a3.772,3.772,0,0,1,.6,2.082,3.565,3.565,0,0,1-.736,2.3A4.285,4.285,0,0,1,10.281-8.211ZM4.347-9.269H7.59A3.115,3.115,0,0,0,9.6-9.856a2.049,2.049,0,0,0,.724-1.691,2.09,2.09,0,0,0-.724-1.69,3.034,3.034,0,0,0-2.013-.61H4.347Zm3.542,7.13a3.135,3.135,0,0,0,2.093-.644,2.225,2.225,0,0,0,.759-1.794A2.328,2.328,0,0,0,9.936-6.44,3.174,3.174,0,0,0,7.8-7.13H4.347v4.991Zm9.66-12.213a1.624,1.624,0,0,1-1.2-.483,1.624,1.624,0,0,1-.483-1.2,1.624,1.624,0,0,1,.483-1.2,1.624,1.624,0,0,1,1.2-.483,1.6,1.6,0,0,1,1.173.483,1.624,1.624,0,0,1,.483,1.2,1.624,1.624,0,0,1-.483,1.2A1.6,1.6,0,0,1,17.549-14.352Zm1.288,1.679V0H16.215V-12.673Zm9.844-.207a5.683,5.683,0,0,1,2.68.621,4.416,4.416,0,0,1,1.852,1.84,6.053,6.053,0,0,1,.667,2.944V0h-2.6V-7.084a3.678,3.678,0,0,0-.851-2.611,3.029,3.029,0,0,0-2.323-.908,3.066,3.066,0,0,0-2.335.908,3.647,3.647,0,0,0-.862,2.611V0H22.287V-12.673h2.622v1.449a4.34,4.34,0,0,1,1.645-1.219A5.257,5.257,0,0,1,28.681-12.88ZM36.34-6.394a7.014,7.014,0,0,1,.793-3.381A5.816,5.816,0,0,1,39.3-12.064a5.835,5.835,0,0,1,3.048-.816,5.943,5.943,0,0,1,2.45.54,5.012,5.012,0,0,1,1.92,1.438V-17.02h2.645V0H46.713V-1.909A4.909,4.909,0,0,1,44.931-.391a5.531,5.531,0,0,1-2.611.6A5.672,5.672,0,0,1,39.3-.633a5.925,5.925,0,0,1-2.162-2.346A7.217,7.217,0,0,1,36.34-6.394Zm10.373.046a4.589,4.589,0,0,0-.54-2.277A3.794,3.794,0,0,0,44.758-10.1a3.7,3.7,0,0,0-1.886-.506,3.767,3.767,0,0,0-1.886.495A3.729,3.729,0,0,0,39.571-8.66a4.524,4.524,0,0,0-.541,2.265,4.721,4.721,0,0,0,.541,2.3A3.813,3.813,0,0,0,41-2.588a3.657,3.657,0,0,0,1.875.517,3.7,3.7,0,0,0,1.886-.506A3.775,3.775,0,0,0,46.173-4.06,4.655,4.655,0,0,0,46.713-6.348Zm17.71-.3a8.2,8.2,0,0,1-.092,1.288H54.648a3.517,3.517,0,0,0,1.127,2.438A3.558,3.558,0,0,0,58.259-2a3.068,3.068,0,0,0,2.99-1.771h2.829A5.709,5.709,0,0,1,62-.909,6.107,6.107,0,0,1,58.259.207,6.472,6.472,0,0,1,55-.61a5.809,5.809,0,0,1-2.254-2.3,7.016,7.016,0,0,1-.816-3.439,7.181,7.181,0,0,1,.793-3.438,5.58,5.58,0,0,1,2.231-2.289,6.64,6.64,0,0,1,3.3-.8,6.454,6.454,0,0,1,3.2.782,5.526,5.526,0,0,1,2.185,2.2A6.615,6.615,0,0,1,64.423-6.647Zm-2.737-.828A2.984,2.984,0,0,0,60.651-9.8a3.7,3.7,0,0,0-2.507-.874,3.368,3.368,0,0,0-2.323.862,3.6,3.6,0,0,0-1.15,2.335Zm7.935-3.358a4.118,4.118,0,0,1,1.53-1.507,4.524,4.524,0,0,1,2.265-.54v2.714h-.667a3.193,3.193,0,0,0-2.334.782,3.739,3.739,0,0,0-.794,2.714V0H67V-12.673h2.622Z" transform="translate(78 48)" fill="#103bb5"/>
        <path id="Path_3452" data-name="Path 3452" d="M13.719,3.185V15H11.781V6.908L8.177,15H6.834L3.213,6.908V15H1.275V3.185H3.366L7.514,12.45l4.131-9.265Zm1.9,7.089a5.184,5.184,0,0,1,.587-2.5,4.273,4.273,0,0,1,3.833-2.3,4.089,4.089,0,0,1,1.929.434,3.916,3.916,0,0,1,1.318,1.08V5.633h1.955V15H23.29V13.606a3.849,3.849,0,0,1-1.343,1.105,4.346,4.346,0,0,1-4.148-.179A4.4,4.4,0,0,1,16.21,12.8,5.334,5.334,0,0,1,15.623,10.274Zm7.667.034a3.392,3.392,0,0,0-.4-1.683,2.8,2.8,0,0,0-1.045-1.088,2.735,2.735,0,0,0-1.394-.374,2.784,2.784,0,0,0-1.394.365A2.756,2.756,0,0,0,18.012,8.6a3.344,3.344,0,0,0-.4,1.675,3.489,3.489,0,0,0,.4,1.7,2.819,2.819,0,0,0,1.054,1.113,2.7,2.7,0,0,0,1.385.383,2.735,2.735,0,0,0,1.394-.374A2.79,2.79,0,0,0,22.891,12,3.44,3.44,0,0,0,23.29,10.308ZM32.521,5.48a4.2,4.2,0,0,1,1.981.459A3.264,3.264,0,0,1,35.87,7.3a4.474,4.474,0,0,1,.493,2.176V15H34.442V9.764a2.719,2.719,0,0,0-.629-1.93A2.239,2.239,0,0,0,32.1,7.163a2.266,2.266,0,0,0-1.726.671,2.7,2.7,0,0,0-.637,1.93V15H27.8V5.633h1.938V6.7a3.208,3.208,0,0,1,1.215-.9A3.886,3.886,0,0,1,32.521,5.48Zm5.661,4.794a5.184,5.184,0,0,1,.586-2.5A4.273,4.273,0,0,1,42.6,5.48a4.089,4.089,0,0,1,1.93.434,3.916,3.916,0,0,1,1.318,1.08V5.633H47.8V15H45.849V13.606a3.849,3.849,0,0,1-1.343,1.105,4.346,4.346,0,0,1-4.148-.179,4.4,4.4,0,0,1-1.59-1.734A5.334,5.334,0,0,1,38.182,10.274Zm7.667.034a3.392,3.392,0,0,0-.4-1.683A2.8,2.8,0,0,0,44.4,7.537a2.735,2.735,0,0,0-1.394-.374,2.784,2.784,0,0,0-1.394.365A2.756,2.756,0,0,0,40.571,8.6a3.344,3.344,0,0,0-.4,1.675,3.489,3.489,0,0,0,.4,1.7,2.819,2.819,0,0,0,1.054,1.113,2.7,2.7,0,0,0,1.386.383A2.735,2.735,0,0,0,44.4,13.1,2.79,2.79,0,0,0,45.45,12,3.44,3.44,0,0,0,45.849,10.308ZM54.128,5.48a4.154,4.154,0,0,1,1.93.434,3.706,3.706,0,0,1,1.318,1.08V5.633H59.33v9.52a4.786,4.786,0,0,1-.544,2.3,3.931,3.931,0,0,1-1.573,1.589,4.937,4.937,0,0,1-2.456.578,5.331,5.331,0,0,1-3.162-.892,3.293,3.293,0,0,1-1.428-2.423h1.921a2.085,2.085,0,0,0,.944,1.181,3.2,3.2,0,0,0,1.726.451,2.58,2.58,0,0,0,1.9-.714,2.789,2.789,0,0,0,.722-2.074V13.589a4.026,4.026,0,0,1-3.247,1.564,4.192,4.192,0,0,1-2.236-.62,4.379,4.379,0,0,1-1.6-1.734,5.334,5.334,0,0,1-.586-2.524,5.184,5.184,0,0,1,.586-2.5,4.273,4.273,0,0,1,3.833-2.3Zm3.247,4.828a3.392,3.392,0,0,0-.4-1.683A2.8,2.8,0,0,0,55.93,7.537a2.735,2.735,0,0,0-1.394-.374,2.784,2.784,0,0,0-1.394.365A2.756,2.756,0,0,0,52.1,8.6a3.344,3.344,0,0,0-.4,1.675,3.489,3.489,0,0,0,.4,1.7,2.819,2.819,0,0,0,1.054,1.113,2.7,2.7,0,0,0,1.386.383A2.735,2.735,0,0,0,55.93,13.1,2.79,2.79,0,0,0,56.976,12,3.44,3.44,0,0,0,57.375,10.308Zm13.09-.221a6.059,6.059,0,0,1-.068.952H63.24a2.6,2.6,0,0,0,.833,1.8,2.629,2.629,0,0,0,1.836.68,2.268,2.268,0,0,0,2.21-1.309H70.21a4.219,4.219,0,0,1-1.539,2.116,4.514,4.514,0,0,1-2.762.825,4.784,4.784,0,0,1-2.406-.6,4.294,4.294,0,0,1-1.666-1.7,5.186,5.186,0,0,1-.6-2.542,5.308,5.308,0,0,1,.586-2.541A4.125,4.125,0,0,1,63.47,6.075a4.908,4.908,0,0,1,2.439-.6,4.771,4.771,0,0,1,2.363.578,4.084,4.084,0,0,1,1.615,1.623A4.889,4.889,0,0,1,70.465,10.087Zm-2.023-.612a2.205,2.205,0,0,0-.765-1.717,2.735,2.735,0,0,0-1.853-.646,2.489,2.489,0,0,0-1.717.638,2.664,2.664,0,0,0-.85,1.726Zm15.266-4a4.2,4.2,0,0,1,1.981.459A3.316,3.316,0,0,1,87.066,7.3a4.412,4.412,0,0,1,.5,2.176V15H85.646V9.764a2.719,2.719,0,0,0-.629-1.93A2.239,2.239,0,0,0,83.3,7.163a2.266,2.266,0,0,0-1.726.671,2.7,2.7,0,0,0-.637,1.93V15H79.016V9.764a2.719,2.719,0,0,0-.629-1.93,2.239,2.239,0,0,0-1.717-.671,2.266,2.266,0,0,0-1.725.671,2.7,2.7,0,0,0-.638,1.93V15H72.369V5.633h1.938V6.7a3.222,3.222,0,0,1,1.207-.9,3.826,3.826,0,0,1,1.564-.323,4.164,4.164,0,0,1,2.006.476,3.254,3.254,0,0,1,1.36,1.377A3.142,3.142,0,0,1,81.77,5.981,3.921,3.921,0,0,1,83.708,5.48Zm14.909,4.607a6.059,6.059,0,0,1-.068.952H91.392a2.6,2.6,0,0,0,.833,1.8,2.629,2.629,0,0,0,1.836.68,2.268,2.268,0,0,0,2.21-1.309h2.091a4.219,4.219,0,0,1-1.538,2.116,4.514,4.514,0,0,1-2.762.825,4.784,4.784,0,0,1-2.406-.6,4.294,4.294,0,0,1-1.666-1.7,5.186,5.186,0,0,1-.6-2.542,5.308,5.308,0,0,1,.587-2.541,4.125,4.125,0,0,1,1.649-1.692,4.908,4.908,0,0,1,2.439-.6,4.771,4.771,0,0,1,2.363.578,4.084,4.084,0,0,1,1.615,1.623A4.889,4.889,0,0,1,98.617,10.087Zm-2.023-.612a2.205,2.205,0,0,0-.765-1.717,2.735,2.735,0,0,0-1.853-.646,2.489,2.489,0,0,0-1.717.638,2.664,2.664,0,0,0-.85,1.726Zm8.653-4a4.2,4.2,0,0,1,1.98.459A3.264,3.264,0,0,1,108.6,7.3a4.474,4.474,0,0,1,.493,2.176V15h-1.921V9.764a2.719,2.719,0,0,0-.629-1.93,2.239,2.239,0,0,0-1.717-.671,2.266,2.266,0,0,0-1.726.671,2.7,2.7,0,0,0-.638,1.93V15h-1.938V5.633h1.938V6.7a3.208,3.208,0,0,1,1.215-.9A3.886,3.886,0,0,1,105.247,5.48Zm8.568,1.734V12.4a1,1,0,0,0,.246.757,1.226,1.226,0,0,0,.841.229h1.19V15h-1.53a2.949,2.949,0,0,1-2.006-.612,2.522,2.522,0,0,1-.7-1.989V7.214h-1.105V5.633h1.105V3.3h1.955V5.633h2.278V7.214Z" transform="translate(78 49)" fill="#8f9ec7"/>
      </g>
    </g>
  </g>
</svg>
