<svg id="Component_65_1" data-name="Component 65 – 1" xmlns="http://www.w3.org/2000/svg" width="153.264" height="40" viewBox="0 0 153.264 40">
  <g id="Group_5319" data-name="Group 5319" transform="translate(349.155 -8.353)">
    <g id="Group_5317" data-name="Group 5317" transform="translate(-349.155 8.353)">
      <path id="Path_2783" data-name="Path 2783" d="M-331.678,24.851V12.11a3.757,3.757,0,0,0-3.757-3.757H-345.4a3.756,3.756,0,0,0-3.756,3.757V44.6a3.756,3.756,0,0,0,3.756,3.757h30.219a3.757,3.757,0,0,0,3.756-3.757V32.364a3.757,3.757,0,0,0-3.756-3.757h-12.741A3.756,3.756,0,0,1-331.678,24.851Z" transform="translate(349.155 -8.353)" fill="#fff"/>
    </g>
    <path id="Path_2784" data-name="Path 2784" d="M-285.32,24.733V11.992a3.754,3.754,0,0,0-2.84-3.639v16.38c0,4.577,4.67,8.3,9.247,8.3h13.848v-.787a3.756,3.756,0,0,0-3.756-3.757h-12.741A3.756,3.756,0,0,1-285.32,24.733Z" transform="translate(-46.358)" fill="#5d5d5d" opacity="0.4" style="mix-blend-mode: multiply;isolation: isolate"/>
    <g id="Group_5318" data-name="Group 5318" transform="translate(-341.532 5.353)">
      <path id="Path_2785" data-name="Path 2785" d="M-317.388,34.441V11.353h4.74V27.162a6.88,6.88,0,0,1,5.163-1.947c5.332,0,9.057,3.724,9.057,9.226a9.469,9.469,0,0,1-9.48,9.226C-313.41,43.668-317.388,39.943-317.388,34.441Zm14.22,0a4.6,4.6,0,0,0-4.74-4.825,4.649,4.649,0,0,0-4.74,4.825,4.7,4.7,0,0,0,4.74,4.825A4.649,4.649,0,0,0-303.168,34.441Z" transform="translate(317.388 -8.353)" fill="#103bb5"/>
    </g>
    <path id="Path_2786" data-name="Path 2786" d="M-271.232,22.634-281.28,12.587a4.012,4.012,0,0,1,1.189,2.74V28.069a3.756,3.756,0,0,0,3.757,3.757h12.741a3.74,3.74,0,0,1,2.62,1.068Z" transform="translate(-51.587 -3.218)" fill="#fff"/>
  </g>
  <g id="Group_5761" data-name="Group 5761" transform="translate(5058 -2433.29)">
    <path id="Path_3451" data-name="Path 3451" d="M10.281-8.211a3.535,3.535,0,0,1,2.185,1.357,3.991,3.991,0,0,1,.9,2.553,3.956,3.956,0,0,1-.633,2.2A4.286,4.286,0,0,1,10.9-.564,6.465,6.465,0,0,1,8.119,0H1.725V-15.985h6.1a6.542,6.542,0,0,1,2.806.552A4.118,4.118,0,0,1,12.4-13.95a3.772,3.772,0,0,1,.6,2.082,3.565,3.565,0,0,1-.736,2.3A4.285,4.285,0,0,1,10.281-8.211ZM4.347-9.269H7.59A3.115,3.115,0,0,0,9.6-9.856a2.049,2.049,0,0,0,.724-1.691,2.09,2.09,0,0,0-.724-1.69,3.034,3.034,0,0,0-2.013-.61H4.347Zm3.542,7.13a3.135,3.135,0,0,0,2.093-.644,2.225,2.225,0,0,0,.759-1.794A2.328,2.328,0,0,0,9.936-6.44,3.174,3.174,0,0,0,7.8-7.13H4.347v4.991Zm9.66-12.213a1.624,1.624,0,0,1-1.2-.483,1.624,1.624,0,0,1-.483-1.2,1.624,1.624,0,0,1,.483-1.2,1.624,1.624,0,0,1,1.2-.483,1.6,1.6,0,0,1,1.173.483,1.624,1.624,0,0,1,.483,1.2,1.624,1.624,0,0,1-.483,1.2A1.6,1.6,0,0,1,17.549-14.352Zm1.288,1.679V0H16.215V-12.673Zm9.844-.207a5.683,5.683,0,0,1,2.68.621,4.416,4.416,0,0,1,1.852,1.84,6.053,6.053,0,0,1,.667,2.944V0h-2.6V-7.084a3.678,3.678,0,0,0-.851-2.611,3.029,3.029,0,0,0-2.323-.908,3.066,3.066,0,0,0-2.335.908,3.647,3.647,0,0,0-.862,2.611V0H22.287V-12.673h2.622v1.449a4.34,4.34,0,0,1,1.645-1.219A5.257,5.257,0,0,1,28.681-12.88ZM36.34-6.394a7.014,7.014,0,0,1,.793-3.381A5.816,5.816,0,0,1,39.3-12.064a5.835,5.835,0,0,1,3.048-.816,5.943,5.943,0,0,1,2.45.54,5.012,5.012,0,0,1,1.92,1.438V-17.02h2.645V0H46.713V-1.909A4.909,4.909,0,0,1,44.931-.391a5.531,5.531,0,0,1-2.611.6A5.672,5.672,0,0,1,39.3-.633a5.925,5.925,0,0,1-2.162-2.346A7.217,7.217,0,0,1,36.34-6.394Zm10.373.046a4.589,4.589,0,0,0-.54-2.277A3.794,3.794,0,0,0,44.758-10.1a3.7,3.7,0,0,0-1.886-.506,3.767,3.767,0,0,0-1.886.495A3.729,3.729,0,0,0,39.571-8.66a4.524,4.524,0,0,0-.541,2.265,4.721,4.721,0,0,0,.541,2.3A3.813,3.813,0,0,0,41-2.588a3.657,3.657,0,0,0,1.875.517,3.7,3.7,0,0,0,1.886-.506A3.775,3.775,0,0,0,46.173-4.06,4.655,4.655,0,0,0,46.713-6.348Zm17.71-.3a8.2,8.2,0,0,1-.092,1.288H54.648a3.517,3.517,0,0,0,1.127,2.438A3.558,3.558,0,0,0,58.259-2a3.068,3.068,0,0,0,2.99-1.771h2.829A5.709,5.709,0,0,1,62-.909,6.107,6.107,0,0,1,58.259.207,6.472,6.472,0,0,1,55-.61a5.809,5.809,0,0,1-2.254-2.3,7.016,7.016,0,0,1-.816-3.439,7.181,7.181,0,0,1,.793-3.438,5.58,5.58,0,0,1,2.231-2.289,6.64,6.64,0,0,1,3.3-.8,6.454,6.454,0,0,1,3.2.782,5.526,5.526,0,0,1,2.185,2.2A6.615,6.615,0,0,1,64.423-6.647Zm-2.737-.828A2.984,2.984,0,0,0,60.651-9.8a3.7,3.7,0,0,0-2.507-.874,3.368,3.368,0,0,0-2.323.862,3.6,3.6,0,0,0-1.15,2.335Zm7.935-3.358a4.118,4.118,0,0,1,1.53-1.507,4.524,4.524,0,0,1,2.265-.54v2.714h-.667a3.193,3.193,0,0,0-2.334.782,3.739,3.739,0,0,0-.794,2.714V0H67V-12.673h2.622Z" transform="translate(-5015 2453)" fill="#fff"/>
    <path id="Path_3450" data-name="Path 3450" d="M12.912-11.12V0H11.088V-7.616L7.7,0H6.432L3.024-7.616V0H1.2V-11.12H3.168l3.9,8.72,3.888-8.72ZM14.7-4.448A4.879,4.879,0,0,1,15.256-6.8a4.046,4.046,0,0,1,1.5-1.592,4.029,4.029,0,0,1,2.1-.568,3.849,3.849,0,0,1,1.816.408,3.685,3.685,0,0,1,1.24,1.016v-1.28h1.84V0H21.92V-1.312a3.622,3.622,0,0,1-1.264,1.04,3.9,3.9,0,0,1-1.824.416,3.877,3.877,0,0,1-2.08-.584,4.142,4.142,0,0,1-1.5-1.632A5.021,5.021,0,0,1,14.7-4.448Zm7.216.032A3.192,3.192,0,0,0,21.544-6a2.639,2.639,0,0,0-.984-1.024,2.574,2.574,0,0,0-1.312-.352,2.62,2.62,0,0,0-1.312.344,2.594,2.594,0,0,0-.984,1.008,3.147,3.147,0,0,0-.376,1.576,3.284,3.284,0,0,0,.376,1.6A2.653,2.653,0,0,0,17.944-1.8a2.544,2.544,0,0,0,1.3.36,2.574,2.574,0,0,0,1.312-.352,2.626,2.626,0,0,0,.984-1.032A3.238,3.238,0,0,0,21.92-4.416ZM30.608-8.96a3.953,3.953,0,0,1,1.864.432,3.072,3.072,0,0,1,1.288,1.28A4.211,4.211,0,0,1,34.224-5.2V0H32.416V-4.928a2.559,2.559,0,0,0-.592-1.816,2.107,2.107,0,0,0-1.616-.632,2.133,2.133,0,0,0-1.624.632,2.537,2.537,0,0,0-.6,1.816V0H26.16V-8.816h1.824v1.008a3.019,3.019,0,0,1,1.144-.848A3.657,3.657,0,0,1,30.608-8.96Zm5.328,4.512A4.879,4.879,0,0,1,36.488-6.8a4.046,4.046,0,0,1,1.5-1.592,4.029,4.029,0,0,1,2.1-.568,3.849,3.849,0,0,1,1.816.408,3.685,3.685,0,0,1,1.24,1.016v-1.28h1.84V0h-1.84V-1.312a3.622,3.622,0,0,1-1.264,1.04,3.9,3.9,0,0,1-1.824.416,3.877,3.877,0,0,1-2.08-.584,4.142,4.142,0,0,1-1.5-1.632A5.021,5.021,0,0,1,35.936-4.448Zm7.216.032A3.192,3.192,0,0,0,42.776-6a2.639,2.639,0,0,0-.984-1.024,2.574,2.574,0,0,0-1.312-.352,2.62,2.62,0,0,0-1.312.344,2.594,2.594,0,0,0-.984,1.008,3.147,3.147,0,0,0-.376,1.576,3.284,3.284,0,0,0,.376,1.6A2.653,2.653,0,0,0,39.176-1.8a2.544,2.544,0,0,0,1.3.36,2.574,2.574,0,0,0,1.312-.352,2.626,2.626,0,0,0,.984-1.032A3.238,3.238,0,0,0,43.152-4.416ZM50.944-8.96a3.909,3.909,0,0,1,1.816.408A3.488,3.488,0,0,1,54-7.536v-1.28h1.84V.144a4.5,4.5,0,0,1-.512,2.168,3.7,3.7,0,0,1-1.48,1.5,4.647,4.647,0,0,1-2.312.544,5.017,5.017,0,0,1-2.976-.84,3.1,3.1,0,0,1-1.344-2.28h1.808a1.963,1.963,0,0,0,.888,1.112,3.007,3.007,0,0,0,1.624.424A2.428,2.428,0,0,0,53.32,2.1,2.625,2.625,0,0,0,54,.144V-1.328A3.719,3.719,0,0,1,52.744-.28a3.754,3.754,0,0,1-1.8.424,3.945,3.945,0,0,1-2.1-.584,4.122,4.122,0,0,1-1.5-1.632,5.021,5.021,0,0,1-.552-2.376A4.879,4.879,0,0,1,47.336-6.8a4.046,4.046,0,0,1,1.5-1.592A4.029,4.029,0,0,1,50.944-8.96ZM54-4.416A3.192,3.192,0,0,0,53.624-6a2.639,2.639,0,0,0-.984-1.024,2.574,2.574,0,0,0-1.312-.352,2.62,2.62,0,0,0-1.312.344,2.594,2.594,0,0,0-.984,1.008,3.147,3.147,0,0,0-.376,1.576,3.284,3.284,0,0,0,.376,1.6A2.653,2.653,0,0,0,50.024-1.8a2.544,2.544,0,0,0,1.3.36,2.574,2.574,0,0,0,1.312-.352,2.626,2.626,0,0,0,.984-1.032A3.238,3.238,0,0,0,54-4.416Zm12.32-.208a5.7,5.7,0,0,1-.064.9H59.52a2.446,2.446,0,0,0,.784,1.7,2.475,2.475,0,0,0,1.728.64,2.134,2.134,0,0,0,2.08-1.232H66.08A3.971,3.971,0,0,1,64.632-.632a4.249,4.249,0,0,1-2.6.776,4.5,4.5,0,0,1-2.264-.568,4.041,4.041,0,0,1-1.568-1.6,4.881,4.881,0,0,1-.568-2.392,5,5,0,0,1,.552-2.392A3.882,3.882,0,0,1,59.736-8.4a4.619,4.619,0,0,1,2.3-.56,4.49,4.49,0,0,1,2.224.544,3.844,3.844,0,0,1,1.52,1.528A4.6,4.6,0,0,1,66.32-4.624Zm-1.9-.576a2.076,2.076,0,0,0-.72-1.616,2.574,2.574,0,0,0-1.744-.608,2.343,2.343,0,0,0-1.616.6,2.507,2.507,0,0,0-.8,1.624ZM78.784-8.96a3.953,3.953,0,0,1,1.864.432,3.121,3.121,0,0,1,1.3,1.28A4.152,4.152,0,0,1,82.416-5.2V0H80.608V-4.928a2.559,2.559,0,0,0-.592-1.816A2.107,2.107,0,0,0,78.4-7.376a2.133,2.133,0,0,0-1.624.632,2.537,2.537,0,0,0-.6,1.816V0H74.368V-4.928a2.559,2.559,0,0,0-.592-1.816,2.107,2.107,0,0,0-1.616-.632,2.133,2.133,0,0,0-1.624.632,2.537,2.537,0,0,0-.6,1.816V0H68.112V-8.816h1.824v1.008a3.033,3.033,0,0,1,1.136-.848,3.6,3.6,0,0,1,1.472-.3,3.919,3.919,0,0,1,1.888.448,3.062,3.062,0,0,1,1.28,1.3A2.957,2.957,0,0,1,76.96-8.488,3.691,3.691,0,0,1,78.784-8.96ZM92.816-4.624a5.7,5.7,0,0,1-.064.9H86.016a2.446,2.446,0,0,0,.784,1.7,2.475,2.475,0,0,0,1.728.64,2.134,2.134,0,0,0,2.08-1.232h1.968A3.971,3.971,0,0,1,91.128-.632a4.249,4.249,0,0,1-2.6.776,4.5,4.5,0,0,1-2.264-.568,4.041,4.041,0,0,1-1.568-1.6,4.881,4.881,0,0,1-.568-2.392,5,5,0,0,1,.552-2.392A3.882,3.882,0,0,1,86.232-8.4a4.619,4.619,0,0,1,2.3-.56,4.49,4.49,0,0,1,2.224.544,3.844,3.844,0,0,1,1.52,1.528A4.6,4.6,0,0,1,92.816-4.624Zm-1.9-.576a2.076,2.076,0,0,0-.72-1.616,2.574,2.574,0,0,0-1.744-.608,2.343,2.343,0,0,0-1.616.6,2.507,2.507,0,0,0-.8,1.624Zm8.144-3.76a3.953,3.953,0,0,1,1.864.432,3.072,3.072,0,0,1,1.288,1.28,4.211,4.211,0,0,1,.464,2.048V0h-1.808V-4.928a2.559,2.559,0,0,0-.592-1.816,2.107,2.107,0,0,0-1.616-.632,2.133,2.133,0,0,0-1.624.632,2.537,2.537,0,0,0-.6,1.816V0H94.608V-8.816h1.824v1.008a3.019,3.019,0,0,1,1.144-.848A3.657,3.657,0,0,1,99.056-8.96Zm8.064,1.632v4.88a.937.937,0,0,0,.232.712,1.154,1.154,0,0,0,.792.216h1.12V0h-1.44a2.776,2.776,0,0,1-1.888-.576,2.374,2.374,0,0,1-.656-1.872v-4.88h-1.04V-8.816h1.04v-2.192h1.84v2.192h2.144v1.488Z" transform="translate(-5014 2467)" fill="#7c95d8"/>
  </g>
</svg>
