<svg xmlns="http://www.w3.org/2000/svg" width="11" height="13" viewBox="0 0 11 13">
  <g id="Group_6428" data-name="Group 6428" transform="translate(-1148.874 -2197.927)">
    <path id="Subtraction_8" data-name="Subtraction 8" d="M4.5,13H.5a.5.5,0,0,1-.5-.5V.5A.5.5,0,0,1,.5,0h4A.5.5,0,0,1,5,.5v12A.5.5,0,0,1,4.5,13ZM2.526,9.148a1.258,1.258,0,0,0,0,2.515,1.258,1.258,0,0,0,0-2.515Zm0-7.97A1.225,1.225,0,0,0,1.3,2.4V6.64a1.224,1.224,0,1,0,2.448,0V2.4A1.225,1.225,0,0,0,2.526,1.177Z" transform="translate(1148.874 2197.927)" fill="#828691"/>
    <path id="Subtraction_9" data-name="Subtraction 9" d="M4.5,13H.5a.5.5,0,0,1-.5-.5V.5A.5.5,0,0,1,.5,0h4A.5.5,0,0,1,5,.5v12A.5.5,0,0,1,4.5,13ZM2.526,9.148a1.258,1.258,0,0,0,0,2.515,1.258,1.258,0,0,0,0-2.515Zm0-7.97A1.225,1.225,0,0,0,1.3,2.4V6.64a1.224,1.224,0,1,0,2.448,0V2.4A1.225,1.225,0,0,0,2.526,1.177Z" transform="translate(1154.874 2197.927)" fill="#828691"/>
  </g>
</svg>
