<svg xmlns="http://www.w3.org/2000/svg" width="17.302" height="14.913" viewBox="0 0 17.302 14.913">
  <g id="Group_6427" data-name="Group 6427" transform="translate(-2210 -3545)">
    <g id="city" transform="translate(2210 3545)">
      <path id="Path_3823" data-name="Path 3823" d="M238,430h1.153v2.714H238Z" transform="translate(-229.926 -417.801)" fill="#828691"/>
      <path id="Path_3824" data-name="Path 3824" d="M0,152H3.189v7.68H0Z" transform="translate(0 -144.767)" fill="#828691"/>
      <path id="Path_3825" data-name="Path 3825" d="M412,208h3.325v10.246H412Z" transform="translate(-398.022 -203.374)" fill="#828691"/>
      <path id="Path_3826" data-name="Path 3826" d="M134.989,11h-4v2.171H128V25.913h2.714V22.181H133.9v3.732h2.714V13.171h-1.628Zm-3.766,9.485h-1.086V19.467h1.086Zm0-2.171h-1.086V17.3h1.086Zm0-2.171h-1.086V15.124h1.086Zm3.257,4.343h-1.086V19.467h1.086Zm0-2.171h-1.086V17.3h1.086Zm0-2.171h-1.086V15.124h1.086Z" transform="translate(-123.658 -11)" fill="#828691"/>
    </g>
  </g>
</svg>
