<svg xmlns="http://www.w3.org/2000/svg" width="14.661" height="14.672" viewBox="0 0 14.661 14.672">
  <g id="Group_6177" data-name="Group 6177" transform="translate(-0.264 -290.91)">
    <path id="Path_3714" data-name="Path 3714" d="M4.921.26a.666.666,0,0,0-.658.679V1.6H.932a.666.666,0,0,0-.669.669v2H14.925v-2a.666.666,0,0,0-.669-.669h-3.33V.939a.666.666,0,1,0-1.332,0V1.6H8.261V.939a.667.667,0,1,0-1.334,0V1.6H5.595V.939A.666.666,0,0,0,4.921.26ZM.264,5.6v8.661a.666.666,0,0,0,.669.669H14.256a.666.666,0,0,0,.669-.669V5.6ZM4.93,8.267a.666.666,0,1,1-.666.666A.666.666,0,0,1,4.93,8.267Zm2.665,0a.666.666,0,1,1-.666.666A.666.666,0,0,1,7.595,8.267Zm2.665,0a.666.666,0,1,1-.666.666A.666.666,0,0,1,10.26,8.267ZM4.93,10.932a.666.666,0,1,1-.666.666A.666.666,0,0,1,4.93,10.932Zm2.665,0a.666.666,0,1,1-.666.666A.666.666,0,0,1,7.595,10.932Zm2.665,0a.666.666,0,1,1-.666.666A.666.666,0,0,1,10.26,10.932Z" transform="translate(0 290.65)" fill="#103bb5" fill-rule="evenodd"/>
  </g>
</svg>
