<svg id="calendar_6_" data-name="calendar (6)" xmlns="http://www.w3.org/2000/svg" width="13" height="13" viewBox="0 0 13 13">
  <g id="Group_5842" data-name="Group 5842" transform="translate(0 0)">
    <g id="Group_5841" data-name="Group 5841" transform="translate(0 0)">
      <path id="Path_3507" data-name="Path 3507" d="M11.7,1.3h-.65V.65a.65.65,0,1,0-1.3,0V1.3H3.25V.65A.614.614,0,0,0,2.6,0a.614.614,0,0,0-.65.65V1.3H.65A.651.651,0,0,0,0,1.95v9.1a.651.651,0,0,0,.65.65H4.615A5.174,5.174,0,0,1,12.35,5.07V1.95A.7.7,0,0,0,11.7,1.3Z" transform="translate(0 0)" fill="#828691"/>
    </g>
  </g>
  <g id="Group_5844" data-name="Group 5844" transform="translate(5.2 5.2)">
    <g id="Group_5843" data-name="Group 5843">
      <path id="Path_3508" data-name="Path 3508" d="M208.7,204.8a3.9,3.9,0,1,0,3.9,3.9A3.911,3.911,0,0,0,208.7,204.8Zm1.3,4.55h-1.3a.614.614,0,0,1-.65-.65v-1.95a.65.65,0,1,1,1.3,0v1.3H210a.65.65,0,1,1,0,1.3Z" transform="translate(-204.8 -204.8)" fill="#828691"/>
    </g>
  </g>
</svg>
