<svg xmlns="http://www.w3.org/2000/svg" width="23.899" height="22.032" viewBox="0 0 23.899 22.032">
  <g id="calendar_7_" data-name="calendar (7)" transform="translate(0 -20)">
    <g id="Group_5974" data-name="Group 5974" transform="translate(0 20)">
      <g id="Group_5973" data-name="Group 5973" transform="translate(0 0)">
        <path id="Path_3597" data-name="Path 3597" d="M22.966,21.875h-4.6v-.941a.934.934,0,1,0-1.867,0v.941H7.4v-.941a.934.934,0,1,0-1.867,0v.941H.934A.934.934,0,0,0,0,22.808V41.1a.934.934,0,0,0,.934.934H22.966A.934.934,0,0,0,23.9,41.1V22.808A.934.934,0,0,0,22.966,21.875Zm-.934,18.29H1.867V23.742H5.531v.941a.934.934,0,1,0,1.867,0v-.941h9.1v.941a.934.934,0,1,0,1.867,0v-.941h3.664Z" transform="translate(0 -20)" fill="#6373a2"/>
      </g>
    </g>
    <g id="Group_5976" data-name="Group 5976" transform="translate(10.689 28.773)">
      <g id="Group_5975" data-name="Group 5975">
        <circle id="Ellipse_127" data-name="Ellipse 127" cx="1.26" cy="1.26" r="1.26" fill="#6373a2"/>
      </g>
    </g>
    <g id="Group_5978" data-name="Group 5978" transform="translate(10.689 34.258)">
      <g id="Group_5977" data-name="Group 5977" transform="translate(0 0)">
        <circle id="Ellipse_128" data-name="Ellipse 128" cx="1.26" cy="1.26" r="1.26" fill="#6373a2"/>
      </g>
    </g>
    <g id="Group_5980" data-name="Group 5980" transform="translate(5.204 28.773)">
      <g id="Group_5979" data-name="Group 5979">
        <circle id="Ellipse_129" data-name="Ellipse 129" cx="1.26" cy="1.26" r="1.26" fill="#6373a2"/>
      </g>
    </g>
    <g id="Group_5982" data-name="Group 5982" transform="translate(16.175 28.773)">
      <g id="Group_5981" data-name="Group 5981">
        <circle id="Ellipse_130" data-name="Ellipse 130" cx="1.26" cy="1.26" r="1.26" fill="#6373a2"/>
      </g>
    </g>
    <g id="Group_5984" data-name="Group 5984" transform="translate(5.204 34.258)">
      <g id="Group_5983" data-name="Group 5983" transform="translate(0 0)">
        <circle id="Ellipse_131" data-name="Ellipse 131" cx="1.26" cy="1.26" r="1.26" fill="#6373a2"/>
      </g>
    </g>
    <g id="Group_5986" data-name="Group 5986" transform="translate(16.175 34.258)">
      <g id="Group_5985" data-name="Group 5985" transform="translate(0 0)">
        <circle id="Ellipse_132" data-name="Ellipse 132" cx="1.26" cy="1.26" r="1.26" fill="#6373a2"/>
      </g>
    </g>
  </g>
</svg>
