<svg xmlns="http://www.w3.org/2000/svg" width="30.597" height="26.181" viewBox="0 0 30.597 26.181"><defs><style>.a{fill:#f23e3e;}</style></defs><g transform="translate(-11.2 -16.8)"><path class="a" d="M40.614,20.033H36.08v-2.05a1.183,1.183,0,0,0-2.366,0v2.05H19.283v-2.05a1.183,1.183,0,1,0-2.366,0v2.05H12.383A1.183,1.183,0,0,0,11.2,21.216V41.8a1.183,1.183,0,0,0,1.183,1.183H40.614A1.183,1.183,0,0,0,41.8,41.8V21.216A1.183,1.183,0,0,0,40.614,20.033ZM17.075,27.525h8.872V29.89H17.075ZM35.883,35.8H17.075V33.439H35.922Z"/></g></svg>