<svg width="24" height="24" viewBox="0 0 24 24" fill="none" xmlns="http://www.w3.org/2000/svg">
<path d="M12.4994 19.0413L12.7271 20.25H12.2614L12.4994 19.0413ZM11.9261 17.3208H11.8937V17.0662H13.1073V17.3193H13.0795H12.1751L12.1754 17.3208H11.9261ZM5.3797 17.9486C6.35003 17.5755 7.2889 17.126 8.1876 16.6046L9.57978 20.25H3.79656C3.80689 20.019 3.81331 19.8134 3.81894 19.6331C3.8224 19.5224 3.82556 19.4211 3.82915 19.3294C3.84617 18.8941 3.87416 18.7391 3.90893 18.6568C3.90931 18.6559 3.90971 18.6549 3.91013 18.6539C3.91992 18.63 3.94243 18.5749 4.14009 18.4647C4.37624 18.3331 4.74306 18.1875 5.37403 17.9508L5.37404 17.9508L5.3797 17.9486ZM21.2499 20.25H15.4425L16.9128 16.3653C17.7264 16.8399 18.5839 17.2362 19.4737 17.5483L19.4737 17.5484L19.4844 17.552C20.0715 17.7479 20.4416 17.88 20.7007 18.0159C20.9343 18.1384 21.0156 18.2329 21.0664 18.3283C21.1326 18.4524 21.1939 18.6689 21.2247 19.1223C21.2452 19.4245 21.2504 19.79 21.2499 20.25ZM9.21295 10.5808L9.1837 10.4817L9.12872 10.3941C8.93512 10.0858 8.79345 9.66414 8.76142 9.23272C8.72929 8.79987 8.81119 8.42259 8.98413 8.15484C9.19294 7.83245 9.24815 7.52253 9.2544 7.24477C9.2571 7.12427 9.25053 7.00404 9.24533 6.90886L9.24485 6.90001C9.23915 6.79565 9.23429 6.70515 9.23429 6.60714C9.23429 5.65122 9.63942 4.96493 10.2508 4.49769C10.883 4.01459 11.7629 3.75 12.6798 3.75C13.5967 3.75 14.4767 4.01459 15.1089 4.49769C15.7203 4.96493 16.1254 5.65122 16.1254 6.60714C16.1254 6.73022 16.1186 6.83034 16.111 6.93367C16.1105 6.94073 16.1099 6.94803 16.1094 6.95557C16.1026 7.04705 16.0932 7.17265 16.0979 7.29843C16.1107 7.64315 16.2218 7.93294 16.444 8.2594L16.4458 8.26212C16.5762 8.45188 16.6503 8.79619 16.6001 9.25689C16.5511 9.70505 16.397 10.1342 16.2318 10.3984L16.1861 10.4714L16.1582 10.5528C16.1114 10.6893 16.0043 10.8973 15.8357 11.1762C15.7091 11.3857 15.5675 11.6038 15.4202 11.8308C15.3763 11.8982 15.332 11.9665 15.2874 12.0356C15.101 12.3244 14.9066 12.6321 14.7652 12.906C14.6946 13.043 14.6254 13.1937 14.5777 13.3451C14.5403 13.4636 14.4928 13.6522 14.5153 13.8643C14.5156 14.1405 14.3856 14.3583 14.0859 14.5435C13.7493 14.7516 13.2394 14.8794 12.6762 14.8752C12.1143 14.871 11.5924 14.736 11.2383 14.5194C10.9086 14.3178 10.7759 14.088 10.7713 13.829C10.7823 13.6221 10.7265 13.4384 10.6899 13.3326C10.6419 13.1939 10.5759 13.0514 10.5079 12.918C10.3719 12.6512 10.1879 12.3437 10.0111 12.0513C9.98922 12.015 9.96736 11.9789 9.94559 11.9429C9.78567 11.6787 9.63091 11.4231 9.4984 11.1848C9.34207 10.9036 9.24874 10.7022 9.21295 10.5808Z" stroke="#C5D2F8" stroke-width="1.5"/>
</svg>
