<svg xmlns="http://www.w3.org/2000/svg" width="14.756" height="11.526" viewBox="0 0 14.756 11.526">
  <g id="Group_5833" data-name="Group 5833" transform="translate(-872 -217.148)">
    <g id="Group_5832" data-name="Group 5832">
      <path id="Path_3118" data-name="Path 3118" d="M83.032,172.228H81.188v1.23h1.23v9.067h-12.3v-9.067h1.23v-1.23H69.506a.614.614,0,0,0-.615.615v10.3a.614.614,0,0,0,.615.615H83.032a.614.614,0,0,0,.615-.615v-10.3A.614.614,0,0,0,83.032,172.228Z" transform="translate(803.109 44.92)" fill="#103bb5"/>
      <path id="Path_3119" data-name="Path 3119" d="M72.082,9.449h5.625" transform="translate(867.051 297.344) rotate(-90)" fill="none" stroke="#103bb5" stroke-width="1"/>
      <path id="Path_3120" data-name="Path 3120" d="M72.082,9.449h5.625" transform="translate(869.051 297.344) rotate(-90)" fill="none" stroke="#103bb5" stroke-width="1"/>
      <path id="Path_3121" data-name="Path 3121" d="M72.082,9.449h5.625" transform="translate(871.051 297.344) rotate(-90)" fill="none" stroke="#103bb5" stroke-width="1"/>
      <path id="Path_3195" data-name="Path 3195" d="M72.082,9.449h5.625" transform="translate(873.051 297.344) rotate(-90)" fill="none" stroke="#103bb5" stroke-width="1"/>
    </g>
  </g>
</svg>
