<svg xmlns="http://www.w3.org/2000/svg" width="17.988" height="17.988" viewBox="0 0 17.988 17.988">
  <g id="color-wheel" transform="translate(0 -0.002)">
    <path id="Path_3112" data-name="Path 3112" d="M15.355,2.635A9,9,0,0,0,2.633,15.357,9,9,0,0,0,15.355,2.635Zm.768,9.868-1.537-.887a6.212,6.212,0,0,0,0-5.24l1.537-.887a7.987,7.987,0,0,1,0,7.015ZM3.876,9a5.115,5.115,0,0,1,.4-1.986l1.553.9a3.349,3.349,0,0,0,.039,2.287l-1.547.893A5.11,5.11,0,0,1,3.876,9ZM9.521,5.688V3.905a5.078,5.078,0,0,1,3.093,1.471,5.177,5.177,0,0,1,.527.617l-1.547.893a3.35,3.35,0,0,0-2.073-1.2ZM11.289,9a2.3,2.3,0,1,1-2.3-2.3A2.3,2.3,0,0,1,11.289,9ZM8.467,5.688A3.352,3.352,0,0,0,6.324,6.977L4.781,6.086a5.168,5.168,0,0,1,.593-.71A5.078,5.078,0,0,1,8.467,3.905ZM6.395,11.105a3.35,3.35,0,0,0,2.073,1.2v1.783a5.078,5.078,0,0,1-3.093-1.471A5.177,5.177,0,0,1,4.847,12Zm3.127,1.2a3.35,3.35,0,0,0,2.073-1.2L13.141,12a5.174,5.174,0,0,1-.527.617,5.078,5.078,0,0,1-3.093,1.471Zm2.6-2.11a3.348,3.348,0,0,0,0-2.395l1.547-.893a5.156,5.156,0,0,1,0,4.181ZM15.6,4.576l-1.537.887a6.236,6.236,0,0,0-.7-.833A6.125,6.125,0,0,0,9.521,2.847V1.074A7.881,7.881,0,0,1,14.61,3.38,8.011,8.011,0,0,1,15.6,4.576ZM3.378,3.38A7.881,7.881,0,0,1,8.467,1.074V2.847A6.124,6.124,0,0,0,4.629,4.631a6.226,6.226,0,0,0-.763.926L2.331,4.671A8,8,0,0,1,3.378,3.38ZM1.816,5.591l1.539.889A6.215,6.215,0,0,0,3.4,11.616L1.865,12.5a7.991,7.991,0,0,1-.05-6.913Zm.577,7.825,1.537-.887a6.236,6.236,0,0,0,.7.833,6.125,6.125,0,0,0,3.838,1.784v1.773a7.881,7.881,0,0,1-5.089-2.307,8.009,8.009,0,0,1-.985-1.2Zm12.217,1.2a7.881,7.881,0,0,1-5.089,2.307V15.145a6.125,6.125,0,0,0,3.838-1.784,6.236,6.236,0,0,0,.7-.833l1.537.887a8.006,8.006,0,0,1-.985,1.2Z" transform="translate(0 0)" fill="#103bb5"/>
  </g>
</svg>
