<svg xmlns="http://www.w3.org/2000/svg" width="492.329" height="259.237" viewBox="0 0 492.329 259.237">
  <g id="cooming_soon-02-01" data-name="cooming soon-02-01" transform="translate(-293.485 -410.2)">
    <g id="Group_5608" data-name="Group 5608">
      <g id="Group_5592" data-name="Group 5592">
        <path id="Path_3019" data-name="Path 3019" d="M660.4,467.5a21.766,21.766,0,0,0,.9,5.5,22.163,22.163,0,0,0,2,4.7l3.6-1.5a19.138,19.138,0,0,0,3.8,4.7l-2.2,3.2a21.418,21.418,0,0,0,4.5,3.2,7.217,7.217,0,0,0,2,.9c.2.1.4.1.5.2a20.16,20.16,0,0,0,2.3.7l1.5-3.7a6.375,6.375,0,0,0,.7.2c.3.1.5.1.8.2a22.824,22.824,0,0,0,4.5.4l.7,3.9a20.346,20.346,0,0,0,5.4-.9,18.2,18.2,0,0,0,4.7-2.1l-1.5-3.6a21.337,21.337,0,0,0,4.7-3.7l3.2,2.2a21.418,21.418,0,0,0,3.2-4.5,21.812,21.812,0,0,0,1.9-4.8l-3.6-1.5a19.758,19.758,0,0,0,.7-6l3.8-.7a21.766,21.766,0,0,0-.9-5.5,18.2,18.2,0,0,0-2.1-4.7l-3.6,1.5a21.337,21.337,0,0,0-3.7-4.7l2.2-3.2a21.418,21.418,0,0,0-4.5-3.2,21.81,21.81,0,0,0-4.8-1.9l-1.5,3.6a19.758,19.758,0,0,0-6-.7l-.7-3.8a21.769,21.769,0,0,0-5.5.9,22.163,22.163,0,0,0-4.7,2l1.5,3.6a17.447,17.447,0,0,0-4.7,3.8l-3.2-2.2a21.418,21.418,0,0,0-3.2,4.5,21.812,21.812,0,0,0-1.9,4.8l3.6,1.5a19.758,19.758,0,0,0-.7,6Zm11.3,1.9a13.073,13.073,0,1,1,16.8,9.1A13.113,13.113,0,0,1,671.7,469.4Z" fill="#f5f6ff"/>
        <g id="Group_5591" data-name="Group 5591">
          <path id="Path_3020" data-name="Path 3020" d="M686.3,458.5a9.623,9.623,0,0,1,1.8.7,7.1,7.1,0,0,1,1.4,1,4.7,4.7,0,0,1,.9,1.2,2.662,2.662,0,0,1,.3,1.2.354.354,0,0,1-.4.4h-2.8a.749.749,0,0,1-.5-.1c-.1-.1-.2-.1-.4-.3l-.2-.2a1.38,1.38,0,0,0-.4-.3,4.873,4.873,0,0,0-.7-.3,3.083,3.083,0,0,0-1-.1,2.2,2.2,0,0,0-.8.1,1.445,1.445,0,0,0-.7.2,2.186,2.186,0,0,0-.5.3.725.725,0,0,0,0,1,2.146,2.146,0,0,0,.7.4c.3.1.8.2,1.3.4.5.1,1.2.3,2,.4q1.2.3,2.1.6a5.429,5.429,0,0,1,1.5.9,3.805,3.805,0,0,1,.9,1.3,4.844,4.844,0,0,1,.3,1.8,4.671,4.671,0,0,1-.3,1.7,3.249,3.249,0,0,1-1,1.3,5.605,5.605,0,0,1-1.5,1,9.481,9.481,0,0,1-2,.6v1.5a.519.519,0,0,1-.2.4.758.758,0,0,1-.4.2h-2.8a.52.52,0,0,1-.4-.2.758.758,0,0,1-.2-.4v-1.6a10.663,10.663,0,0,1-1.9-.7,5.02,5.02,0,0,1-1.4-1,4.7,4.7,0,0,1-.9-1.2,3.079,3.079,0,0,1-.3-1.3.354.354,0,0,1,.4-.4H681a.749.749,0,0,1,.5.1c.1.1.2.1.3.2s.1.2.3.3a2.181,2.181,0,0,0,.5.4,4.349,4.349,0,0,0,.7.4,3.6,3.6,0,0,0,1.1.2,9.2,9.2,0,0,0,1.9-.2c.5-.2.8-.5.8-.9a.55.55,0,0,0-.3-.5,5.939,5.939,0,0,0-.8-.4,10.263,10.263,0,0,1-1.4-.4c-.6-.1-1.3-.3-2.1-.4a5.705,5.705,0,0,1-3.3-1.6,4.59,4.59,0,0,1-.7-4.5,5.67,5.67,0,0,1,.8-1.3,6.42,6.42,0,0,1,1.3-1,8.652,8.652,0,0,1,1.7-.7v-1.6a.519.519,0,0,1,.2-.4.758.758,0,0,1,.4-.2h2.8a.52.52,0,0,1,.4.2.758.758,0,0,1,.2.4v1.4Z" fill="#f5f6ff"/>
        </g>
      </g>
      <g id="Group_5593" data-name="Group 5593">
        <path id="Path_3021" data-name="Path 3021" d="M640.2,428.7c2-1.6,5.5-.9,6.7-1.7,1.4-1,1.3-2.1,1.6-3.7a22.942,22.942,0,0,1,1.5-5.1,8.663,8.663,0,0,1,8.4-5.6,8.336,8.336,0,0,1,5.9,2.5c1.4,1.4,2.1,4.3,4,5.1,2.7,1,5.1-2.7,7.9-2.2a4.847,4.847,0,0,1,3.9,3.5,12.918,12.918,0,0,1-.1,3.4c0,1.2.2,2.5,1.2,3.1a2.41,2.41,0,0,0,1.5.4,13.2,13.2,0,0,0,3.9-.6,5.483,5.483,0,0,1,3.8.4c1.5.9,1.8,2.8,2.5,4.2a8.594,8.594,0,0,0,3.4,3.9c3.5,2,8.1.2,11.1,3.3H642.3c-2.1,0-4.8-2.2-4.8-5.6A7.17,7.17,0,0,1,640.2,428.7Z" fill="#e6e8fc"/>
      </g>
      <g id="Group_5594" data-name="Group 5594">
        <path id="Path_3022" data-name="Path 3022" d="M435.3,452.7c-4.4-.8-8.1-1.3-10.1-5.2-2-4-3.3-8.3-5.9-11.9-4.6-6.2-13.8-9.3-21.2-5.5-8.4,4.4-9,18.4-20.1,18.4-2.4,0-4.7-.9-7.1-1.2-5.3-.5-12.4,2.8-13.7,8.3-.4,1.5-2.1,8.1-6.7,8.1-3,0-10.3-1.2-14.2,4.5H437c3.8,0,6.1-3.6,6.1-6.2A9.5,9.5,0,0,0,435.3,452.7Z" fill="#e6e8fc"/>
      </g>
      <g id="Group_5603" data-name="Group 5603">
        <path id="Path_3023" data-name="Path 3023" d="M470.8,446.5a2.089,2.089,0,1,1-2.7-1.2A2.2,2.2,0,0,1,470.8,446.5Z" fill="none" stroke="#b6c2ff" stroke-linecap="round" stroke-linejoin="round" stroke-miterlimit="10" stroke-width="1"/>
        <path id="Path_3024" data-name="Path 3024" d="M378.9,428.2a2.089,2.089,0,1,1-2.7-1.2A2.069,2.069,0,0,1,378.9,428.2Z" fill="none" stroke="#b6c2ff" stroke-linecap="round" stroke-linejoin="round" stroke-miterlimit="10" stroke-width="1"/>
        <path id="Path_3025" data-name="Path 3025" d="M298.1,540.2a2.089,2.089,0,1,1-2.7-1.2A2.069,2.069,0,0,1,298.1,540.2Z" fill="none" stroke="#b6c2ff" stroke-linecap="round" stroke-linejoin="round" stroke-miterlimit="10" stroke-width="1"/>
        <path id="Path_3026" data-name="Path 3026" d="M540.9,449.6a2.089,2.089,0,1,1-2.7-1.2A2.069,2.069,0,0,1,540.9,449.6Z" fill="none" stroke="#b6c2ff" stroke-linecap="round" stroke-linejoin="round" stroke-miterlimit="10" stroke-width="1"/>
        <path id="Path_3027" data-name="Path 3027" d="M729.4,459.5a2.089,2.089,0,1,1-2.7-1.2A2.1,2.1,0,0,1,729.4,459.5Z" fill="none" stroke="#b6c2ff" stroke-linecap="round" stroke-linejoin="round" stroke-miterlimit="10" stroke-width="1"/>
        <path id="Path_3028" data-name="Path 3028" d="M785.1,568a2.089,2.089,0,1,1-2.7-1.2A1.994,1.994,0,0,1,785.1,568Z" fill="none" stroke="#b6c2ff" stroke-linecap="round" stroke-linejoin="round" stroke-miterlimit="10" stroke-width="1"/>
        <g id="Group_5595" data-name="Group 5595">
          <line id="Line_3" data-name="Line 3" y2="4.1" transform="translate(496.4 416.2)" fill="none" stroke="#b6c2ff" stroke-linecap="round" stroke-linejoin="round" stroke-miterlimit="10" stroke-width="1"/>
          <line id="Line_4" data-name="Line 4" x1="4.1" transform="translate(494.4 418.3)" fill="none" stroke="#b6c2ff" stroke-linecap="round" stroke-linejoin="round" stroke-miterlimit="10" stroke-width="1"/>
        </g>
        <g id="Group_5596" data-name="Group 5596">
          <line id="Line_5" data-name="Line 5" y2="4.2" transform="translate(549.4 410.7)" fill="none" stroke="#b6c2ff" stroke-linecap="round" stroke-linejoin="round" stroke-miterlimit="10" stroke-width="1"/>
          <line id="Line_6" data-name="Line 6" x1="4.1" transform="translate(547.4 412.8)" fill="none" stroke="#b6c2ff" stroke-linecap="round" stroke-linejoin="round" stroke-miterlimit="10" stroke-width="1"/>
        </g>
        <g id="Group_5597" data-name="Group 5597">
          <line id="Line_7" data-name="Line 7" y2="4.2" transform="translate(403.6 504.9)" fill="none" stroke="#b6c2ff" stroke-linecap="round" stroke-linejoin="round" stroke-miterlimit="10" stroke-width="1"/>
          <line id="Line_8" data-name="Line 8" x1="4.2" transform="translate(401.5 507)" fill="none" stroke="#b6c2ff" stroke-linecap="round" stroke-linejoin="round" stroke-miterlimit="10" stroke-width="1"/>
        </g>
        <g id="Group_5598" data-name="Group 5598">
          <line id="Line_9" data-name="Line 9" y2="4.1" transform="translate(329.6 484.7)" fill="none" stroke="#b6c2ff" stroke-linecap="round" stroke-linejoin="round" stroke-miterlimit="10" stroke-width="1"/>
          <line id="Line_10" data-name="Line 10" x1="4.1" transform="translate(327.5 486.8)" fill="none" stroke="#b6c2ff" stroke-linecap="round" stroke-linejoin="round" stroke-miterlimit="10" stroke-width="1"/>
        </g>
        <g id="Group_5599" data-name="Group 5599">
          <line id="Line_11" data-name="Line 11" y2="4.1" transform="translate(652.3 448.3)" fill="none" stroke="#b6c2ff" stroke-linecap="round" stroke-linejoin="round" stroke-miterlimit="10" stroke-width="1"/>
          <line id="Line_12" data-name="Line 12" x1="4.1" transform="translate(650.2 450.4)" fill="none" stroke="#b6c2ff" stroke-linecap="round" stroke-linejoin="round" stroke-miterlimit="10" stroke-width="1"/>
        </g>
        <g id="Group_5600" data-name="Group 5600">
          <line id="Line_13" data-name="Line 13" y2="4.1" transform="translate(315.2 562.9)" fill="none" stroke="#b6c2ff" stroke-linecap="round" stroke-linejoin="round" stroke-miterlimit="10" stroke-width="1"/>
          <line id="Line_14" data-name="Line 14" x1="4.2" transform="translate(313.1 565)" fill="none" stroke="#b6c2ff" stroke-linecap="round" stroke-linejoin="round" stroke-miterlimit="10" stroke-width="1"/>
        </g>
        <g id="Group_5601" data-name="Group 5601">
          <line id="Line_15" data-name="Line 15" y2="4.1" transform="translate(772.2 521.9)" fill="none" stroke="#b6c2ff" stroke-linecap="round" stroke-linejoin="round" stroke-miterlimit="10" stroke-width="1"/>
          <line id="Line_16" data-name="Line 16" x1="4.1" transform="translate(770.1 523.9)" fill="none" stroke="#b6c2ff" stroke-linecap="round" stroke-linejoin="round" stroke-miterlimit="10" stroke-width="1"/>
        </g>
        <g id="Group_5602" data-name="Group 5602">
          <line id="Line_17" data-name="Line 17" y2="4.1" transform="translate(707.2 499.3)" fill="none" stroke="#b6c2ff" stroke-linecap="round" stroke-linejoin="round" stroke-miterlimit="10" stroke-width="1"/>
          <line id="Line_18" data-name="Line 18" x1="4.2" transform="translate(705.1 501.3)" fill="none" stroke="#b6c2ff" stroke-linecap="round" stroke-linejoin="round" stroke-miterlimit="10" stroke-width="1"/>
        </g>
      </g>
      <g id="Group_5605" data-name="Group 5605">
        <path id="Path_3029" data-name="Path 3029" d="M384.8,502.7a14.4,14.4,0,1,1-14.4-14.4A14.4,14.4,0,0,1,384.8,502.7Z" fill="#fff" stroke="#cdd2f9" stroke-miterlimit="10" stroke-width="1"/>
        <g id="Group_5604" data-name="Group 5604">
          <path id="Path_3030" data-name="Path 3030" d="M372.2,495.5c.6.2,1.2.4,1.7.6a14.627,14.627,0,0,1,1.3.9,2.836,2.836,0,0,1,.8,1.1,2.607,2.607,0,0,1,.3,1.1.354.354,0,0,1-.4.4h-2.7a.9.9,0,0,1-.5-.1c-.1-.1-.2-.1-.4-.2l-.2-.2a1.38,1.38,0,0,0-.4-.3l-.6-.3a2.22,2.22,0,0,0-.9-.1,1.483,1.483,0,0,0-.7.1,1.072,1.072,0,0,0-.6.2c-.2.1-.3.2-.5.3a.725.725,0,0,0,0,1,1.4,1.4,0,0,0,.7.4,10.371,10.371,0,0,0,1.2.3c.5.1,1.1.2,1.9.4a9.48,9.48,0,0,1,2,.6,3.39,3.39,0,0,1,1.4.9,2.325,2.325,0,0,1,.8,1.2,4.309,4.309,0,0,1,.3,1.7,4.146,4.146,0,0,1-.3,1.6,3.805,3.805,0,0,1-.9,1.3,4.194,4.194,0,0,1-1.4.9,12.091,12.091,0,0,1-1.8.5v1.5a.707.707,0,0,1-.6.6H369a.707.707,0,0,1-.6-.6v-1.5c-.7-.2-1.2-.4-1.8-.6a7.1,7.1,0,0,1-1.4-1,3.449,3.449,0,0,1-.9-1.2,2.768,2.768,0,0,1-.3-1.3.354.354,0,0,1,.4-.4h2.7a.9.9,0,0,1,.5.1c.1,0,.2.1.3.2a.769.769,0,0,1,.2.3l.4.4a4.872,4.872,0,0,0,.7.3,3.083,3.083,0,0,0,1,.1,8.968,8.968,0,0,0,1.8-.2c.5-.2.7-.4.7-.9a.55.55,0,0,0-.3-.5,2.932,2.932,0,0,0-.8-.4c-.4-.1-.8-.2-1.4-.3s-1.2-.2-2-.4a6.014,6.014,0,0,1-3.1-1.5,3.705,3.705,0,0,1-1-2.8,3.53,3.53,0,0,1,.3-1.4,3.166,3.166,0,0,1,.8-1.2,4,4,0,0,1,1.2-1,4.283,4.283,0,0,1,1.7-.6V494a.707.707,0,0,1,.6-.6h2.7a.707.707,0,0,1,.6.6Z" fill="#e6e8fc"/>
        </g>
      </g>
      <g id="Group_5607" data-name="Group 5607">
        <path id="Path_3031" data-name="Path 3031" d="M459.7,424.5a10,10,0,1,1-10-10A10.029,10.029,0,0,1,459.7,424.5Z" fill="#fff" stroke="#cdd2f9" stroke-miterlimit="10" stroke-width="1"/>
        <g id="Group_5606" data-name="Group 5606">
          <path id="Path_3032" data-name="Path 3032" d="M450.9,419.5c.4.1.8.3,1.2.4a4.031,4.031,0,0,1,1.5,1.5,2.353,2.353,0,0,1,.2.8c0,.1,0,.2-.1.2-.1.1-.1.1-.2.1h-1.9a.367.367,0,0,1-.3-.1.215.215,0,0,1-.2-.2l-.1-.1a.769.769,0,0,0-.3-.2c-.1-.1-.3-.1-.4-.2a1.268,1.268,0,0,0-.6-.1h-.5c-.2,0-.3.1-.4.1-.1.1-.2.1-.3.2s-.1.2-.1.4a.6.6,0,0,0,.1.4,1.069,1.069,0,0,0,.5.3,1.884,1.884,0,0,0,.8.2c.4.1.8.2,1.3.3a5.733,5.733,0,0,1,1.4.4,8.794,8.794,0,0,1,1,.6,1.456,1.456,0,0,1,.6.9,3.73,3.73,0,0,1,.2,1.2,3.6,3.6,0,0,1-.2,1.1l-.6.9a2.075,2.075,0,0,1-1,.6,4.95,4.95,0,0,1-1.3.4v1a.354.354,0,0,1-.4.4h-1.9a.354.354,0,0,1-.4-.4v-1.1a8.339,8.339,0,0,1-1.2-.4,2.177,2.177,0,0,1-.9-.7,1.555,1.555,0,0,1-.6-.8,2.92,2.92,0,0,1-.2-.9c0-.1,0-.2.1-.2.1-.1.1-.1.2-.1h2.2a.349.349,0,0,1,.2.1l.2.2.3.3a.764.764,0,0,0,.5.2,1.483,1.483,0,0,0,.7.1,5.066,5.066,0,0,0,1.3-.2.634.634,0,0,0,.5-.6.758.758,0,0,0-.2-.4,1.628,1.628,0,0,0-.6-.3,2.388,2.388,0,0,0-.9-.2c-.4-.1-.8-.2-1.4-.3a4.109,4.109,0,0,1-2.1-1,2.578,2.578,0,0,1-.7-2,3.553,3.553,0,0,1,.2-1,2.983,2.983,0,0,1,1.4-1.5,3.582,3.582,0,0,1,1.1-.4v-1.1a.354.354,0,0,1,.4-.4h1.9a.354.354,0,0,1,.4.4Z" fill="#e6e8fc"/>
        </g>
      </g>
    </g>
    <g id="Group_5621" data-name="Group 5621">
      <g id="Group_5610" data-name="Group 5610">
        <g id="Group_5609" data-name="Group 5609">
          <path id="Path_3033" data-name="Path 3033" d="M657.8,659.1c-1.6-25.5,1-61.7,12.3-94.3,11.7-33.8,32.5-63.5,55.7-54.8,8.9,3.3,10.1,18.2,6.3,32.1-11,40.9-36.5,65.7-46.3,117" fill="#e6e8fc"/>
        </g>
        <path id="Path_3034" data-name="Path 3034" d="M673,659.1c3.9-79.8,48.5-150.5,48.5-150.5" fill="none" stroke="#fff" stroke-linejoin="round" stroke-miterlimit="10" stroke-width="1"/>
      </g>
      <g id="Group_5612" data-name="Group 5612">
        <g id="Group_5611" data-name="Group 5611">
          <path id="Path_3035" data-name="Path 3035" d="M394.8,659.1c-13.9-35.2-63.5-100.1-84.6-67.4-4.1,6.4-.3,16.6,6.1,23.8,18.8,21.3,38.7,15,60,43.6" fill="#e6e8fc"/>
        </g>
        <path id="Path_3036" data-name="Path 3036" d="M386,659.1c-23.6-49.7-72.9-71.3-72.9-71.3" fill="none" stroke="#fff" stroke-linejoin="round" stroke-miterlimit="10" stroke-width="1"/>
      </g>
      <g id="Group_5614" data-name="Group 5614">
        <g id="Group_5613" data-name="Group 5613">
          <path id="Path_3037" data-name="Path 3037" d="M403.9,659.1C412,605,379.8,502.6,338,529.4c-9.6,6.1-5,29.8.4,43.2,13.7,33.5,36.8,42,46.2,86.5" fill="#cdd2f9"/>
        </g>
        <path id="Path_3038" data-name="Path 3038" d="M396,659c-.7-70.2-53.7-131.9-53.7-131.9" fill="none" stroke="#fff" stroke-linejoin="round" stroke-miterlimit="10" stroke-width="1"/>
      </g>
      <g id="Group_5616" data-name="Group 5616">
        <g id="Group_5615" data-name="Group 5615">
          <path id="Path_3039" data-name="Path 3039" d="M444.3,659.1c10.8-42.3,8.6-132.3-37-121.4-8.6,2-11.6,14.9-10.4,26.2,3.5,33.3,25.3,53.4,26.2,95.2" fill="#e6e8fc"/>
        </g>
        <path id="Path_3040" data-name="Path 3040" d="M434.5,659.1c6.1-68.8-25.7-122.8-25.7-122.8" fill="none" stroke="#fff" stroke-linejoin="round" stroke-miterlimit="10" stroke-width="1"/>
      </g>
      <g id="Group_5618" data-name="Group 5618">
        <g id="Group_5617" data-name="Group 5617">
          <path id="Path_3041" data-name="Path 3041" d="M686.8,659.1c3.2-31.8,13-71.5,28.8-95.2,12.6-19,32.4-27.5,44-15.7,6.5,6.6,4,25.6-5.8,39.9-17.5,25.3-38.3,34.4-49.9,70.9" fill="#cdd2f9"/>
        </g>
        <path id="Path_3042" data-name="Path 3042" d="M695,659.1c15.1-71.7,61.7-113.3,61.7-113.3" fill="none" stroke="#fff" stroke-linejoin="round" stroke-miterlimit="10" stroke-width="1"/>
      </g>
      <g id="Group_5620" data-name="Group 5620">
        <g id="Group_5619" data-name="Group 5619">
          <path id="Path_3043" data-name="Path 3043" d="M703.1,659.1c10.6-29.8,38.2-64.1,59.1-70.4,8.5-2.5,21.5-1.6,23.1,7.9,1.3,7.6-6.3,19.1-15,25.5-15.9,11.8-30.9,16.6-48.5,37" fill="#e6e8fc"/>
        </g>
        <path id="Path_3044" data-name="Path 3044" d="M714.3,659.1c31.2-55.1,68.9-67,68.9-67" fill="none" stroke="#fff" stroke-linejoin="round" stroke-miterlimit="10" stroke-width="1"/>
      </g>
    </g>
    <g id="Group_5644" data-name="Group 5644">
      <g id="Group_5631" data-name="Group 5631">
        <g id="Group_5625" data-name="Group 5625">
          <g id="Group_5624" data-name="Group 5624">
            <g id="Group_5622" data-name="Group 5622">
              <path id="Path_3045" data-name="Path 3045" d="M641,547.8c.4,3.2.8,6.4,1.3,9.6-5.5-.1-10.8.3-16.3.5,1.8-1.1,5.7-3.2,7-5.9" fill="#ffc6b0"/>
            </g>
            <g id="Group_5623" data-name="Group 5623">
              <path id="Path_3046" data-name="Path 3046" d="M642.1,561.6H639a5.635,5.635,0,0,0,0-1.3c-.6,0-1.9.1-2,.1s-.4.3-.6.6a1.425,1.425,0,0,1-1.2.6H622.7c-1.5,0-1.8-1.6-.1-2.4,1.5-.7,4.7-2.2,4.9-2.2,5,.4,13.1-.4,14.7-1.9C643.3,556.2,642.1,561.6,642.1,561.6Z" fill="#0b0b3a"/>
            </g>
          </g>
          <path id="Path_3047" data-name="Path 3047" d="M638,496.8c2.2,27.6,3.7,56.3,3.7,56.3l-8.7-1.2s-9.2-37-11.6-55.1" fill="#ffc6b0"/>
        </g>
        <g id="Group_5629" data-name="Group 5629">
          <g id="Group_5628" data-name="Group 5628">
            <g id="Group_5626" data-name="Group 5626">
              <path id="Path_3048" data-name="Path 3048" d="M616,547.8c.4,3.2.8,6.4,1.3,9.6-5.5-.1-10.8.3-16.3.5,1.8-1.1,5.7-3.2,7-5.9" fill="#ffc6b0"/>
            </g>
            <g id="Group_5627" data-name="Group 5627">
              <path id="Path_3049" data-name="Path 3049" d="M617.1,561.6H614a5.635,5.635,0,0,0,0-1.3c-.6,0-1.9.1-2,.1s-.4.3-.6.6a1.425,1.425,0,0,1-1.2.6H597.7c-1.5,0-1.8-1.6-.1-2.4,1.5-.7,4.7-2.2,4.9-2.2,5,.4,13.1-.4,14.7-1.9C618.3,556.2,617.2,561.6,617.1,561.6Z" fill="#0b0b3a"/>
            </g>
          </g>
          <path id="Path_3050" data-name="Path 3050" d="M620.8,496.8c-1.8,27.6-4.1,56.3-4.1,56.3l-8.7-1.2s-3.8-35.5-3.8-55.1" fill="#ffc6b0"/>
        </g>
        <g id="Group_5630" data-name="Group 5630">
          <path id="Path_3051" data-name="Path 3051" d="M632.2,467.6c7.9,18.3,8.8,38.5,8.8,38.5s-11.3,3-20.5,3a140.662,140.662,0,0,1-18.8-1.5s2.5-31.6,6.3-41.3" fill="#182270"/>
          <path id="Path_3052" data-name="Path 3052" d="M629.9,474c5.4,11.1,8.1,32.9,8.1,32.9" fill="none" stroke="#2944b7" stroke-linejoin="round" stroke-miterlimit="10" stroke-width="0.75"/>
        </g>
      </g>
      <g id="Group_5640" data-name="Group 5640">
        <g id="Group_5638" data-name="Group 5638">
          <path id="Path_3053" data-name="Path 3053" d="M600.7,432l.5,3.7s2.7,1.7,5,.8c2.4-1,2.3-2.3,2.3-2.3l-2.9-6.8" fill="#ffcbbd"/>
          <path id="Path_3054" data-name="Path 3054" d="M596.8,425.8c-.5,2.1,1,8.2,4.1,8,3.3-.3,5.8-3,4.6-6.7C604.2,423.1,598,420.2,596.8,425.8Z" fill="#ffcbbd"/>
          <path id="Path_3055" data-name="Path 3055" d="M601,434.1a5.4,5.4,0,0,0,4.4-3.3" fill="none" stroke="#e88872" stroke-linejoin="round" stroke-miterlimit="10" stroke-width="0.75"/>
          <g id="Group_5633" data-name="Group 5633">
            <g id="Group_5632" data-name="Group 5632">
              <path id="Path_3056" data-name="Path 3056" d="M605,426.9Z" fill="#ff855a"/>
            </g>
          </g>
          <g id="Group_5635" data-name="Group 5635">
            <g id="Group_5634" data-name="Group 5634">
              <path id="Path_3057" data-name="Path 3057" d="M604.9,426.9h0c.1-.1,0-.1,0,0Z" fill="#ff855a"/>
            </g>
          </g>
          <g id="Group_5636" data-name="Group 5636">
            <path id="Path_3058" data-name="Path 3058" d="M605.1,427.8a2.488,2.488,0,0,1-2-1.7,2.519,2.519,0,0,1-2.5.2,3.389,3.389,0,0,1-1.5-1.4,3.416,3.416,0,0,1-2.5,2,4.905,4.905,0,0,1,2.3-4.7,5.685,5.685,0,0,1,5.5-.4,5.746,5.746,0,0,1,3,4.5c.1,1.1-.2,3.4-1.2,3.3C605.8,429.4,605.1,427.8,605.1,427.8Z" fill="#212237"/>
          </g>
          <g id="Group_5637" data-name="Group 5637">
            <path id="Path_3059" data-name="Path 3059" d="M604.4,427.7a.964.964,0,0,1,.4-.8c.7-.4,1.3.4,1.4,1.1a1.676,1.676,0,0,1-.3,1.2c-.3.5-.8.8-1.2.3" fill="#ffcbbd"/>
          </g>
        </g>
        <g id="Group_5639" data-name="Group 5639">
          <path id="Path_3060" data-name="Path 3060" d="M600.1,421.6a1.012,1.012,0,0,1-.8-1.2,2.122,2.122,0,0,1,1-1.3,2.01,2.01,0,0,1,.8-.4,2.845,2.845,0,0,1,1.3,0,1.984,1.984,0,0,1,1.3.6,1.354,1.354,0,0,1,0,1.7,2.748,2.748,0,0,1-1.6,1" fill="#212237"/>
        </g>
      </g>
      <g id="Group_5643" data-name="Group 5643">
        <g id="Group_5642" data-name="Group 5642">
          <path id="Path_3061" data-name="Path 3061" d="M601.6,452.8c-5.7,14.7-21,30.5-21,30.5l-5-3.8s10.6-14.9,15.4-30.1" fill="#ffcbbd"/>
          <g id="Group_5641" data-name="Group 5641">
            <path id="Path_3062" data-name="Path 3062" d="M576.9,477.9c-1.3,1.9-6,6.8-5.7,7.2.2.4,1.9-1.3,2-.9s-2.3,3.1-1.9,3.5c.5.5,2.8-2.5,2.8-2.5s-2.3,3.4-1.8,3.7c.4.2,2.3-2.3,3.1-3.2-.8,1-1.9,2.9-1.5,3.1s1.7-1.5,2.8-2.7c-.6.8-1.6,2.4-1.3,2.6.4.2,3.9-3.6,7.1-7.4" fill="#ffcbbd"/>
          </g>
          <path id="Path_3063" data-name="Path 3063" d="M573.9,483.9a9.4,9.4,0,0,0,3-1.2" fill="none" stroke="#e8927e" stroke-miterlimit="10" stroke-width="0.75"/>
        </g>
        <path id="Path_3064" data-name="Path 3064" d="M600.2,436.4c-6.5,2-9.6,13.4-9.6,13.4l7.2,3.1,3.2-14.8" fill="#f94c43"/>
        <path id="Path_3065" data-name="Path 3065" d="M600.2,436.4c1.9.3,2.3.4,3.6-.1a19.564,19.564,0,0,0,4.2-2s6.8-.3,13.5,6.7c3.4,3.6,9.1,13.8,12.5,27.5-12.7,4.1-31.2,6.7-31.2,6.7s-6.7-25.9-6.5-33.5C596.4,439.1,600.2,436.4,600.2,436.4Z" fill="#f94c43"/>
        <path id="Path_3066" data-name="Path 3066" d="M607.8,432.8l-4.3,3.7,2.8,3.6,2.9-5.7Z" fill="#fff"/>
        <path id="Path_3067" data-name="Path 3067" d="M603.5,436.5l-2.4-2-.9,1.9,1.3,4Z" fill="#fff"/>
        <path id="Path_3068" data-name="Path 3068" d="M597.5,452.6c-.8-3.9-1.2-6.6-1.2-6.6" fill="none" stroke="#d62137" stroke-miterlimit="10" stroke-width="0.75"/>
      </g>
    </g>
    <g id="Group_5664" data-name="Group 5664">
      <path id="Path_3069" data-name="Path 3069" d="M581.2,615.6H520.1s2.5,38.9-9.6,38.9h80.2C578.7,654.5,581.2,615.6,581.2,615.6Z" fill="#b6c2ff"/>
      <path id="Path_3070" data-name="Path 3070" d="M519.4,639,581,626.5c-.1-6.2.2-10.9.2-10.9H520.1A136.851,136.851,0,0,1,519.4,639Z" fill="#8693f2"/>
      <path id="Path_3071" data-name="Path 3071" d="M667.7,627.3H433.6a5.591,5.591,0,0,1-5.6-5.6V472a5.591,5.591,0,0,1,5.6-5.6H667.7a5.591,5.591,0,0,1,5.6,5.6V621.8A5.636,5.636,0,0,1,667.7,627.3Z" fill="#b6c2ff"/>
      <path id="Path_3072" data-name="Path 3072" d="M663.8,621.6H437.5a2.647,2.647,0,0,1-2.6-2.6V474.7a2.647,2.647,0,0,1,2.6-2.6H663.7a2.647,2.647,0,0,1,2.6,2.6V619A2.442,2.442,0,0,1,663.8,621.6Z" fill="#fff" stroke="#8693f2" stroke-miterlimit="10" stroke-width="1"/>
      <line id="Line_19" data-name="Line 19" x2="231.5" transform="translate(434.9 491)" fill="none" stroke="#8693f2" stroke-miterlimit="10" stroke-width="1"/>
      <path id="Path_3073" data-name="Path 3073" d="M638.6,485.1H479.1a4.012,4.012,0,0,1-4-4h0a4.012,4.012,0,0,1,4-4H638.5a4.012,4.012,0,0,1,4,4h0A3.867,3.867,0,0,1,638.6,485.1Z" fill="#e6e8fc"/>
      <g id="Group_5645" data-name="Group 5645">
        <path id="Path_3074" data-name="Path 3074" d="M446.3,481.4a2.1,2.1,0,1,1-2.1-2.1A2.112,2.112,0,0,1,446.3,481.4Z" fill="#fff" stroke="#8693f2" stroke-miterlimit="10" stroke-width="1"/>
        <path id="Path_3075" data-name="Path 3075" d="M456.1,481.4a2.1,2.1,0,1,1-2.1-2.1A2.051,2.051,0,0,1,456.1,481.4Z" fill="#fff" stroke="#8693f2" stroke-miterlimit="10" stroke-width="1"/>
        <path id="Path_3076" data-name="Path 3076" d="M466,481.4a2.1,2.1,0,1,1-2.1-2.1A2.051,2.051,0,0,1,466,481.4Z" fill="#fff" stroke="#8693f2" stroke-miterlimit="10" stroke-width="1"/>
      </g>
      <g id="Group_5647" data-name="Group 5647">
        <g id="Group_5646" data-name="Group 5646">
          <path id="Path_3077" data-name="Path 3077" d="M615.2,545.2H486.1a8.92,8.92,0,0,1-8.9-8.9h0a8.92,8.92,0,0,1,8.9-8.9H615.3a8.92,8.92,0,0,1,8.9,8.9h0A9.072,9.072,0,0,1,615.2,545.2Z" fill="none" stroke="#277ef1" stroke-miterlimit="10" stroke-width="1.5"/>
          <path id="Path_3078" data-name="Path 3078" d="M615.2,527.4H600.3v17.7h14.9a8.92,8.92,0,0,0,8.9-8.9h0A8.9,8.9,0,0,0,615.2,527.4Z" fill="#277ef1"/>
        </g>
        <path id="Path_3079" data-name="Path 3079" d="M617.8,540.6l-2.9-2.9a4.634,4.634,0,1,0-3.7,1.8,4.99,4.99,0,0,0,2.1-.5l3.1,3.1a1.08,1.08,0,0,0,.7.3.908.908,0,0,0,.7-.3,1.08,1.08,0,0,0,.3-.7A1.33,1.33,0,0,0,617.8,540.6Zm-3.3-5.7a3.3,3.3,0,1,1-3.3-3.3A3.329,3.329,0,0,1,614.5,534.9Z" fill="#fff"/>
        <path id="Path_3080" data-name="Path 3080" d="M523.2,540.1h-37a3.8,3.8,0,0,1-3.8-3.8h0a3.8,3.8,0,0,1,3.8-3.8h37a3.8,3.8,0,0,1,3.8,3.8h0A3.677,3.677,0,0,1,523.2,540.1Z" fill="#e0ebfc" opacity="0.75"/>
      </g>
      <rect id="Rectangle_1283" data-name="Rectangle 1283" width="102" height="5.7" transform="translate(499.6 653.4)" fill="#b6c2ff"/>
      <g id="Group_5650" data-name="Group 5650">
        <g id="Group_5648" data-name="Group 5648">
          <path id="Path_3081" data-name="Path 3081" d="M533.3,564.7h-25a4.268,4.268,0,0,1-4.3-4.3h0a4.268,4.268,0,0,1,4.3-4.3h25a4.268,4.268,0,0,1,4.3,4.3h0A4.268,4.268,0,0,1,533.3,564.7Z" fill="#e0ebfc" opacity="0.75"/>
          <line id="Line_20" data-name="Line 20" x2="24.4" transform="translate(508.6 561.5)" fill="none" stroke="#277ef1" stroke-miterlimit="10" stroke-width="1.5"/>
        </g>
        <g id="Group_5649" data-name="Group 5649">
          <path id="Path_3082" data-name="Path 3082" d="M593,564.7H548.6a4.268,4.268,0,0,1-4.3-4.3h0a4.268,4.268,0,0,1,4.3-4.3H593a4.268,4.268,0,0,1,4.3,4.3h0A4.268,4.268,0,0,1,593,564.7Z" fill="#e0ebfc" opacity="0.75"/>
          <line id="Line_21" data-name="Line 21" x2="34.4" transform="translate(553.6 561.5)" fill="none" stroke="#277ef1" stroke-miterlimit="10" stroke-width="1.5"/>
        </g>
      </g>
      <line id="Line_22" data-name="Line 22" x2="9.4" transform="translate(621 498.1)" fill="#fff" stroke="#8693f2" stroke-miterlimit="10" stroke-width="1"/>
      <line id="Line_23" data-name="Line 23" x2="9.4" transform="translate(634.9 498.1)" fill="#fff" stroke="#8693f2" stroke-miterlimit="10" stroke-width="1"/>
      <g id="Group_5651" data-name="Group 5651">
        <rect id="Rectangle_1284" data-name="Rectangle 1284" width="1.3" height="1.3" transform="translate(647.7 495.6)" fill="#f5f6ff" opacity="0.75"/>
        <rect id="Rectangle_1285" data-name="Rectangle 1285" width="1.3" height="1.3" transform="translate(649.4 495.6)" fill="#f5f6ff" opacity="0.75"/>
        <rect id="Rectangle_1286" data-name="Rectangle 1286" width="1.3" height="1.3" transform="translate(651.2 495.6)" fill="#f5f6ff" opacity="0.75"/>
        <rect id="Rectangle_1287" data-name="Rectangle 1287" width="1.3" height="1.3" transform="translate(647.7 497.5)" fill="#f5f6ff" opacity="0.75"/>
        <rect id="Rectangle_1288" data-name="Rectangle 1288" width="1.3" height="1.3" transform="translate(649.4 497.5)" fill="#f5f6ff" opacity="0.75"/>
        <rect id="Rectangle_1289" data-name="Rectangle 1289" width="1.3" height="1.3" transform="translate(651.2 497.5)" fill="#f5f6ff" opacity="0.75"/>
        <rect id="Rectangle_1290" data-name="Rectangle 1290" width="1.3" height="1.3" transform="translate(647.7 499.4)" fill="#f5f6ff" opacity="0.75"/>
        <rect id="Rectangle_1291" data-name="Rectangle 1291" width="1.3" height="1.3" transform="translate(649.4 499.4)" fill="#f5f6ff" opacity="0.75"/>
        <rect id="Rectangle_1292" data-name="Rectangle 1292" width="1.3" height="1.3" transform="translate(651.2 499.4)" fill="#f5f6ff" opacity="0.75"/>
      </g>
      <path id="Path_3083" data-name="Path 3083" d="M660.8,498.1a3.2,3.2,0,1,1-3.2-3.2A3.222,3.222,0,0,1,660.8,498.1Z" fill="#f5f6ff"/>
      <g id="Group_5652" data-name="Group 5652">
        <circle id="Ellipse_89" data-name="Ellipse 89" cx="0.8" cy="0.8" r="0.8" transform="translate(659.2 476.4)" fill="#8693f2"/>
        <circle id="Ellipse_90" data-name="Ellipse 90" cx="0.8" cy="0.8" r="0.8" transform="translate(659.2 480.4)" fill="#8693f2"/>
        <circle id="Ellipse_91" data-name="Ellipse 91" cx="0.8" cy="0.8" r="0.8" transform="translate(659.2 484.3)" fill="#8693f2"/>
      </g>
      <line id="Line_24" data-name="Line 24" x1="52.2" transform="translate(535.8 653.7)" fill="none" stroke="#8693f2" stroke-miterlimit="10" stroke-width="1"/>
      <line id="Line_25" data-name="Line 25" x1="17" transform="translate(512.9 653.7)" fill="none" stroke="#8693f2" stroke-miterlimit="10" stroke-width="1"/>
      <g id="Group_5655" data-name="Group 5655">
        <path id="Path_3084" data-name="Path 3084" d="M574.2,607.1H454.3a3.691,3.691,0,0,1-3.7-3.7V520.9a3.691,3.691,0,0,1,3.7-3.7H574.2a3.691,3.691,0,0,1,3.7,3.7v82.5A3.757,3.757,0,0,1,574.2,607.1Z" fill="#f5f6ff"/>
        <path id="Path_3085" data-name="Path 3085" d="M566.8,602.5H446.9a3.691,3.691,0,0,1-3.7-3.7V516.3a3.691,3.691,0,0,1,3.7-3.7H566.8a3.691,3.691,0,0,1,3.7,3.7v82.5A3.826,3.826,0,0,1,566.8,602.5Z" fill="#fff" stroke="#8693f2" stroke-miterlimit="10" stroke-width="1"/>
        <path id="Path_3086" data-name="Path 3086" d="M567,512.6H446.7a3.543,3.543,0,0,0-3.5,3.5v5.8H570.4v-5.8A3.4,3.4,0,0,0,567,512.6Z" fill="#8693f2"/>
        <g id="Group_5653" data-name="Group 5653">
          <path id="Path_3087" data-name="Path 3087" d="M557.8,576.4H456.9a1.752,1.752,0,0,1-1.7-1.7h0a1.752,1.752,0,0,1,1.7-1.7H557.8a1.752,1.752,0,0,1,1.7,1.7h0A1.686,1.686,0,0,1,557.8,576.4Z" fill="#f5f6ff"/>
          <path id="Path_3088" data-name="Path 3088" d="M557.8,582.4H456.9a1.752,1.752,0,0,1-1.7-1.7h0a1.752,1.752,0,0,1,1.7-1.7H557.8a1.752,1.752,0,0,1,1.7,1.7h0A1.686,1.686,0,0,1,557.8,582.4Z" fill="#f5f6ff"/>
          <path id="Path_3089" data-name="Path 3089" d="M557.8,588.4H456.9a1.752,1.752,0,0,1-1.7-1.7h0a1.752,1.752,0,0,1,1.7-1.7H557.8a1.752,1.752,0,0,1,1.7,1.7h0A1.686,1.686,0,0,1,557.8,588.4Z" fill="#f5f6ff"/>
          <path id="Path_3090" data-name="Path 3090" d="M557.8,594.3H456.9a1.752,1.752,0,0,1-1.7-1.7h0a1.752,1.752,0,0,1,1.7-1.7H557.8a1.752,1.752,0,0,1,1.7,1.7h0A1.628,1.628,0,0,1,557.8,594.3Z" fill="#f5f6ff"/>
          <path id="Path_3091" data-name="Path 3091" d="M557.8,570.4H456.9a1.752,1.752,0,0,1-1.7-1.7h0a1.752,1.752,0,0,1,1.7-1.7H557.8a1.752,1.752,0,0,1,1.7,1.7h0A1.628,1.628,0,0,1,557.8,570.4Z" fill="#f5f6ff"/>
        </g>
        <g id="Group_5654" data-name="Group 5654">
          <g id="XMLID_64_" opacity="0.75">
            <path id="Path_3092" data-name="Path 3092" d="M479.2,534a13.763,13.763,0,0,0-11.4-6.1v13.7Z" fill="#b6c2ff"/>
          </g>
          <path id="Path_3093" data-name="Path 3093" d="M478.2,536l-11.4,7.6V529.9a13.7,13.7,0,1,0,13.7,13.7A13.358,13.358,0,0,0,478.2,536Z" fill="#e6e8fc"/>
          <path id="Path_3094" data-name="Path 3094" d="M546.9,529.9v13.7L536,551.9h0a13.7,13.7,0,1,0,10.9-22Z" fill="#e6e8fc"/>
          <path id="Path_3095" data-name="Path 3095" d="M517.2,551.2a13.562,13.562,0,0,0,2.9-8.4,13.721,13.721,0,0,0-13.7-13.7v13.7Z" fill="#b6c2ff"/>
          <path id="Path_3096" data-name="Path 3096" d="M515.7,552l-10.9-8.4V529.9A13.7,13.7,0,1,0,515.7,552Z" fill="#e6e8fc"/>
          <path id="Path_3097" data-name="Path 3097" d="M531.8,542.9a14.048,14.048,0,0,0,2.8,8.3l10.9-8.3V529.2A13.721,13.721,0,0,0,531.8,542.9Z" fill="#b6c2ff"/>
        </g>
      </g>
      <g id="Group_5663" data-name="Group 5663">
        <path id="Path_3098" data-name="Path 3098" d="M656,593.2H524.2a4.012,4.012,0,0,1-4-4V494.5a4.012,4.012,0,0,1,4-4H656a4.012,4.012,0,0,1,4,4v94.7A4.012,4.012,0,0,1,656,593.2Z" fill="#f5f6ff"/>
        <path id="Path_3099" data-name="Path 3099" d="M647.8,588.1H516a4.012,4.012,0,0,1-4-4V489.4a4.012,4.012,0,0,1,4-4H647.8a4.012,4.012,0,0,1,4,4V584A4.034,4.034,0,0,1,647.8,588.1Z" fill="#fff" stroke="#8693f2" stroke-miterlimit="10" stroke-width="1"/>
        <path id="Path_3100" data-name="Path 3100" d="M648,485.3H515.8a3.8,3.8,0,0,0-3.8,3.8v6.3H651.9v-6.3A3.952,3.952,0,0,0,648,485.3Z" fill="#8693f2"/>
        <g id="Group_5661" data-name="Group 5661">
          <g id="Group_5656" data-name="Group 5656">
            <rect id="Rectangle_1293" data-name="Rectangle 1293" width="9.4" height="6.6" transform="translate(619.5 514.3)" fill="#d4daff"/>
            <line id="Line_26" data-name="Line 26" x2="6.5" transform="translate(633.1 514.3)" fill="none" stroke="#d4daff" stroke-miterlimit="10" stroke-width="1"/>
            <line id="Line_27" data-name="Line 27" x2="13.1" transform="translate(633.1 520.9)" fill="none" stroke="#d4daff" stroke-miterlimit="10" stroke-width="1"/>
            <line id="Line_28" data-name="Line 28" x2="13.1" transform="translate(633.1 518.8)" fill="none" stroke="#d4daff" stroke-miterlimit="10" stroke-width="1"/>
            <line id="Line_29" data-name="Line 29" x2="13.1" transform="translate(633.1 516.7)" fill="none" stroke="#d4daff" stroke-miterlimit="10" stroke-width="1"/>
          </g>
          <g id="Group_5657" data-name="Group 5657">
            <rect id="Rectangle_1294" data-name="Rectangle 1294" width="9.4" height="6.6" transform="translate(619.5 528.1)" fill="#d4daff"/>
            <line id="Line_30" data-name="Line 30" x2="6.5" transform="translate(633.1 528.1)" fill="none" stroke="#d4daff" stroke-miterlimit="10" stroke-width="1"/>
            <line id="Line_31" data-name="Line 31" x2="13.1" transform="translate(633.1 534.7)" fill="none" stroke="#d4daff" stroke-miterlimit="10" stroke-width="1"/>
            <line id="Line_32" data-name="Line 32" x2="13.1" transform="translate(633.1 532.5)" fill="none" stroke="#d4daff" stroke-miterlimit="10" stroke-width="1"/>
            <line id="Line_33" data-name="Line 33" x2="13.1" transform="translate(633.1 530.5)" fill="none" stroke="#d4daff" stroke-miterlimit="10" stroke-width="1"/>
          </g>
          <g id="Group_5658" data-name="Group 5658">
            <rect id="Rectangle_1295" data-name="Rectangle 1295" width="9.4" height="6.6" transform="translate(619.5 541.9)" fill="#d4daff"/>
            <line id="Line_34" data-name="Line 34" x2="6.5" transform="translate(633.1 541.9)" fill="none" stroke="#d4daff" stroke-miterlimit="10" stroke-width="1"/>
            <line id="Line_35" data-name="Line 35" x2="13.1" transform="translate(633.1 548.5)" fill="none" stroke="#d4daff" stroke-miterlimit="10" stroke-width="1"/>
            <line id="Line_36" data-name="Line 36" x2="13.1" transform="translate(633.1 546.3)" fill="none" stroke="#d4daff" stroke-miterlimit="10" stroke-width="1"/>
            <line id="Line_37" data-name="Line 37" x2="13.1" transform="translate(633.1 544.3)" fill="none" stroke="#d4daff" stroke-miterlimit="10" stroke-width="1"/>
          </g>
          <g id="Group_5659" data-name="Group 5659">
            <rect id="Rectangle_1296" data-name="Rectangle 1296" width="9.4" height="6.6" transform="translate(619.5 555.6)" fill="#d4daff"/>
            <line id="Line_38" data-name="Line 38" x2="6.5" transform="translate(633.1 555.6)" fill="none" stroke="#d4daff" stroke-miterlimit="10" stroke-width="1"/>
            <line id="Line_39" data-name="Line 39" x2="13.1" transform="translate(633.1 562.2)" fill="none" stroke="#d4daff" stroke-miterlimit="10" stroke-width="1"/>
            <line id="Line_40" data-name="Line 40" x2="13.1" transform="translate(633.1 560.1)" fill="none" stroke="#d4daff" stroke-miterlimit="10" stroke-width="1"/>
            <line id="Line_41" data-name="Line 41" x2="13.1" transform="translate(633.1 558.1)" fill="none" stroke="#d4daff" stroke-miterlimit="10" stroke-width="1"/>
          </g>
          <g id="Group_5660" data-name="Group 5660">
            <rect id="Rectangle_1297" data-name="Rectangle 1297" width="9.4" height="6.6" transform="translate(619.5 569.4)" fill="#d4daff"/>
            <line id="Line_42" data-name="Line 42" x2="6.5" transform="translate(633.1 569.4)" fill="none" stroke="#d4daff" stroke-miterlimit="10" stroke-width="1"/>
            <line id="Line_43" data-name="Line 43" x2="13.1" transform="translate(633.1 576)" fill="none" stroke="#d4daff" stroke-miterlimit="10" stroke-width="1"/>
            <line id="Line_44" data-name="Line 44" x2="13.1" transform="translate(633.1 573.9)" fill="none" stroke="#d4daff" stroke-miterlimit="10" stroke-width="1"/>
            <line id="Line_45" data-name="Line 45" x2="13.1" transform="translate(633.1 571.8)" fill="none" stroke="#d4daff" stroke-miterlimit="10" stroke-width="1"/>
          </g>
        </g>
        <line id="Line_46" data-name="Line 46" x2="81" transform="translate(541.4 503.4)" fill="none" stroke="#f5f6ff" stroke-miterlimit="10" stroke-width="2"/>
        <line id="Line_47" data-name="Line 47" x2="58.8" transform="translate(552.5 507.5)" fill="none" stroke="#f5f6ff" stroke-miterlimit="10" stroke-width="2"/>
        <g id="Group_5662" data-name="Group 5662">
          <path id="Path_3101" data-name="Path 3101" d="M553.5,540.1V575h7V535Z" fill="#b6c2ff"/>
          <path id="Path_3102" data-name="Path 3102" d="M544.2,546.9l-3.5-2.2V575h7V544.4Z" fill="#b6c2ff"/>
          <path id="Path_3103" data-name="Path 3103" d="M531.3,538.7l-3.5,2.2V575h7V540.9Z" fill="#b6c2ff"/>
          <path id="Path_3104" data-name="Path 3104" d="M592.1,532v43h7V527.8Z" fill="#b6c2ff"/>
          <path id="Path_3105" data-name="Path 3105" d="M569.9,528.2l-3.5,2.6V575h7V530.8Z" fill="#b6c2ff"/>
          <path id="Path_3106" data-name="Path 3106" d="M582.7,537.6l-3.4-2.6v40h6.9V535.5Z" fill="#b6c2ff"/>
          <path id="Path_3107" data-name="Path 3107" d="M519.9,538.2V575h93.3" fill="none" stroke="#d4daff" stroke-miterlimit="10" stroke-width="1"/>
          <path id="Path_3108" data-name="Path 3108" d="M518.4,539.1l1.5-1.2,1.6,1.2" fill="none" stroke="#d4daff" stroke-miterlimit="10" stroke-width="1"/>
          <path id="Path_3109" data-name="Path 3109" d="M612.1,573.8l1.5,1.2-1.5,1.1" fill="none" stroke="#d4daff" stroke-miterlimit="10" stroke-width="1"/>
          <path id="Path_3110" data-name="Path 3110" d="M521.7,542.2l9.6-6.1,12.9,8.2,25.7-18.7,12.8,9.4,25-14.9" fill="none" stroke="#d4daff" stroke-miterlimit="10" stroke-width="1"/>
          <path id="Path_3111" data-name="Path 3111" d="M604.6,519.5l3,.5-.8,3" fill="none" stroke="#d4daff" stroke-miterlimit="10" stroke-width="1"/>
          <line id="Line_48" data-name="Line 48" x2="6.8" transform="translate(527.8 580)" fill="none" stroke="#d4daff" stroke-miterlimit="10" stroke-width="1"/>
          <line id="Line_49" data-name="Line 49" x2="6.8" transform="translate(540.8 580)" fill="none" stroke="#d4daff" stroke-miterlimit="10" stroke-width="1"/>
          <line id="Line_50" data-name="Line 50" x2="6.8" transform="translate(553.7 580)" fill="none" stroke="#d4daff" stroke-miterlimit="10" stroke-width="1"/>
          <line id="Line_51" data-name="Line 51" x2="6.8" transform="translate(566.7 580)" fill="none" stroke="#d4daff" stroke-miterlimit="10" stroke-width="1"/>
          <line id="Line_52" data-name="Line 52" x2="6.8" transform="translate(579.7 580)" fill="none" stroke="#d4daff" stroke-miterlimit="10" stroke-width="1"/>
          <line id="Line_53" data-name="Line 53" x2="6.8" transform="translate(592.6 580)" fill="none" stroke="#d4daff" stroke-miterlimit="10" stroke-width="1"/>
        </g>
      </g>
      <line id="Line_54" data-name="Line 54" x2="447.1" transform="translate(327.1 659.1)" fill="none" stroke="#8693f2" stroke-miterlimit="10" stroke-width="1"/>
    </g>
    <g id="Group_5673" data-name="Group 5673">
      <path id="Path_3130" data-name="Path 3130" d="M766.7,500a10,10,0,1,1-10-10A10.029,10.029,0,0,1,766.7,500Z" fill="#fff" stroke="#cdd2f9" stroke-miterlimit="10" stroke-width="1"/>
      <g id="Group_5672" data-name="Group 5672">
        <path id="Path_3131" data-name="Path 3131" d="M757.9,495.1c.4.1.8.3,1.2.4a4.031,4.031,0,0,1,1.5,1.5,2.354,2.354,0,0,1,.2.8c0,.1,0,.2-.1.2-.1.1-.1.1-.2.1h-1.9a.367.367,0,0,1-.3-.1.215.215,0,0,1-.2-.2l-.1-.1a.768.768,0,0,0-.3-.2c-.1-.1-.3-.1-.4-.2a1.268,1.268,0,0,0-.6-.1h-.5c-.2,0-.3.1-.4.1-.1.1-.2.1-.3.2s-.1.2-.1.4a.6.6,0,0,0,.1.4,1.069,1.069,0,0,0,.5.3,1.884,1.884,0,0,0,.8.2c.4.1.8.2,1.3.3a5.734,5.734,0,0,1,1.4.4,8.791,8.791,0,0,1,1,.6,1.456,1.456,0,0,1,.6.9,3.73,3.73,0,0,1,.2,1.2,3.594,3.594,0,0,1-.2,1.1l-.6.9a2.075,2.075,0,0,1-1,.6,4.951,4.951,0,0,1-1.3.4v1a.354.354,0,0,1-.4.4h-1.9a.354.354,0,0,1-.4-.4V505a8.338,8.338,0,0,1-1.2-.4,2.178,2.178,0,0,1-.9-.7,1.555,1.555,0,0,1-.6-.8,2.921,2.921,0,0,1-.2-.9c0-.1,0-.2.1-.2.1-.1.1-.1.2-.1h2.2a.349.349,0,0,1,.2.1l.2.2.3.3a.764.764,0,0,0,.5.2,1.483,1.483,0,0,0,.7.1,5.066,5.066,0,0,0,1.3-.2.634.634,0,0,0,.5-.6.758.758,0,0,0-.2-.4,1.627,1.627,0,0,0-.6-.3,2.388,2.388,0,0,0-.9-.2c-.4-.1-.8-.2-1.4-.3a4.109,4.109,0,0,1-2.1-1,2.578,2.578,0,0,1-.7-2,3.552,3.552,0,0,1,.2-1,2.983,2.983,0,0,1,1.4-1.5,3.582,3.582,0,0,1,1.1-.4V494a.354.354,0,0,1,.4-.4h1.9a.354.354,0,0,1,.4.4Z" fill="#e6e8fc"/>
      </g>
    </g>
    <g id="Group_5683" data-name="Group 5683">
      <g id="Group_5674" data-name="Group 5674">
        <path id="Path_3132" data-name="Path 3132" d="M482.1,639.7s-35.7-3.5-37.9,6.1c-3.3,14.5,45.2,14.5,45.2,14.5l4.2-9.7-19.9-7.8" fill="#182270"/>
        <path id="Path_3133" data-name="Path 3133" d="M481,662.4l-9.9-.4s-1.6-.5-2.6-3.5-.6-3.2-.6-3.2l11.5-1.3" fill="#ffcbbd"/>
        <path id="Path_3134" data-name="Path 3134" d="M493.6,638.4s27.3,1.7,26.2,14.1c-1.2,12.4-41.9,11.4-41.9,11.4L475,651.6s21.1-4.6,30-4.6" fill="#182270"/>
        <path id="Path_3135" data-name="Path 3135" d="M491.7,637.1l21,11s-15.7,8.9-30.6,5.2c-15-3.7-17.3-10.4-17.3-10.4Z" fill="#182270"/>
        <path id="Path_3136" data-name="Path 3136" d="M471.8,654.8a.975.975,0,0,0,.2.8c.3.3,1-.2,1.7.6.7.7,1,3.5.7,4.1s-.9.5-.9.8c.1.7,1,1.1,1,1.1s-2.2.3-5.1.5c-5.1.4-6.7.3-8.6,0-1.5-.3-3.3-3.1-1.4-5.1,2.9-2.9,9.3-2.7,9.3-2.7l3.1-.1" fill="#0b0b3a"/>
        <path id="Path_3137" data-name="Path 3137" d="M475.4,653.5s18.8-7.1,29.5-7.8" fill="none" stroke="#2944b7" stroke-miterlimit="10" stroke-width="0.75"/>
        <path id="Path_3138" data-name="Path 3138" d="M479.3,652.1s-14.2-8.5-23.3-9.1" fill="none" stroke="#2944b7" stroke-miterlimit="10" stroke-width="0.75"/>
      </g>
      <g id="Group_5676" data-name="Group 5676">
        <path id="Path_3139" data-name="Path 3139" d="M485.1,592.8s-2.5,6.4-.4,8.6c1.1,1.1,4.3,1.4,5.6.3,1-.8,2.6-5.7,2.1-6.6C490.3,591.7,485.1,592.8,485.1,592.8Z" fill="#ffcbbd"/>
        <path id="Path_3140" data-name="Path 3140" d="M493.2,599.1l.5,7s-4.5,3.5-8.2-.4l.8-4.6Z" fill="#ffcbbd"/>
        <g id="Group_5675" data-name="Group 5675">
          <path id="Path_3141" data-name="Path 3141" d="M494.9,597.8c.3-1.5,1.3-3.8.4-4.8-.3-.3-.8-.6-1.1-.9a7.461,7.461,0,0,1-.7-1.2,5.806,5.806,0,0,0-1.6-1.9,2.6,2.6,0,0,0-2.4-.4,3.179,3.179,0,0,1-.9.3,2.079,2.079,0,0,1-1.1-.1,7.151,7.151,0,0,0-2.9.1,3.485,3.485,0,0,0-2.5,2.2,2.062,2.062,0,0,0,1.6,2.6c.5,0,1.1-.2,1.6.1.2.1.3.3.4.4a2.053,2.053,0,0,0,2.2.5c1-.4,1.5-.6,1.6.6a2.247,2.247,0,0,0,1.6,1.9,5.783,5.783,0,0,1,1.4.5,1.1,1.1,0,0,1,.3,1.4c-.1.2-.2.3-.3.5-.2.5.3,1,.7,1.4A7.086,7.086,0,0,0,494.9,597.8Z" fill="#0b0b3a"/>
        </g>
        <path id="Path_3142" data-name="Path 3142" d="M491.9,597.9c.6-1,1.2-.9,1.6-.4.5.6-.2,2.1-.6,2.4-.8.6-1.4.6-1.6-.1" fill="#ffcbbd"/>
        <path id="Path_3143" data-name="Path 3143" d="M486,602.4a5.84,5.84,0,0,0,4.5-1" fill="none" stroke="#e88872" stroke-linejoin="round" stroke-miterlimit="10" stroke-width="0.75"/>
      </g>
      <g id="Group_5682" data-name="Group 5682">
        <path id="Path_3144" data-name="Path 3144" d="M477.8,607.4s-5.9,1.5-8.1,11.1c-1.3,5.6-2.7,11.3-2.7,11.3s-9.4,1.1-12.5,2l1.2,5.4s18.2,1.6,22.2-2.4,2.4-14.6,2.4-14.6" fill="#f94c43"/>
        <path id="Path_3145" data-name="Path 3145" d="M487.9,607.2l6.7-.9,1.5.3s-11.7,33-12,33-4.3-.7-4.3-.7l3-32.5,1.4-.6Z" fill="#fff"/>
        <g id="Group_5677" data-name="Group 5677">
          <path id="Path_3146" data-name="Path 3146" d="M487.4,608.8l-.6,1.5s-5.1,10-5.1,12.3c0,2.4-.8,16.4-.6,16.4s3.6.4,3.6.4l3.6-14.9.2-14.2" fill="#182270"/>
          <path id="Path_3147" data-name="Path 3147" d="M486.2,607.4a6.544,6.544,0,0,0,.5,3c.3.3,1.5.3,1.7,0,.3-.3,1.5-2.6,1.1-3C489.2,607,486.6,607,486.2,607.4Z" fill="#182270"/>
        </g>
        <path id="Path_3148" data-name="Path 3148" d="M483.5,630.1c6-16.1,12.8-23.5,12.8-23.5s7.3.7,9.3,4.3c2.6,4.5-.5,10.9-1.1,19.8-.6,9-1.4,6.7-1.4,6.7s-9,3.4-17,3.4c0,0-9.2-.3-11.6-1.2V626.7c0-5.7-1.4-14.8,1.5-18.3,1.3-1.6,7-2,7-2Z" fill="#f94c43"/>
        <g id="Group_5678" data-name="Group 5678">
          <path id="Path_3149" data-name="Path 3149" d="M453.1,640.2h27.5l-2.2-16.5a1.088,1.088,0,0,0-1.1-.9H451.9a.972.972,0,0,0-1,1.1Z" fill="#8693f2"/>
          <path id="Path_3150" data-name="Path 3150" d="M462.7,631.4a2.138,2.138,0,0,0,2,1.9,1.817,1.817,0,0,0,1.8-1.9,2.138,2.138,0,0,0-2-1.9A1.815,1.815,0,0,0,462.7,631.4Z" fill="#b6c2ff"/>
        </g>
        <path id="Path_3151" data-name="Path 3151" d="M493.6,604.6l-5.5,2.2-2.4-2.2-1.4,1.2,1,3.3,2.8-1.8,1.7,2.8,4.8-3.8Z" fill="#fff"/>
        <path id="Path_3152" data-name="Path 3152" d="M497.8,607.1a52.3,52.3,0,0,0-2.8,12.2h-3l1.6,2.6s-6.3,3.2-10.2,12.8" fill="none" stroke="#a52828" stroke-miterlimit="10" stroke-width="0.75"/>
        <path id="Path_3153" data-name="Path 3153" d="M481,606.9a35.289,35.289,0,0,1-2.2,8.8l1.9,1.4-2.4,1.3s4.3,10.6,3.6,16.3" fill="none" stroke="#a52828" stroke-miterlimit="10" stroke-width="0.75"/>
        <path id="Path_3154" data-name="Path 3154" d="M494.7,606.4l-4.8,4-1.8-3.1-2.8,2-1.2-3.4" fill="none" stroke="#ffa6a4" stroke-miterlimit="10" stroke-width="0.75"/>
        <g id="Group_5681" data-name="Group 5681">
          <g id="Group_5680" data-name="Group 5680">
            <g id="Group_5679" data-name="Group 5679">
              <path id="Path_3155" data-name="Path 3155" d="M478.9,637.7c-1.2-.1-6.5-.3-6.5,0s1.8.7,1.7.8a5.152,5.152,0,0,1-2.3.1c-.7-.1-1.8-.1-1.9.2-.1.6,3.7.9,3.7.9,0,.2-4-1.1-4.2-.6-.2.7,4.1,1.7,4.2,1.8,0,0-3.5-1.9-3.6-1.4-.2.5,2.9,2.3,3.9,2.4-.8-.3-3.1-2.1-3.2-1.7s1.9,1.7,2.3,1.8a24.652,24.652,0,0,0,5.7,1" fill="#ffcbbd"/>
            </g>
          </g>
        </g>
        <path id="Path_3156" data-name="Path 3156" d="M480.1,637.1l-2.2.3.8,7.2,3.1-.2Z" fill="#fff"/>
        <path id="Path_3157" data-name="Path 3157" d="M496.6,620.1a117.1,117.1,0,0,1-.5,13,84.875,84.875,0,0,1-17.4,3.8c.6,3.6,1.1,8.2,1.1,8.2s18.7-1.3,24-5.1c5.8-4.1,6.4-27.8-.3-31" fill="#f94c43"/>
        <path id="Path_3158" data-name="Path 3158" d="M480.4,636.4c14.4-2.3,16.4-3.4,16.4-3.4s1.1-8.9.7-14" fill="none" stroke="#a52828" stroke-miterlimit="10" stroke-width="0.75"/>
      </g>
    </g>
    <g id="Group_5690" data-name="Group 5690">
      <g id="Group_5685" data-name="Group 5685">
        <path id="Path_3159" data-name="Path 3159" d="M399.3,529l-1.5,7.4s4.1,4.2,8.4.3v-4.9Z" fill="#ffcbbd"/>
        <path id="Path_3160" data-name="Path 3160" d="M406.1,522.1s4.3,6.6,2.2,9c-1.1,1.2-5.2,2.3-6.7,1.2-1.1-.8-2.9-6.2-2.3-7.1C401.6,521.5,406.1,522.1,406.1,522.1Z" fill="#ffcbbd"/>
        <g id="Group_5684" data-name="Group 5684">
          <path id="Path_3161" data-name="Path 3161" d="M398.5,522.6c.4-2.5,2.9-3,7.7-2.3.6.1,1.8-.2,2,.4.3.8.3,2.3-.6,2.9a2.814,2.814,0,0,1-1.5.6c-.9.1-1.8.9-1.5,1.8.1.2.3.7.2.9a1.056,1.056,0,0,1-.5.2.684.684,0,0,0-.2,1c.2.3.1.7.2,1a2.342,2.342,0,0,1-1.1,2.6,5.562,5.562,0,0,1-4.7-.2c-1.4-.9-2.1-3-1.8-6.7C396.9,523.3,398,522.5,398.5,522.6Z" fill="#0b0b3a"/>
        </g>
        <path id="Path_3162" data-name="Path 3162" d="M405.2,527c-.7-1.1-1.3-1-1.7-.4-.5.7.3,2.3.7,2.6.8.6,1.5.6,1.7-.1" fill="#ffcbbd"/>
        <path id="Path_3163" data-name="Path 3163" d="M406.1,532.3a2.537,2.537,0,0,1-1.4-1.7" fill="none" stroke="#e88872" stroke-linejoin="round" stroke-miterlimit="10" stroke-width="0.5"/>
      </g>
      <g id="Group_5688" data-name="Group 5688">
        <g id="Group_5686" data-name="Group 5686">
          <path id="Path_3164" data-name="Path 3164" d="M394.4,653.3l-2.4,9.9,8.2,3.2L383,664.2l1.5-11.9" fill="#ffcbbd"/>
          <path id="Path_3165" data-name="Path 3165" d="M392.5,661.2c.5.2.1.5,1,1.6s6,3.1,8.5,3.8c2.4.7,1.8,2.7,1,2.7H390.3c-.9,0-1.6-.8-2.3-.8-.2,0-.6-.1-.7,0a1.232,1.232,0,0,0-.2.7h-4.3c-.5,0-.8-.3-.7-.7l.5-6.1s5.2.7,6.7.3c.6-.2,0-.6.2-.9A22.7,22.7,0,0,1,392.5,661.2Z" fill="#0b0b3a"/>
        </g>
        <path id="Path_3166" data-name="Path 3166" d="M386.9,585.6c.6,22.8-4.4,72.1-4.4,72.1l14-.1s7.8-33.8,9.7-50.8c1.1-10.1,1.6-21.6,1.8-30.2" fill="#202263"/>
        <path id="Path_3167" data-name="Path 3167" d="M404.4,607.3c-2.2,16.8-10.6,50.1-10.6,50.1" fill="none" stroke="#2944b7" stroke-linejoin="round" stroke-miterlimit="10" stroke-width="0.5"/>
        <g id="Group_5687" data-name="Group 5687">
          <path id="Path_3168" data-name="Path 3168" d="M417.6,653l.5,10.2,8.2,3.2-17.2-2.2-.9-11.9" fill="#ffcbbd"/>
          <path id="Path_3169" data-name="Path 3169" d="M418.6,661.2c.5.2.1.5,1,1.6s6,3.1,8.5,3.8c2.4.7,1.8,2.7,1,2.7H416.4c-.9,0-1.6-.8-2.3-.8-.2,0-.6-.1-.7,0a1.232,1.232,0,0,0-.2.7H409c-.5,0-.8-.3-.7-.7l.5-6.1s5.2.7,6.7.3c.6-.2,0-.6.2-.9A18.357,18.357,0,0,1,418.6,661.2Z" fill="#0b0b3a"/>
        </g>
        <path id="Path_3170" data-name="Path 3170" d="M418.7,586.7s1.8,25.6,1.8,37.8c0,12.3.8,34.5.8,34.5H407.2s-3.5-37.7-11.4-63.9c-2.8-9.4-3.2-13.6-2-18.8l17.6-4.6Z" fill="#202263"/>
        <path id="Path_3171" data-name="Path 3171" d="M413.2,586c5.1,34.3,6,73.1,6,73.1" fill="none" stroke="#2944b7" stroke-linejoin="round" stroke-miterlimit="10" stroke-width="0.5"/>
        <path id="Path_3172" data-name="Path 3172" d="M393.4,587.8c1.1,6.4,3.7,10.3,5.1,12.9,2.1,8.6,2.5,14.9,4.3,26.1" fill="none" stroke="#2944b7" stroke-linejoin="round" stroke-miterlimit="10" stroke-width="0.5"/>
        <path id="Path_3173" data-name="Path 3173" d="M404.2,590.9a27.42,27.42,0,0,1-8.2.2" fill="none" stroke="#2944b7" stroke-linejoin="round" stroke-miterlimit="10" stroke-width="0.5"/>
        <path id="Path_3174" data-name="Path 3174" d="M390.2,590.6a8.327,8.327,0,0,1-3.1-.1" fill="none" stroke="#2944b7" stroke-linejoin="round" stroke-miterlimit="10" stroke-width="0.5"/>
      </g>
      <g id="Group_5689" data-name="Group 5689">
        <path id="Path_3175" data-name="Path 3175" d="M414.9,537.2a9.46,9.46,0,0,0-2.6-4.3c-.9-.7-1.1-.4-1.6-.7-.8-.4-1.2-.3-1.5.1-.2.3-.8.1-1.1.3-.5.3-.1.9-.5,1-1.4.7.2,2,.2,2s-.3-.7-.9-.4c-.4.2,1.1,2.2,2.1,3.6.5.7.9,1.2.9,1.2" fill="#ffcbbd"/>
        <path id="Path_3176" data-name="Path 3176" d="M415.3,536.1c-.1-.1-1.3-1.7-1.3-1.7l-4.6,4.3,1.5.9" fill="#fff"/>
        <path id="Path_3177" data-name="Path 3177" d="M410.4,541l-1.5-1.4,5.8-4.8,1.4,2" fill="#fff"/>
        <path id="Path_3178" data-name="Path 3178" d="M398.5,536.2a14.662,14.662,0,0,0-7.8.8c-9.1,4.5-14.1,19.8-14.4,23.5-.6,9.5,10.3,25.2,10.3,25.2l6.3-3s-6.8-16.1-4.9-21.3c1.8-5.2,10.4-14.5,10.4-14.5" fill="#4a63fe"/>
        <path id="Path_3179" data-name="Path 3179" d="M397.9,536.2s-7.6,1.7-10.5,12.7c-1.3,4.9.1,12.9-.2,19.7a192.928,192.928,0,0,1-1.9,19.2c14.1,2.8,34.3-.2,34.3-.2s-1.5-11.2-2-18.3a158.635,158.635,0,0,1-.5-16.3c0-14.6-10.4-15.7-10.4-15.7Z" fill="#4a63fe"/>
        <path id="Path_3180" data-name="Path 3180" d="M396.9,536.3a16.315,16.315,0,0,1,.9-1.9c1.9-.4,7.3-.2,8.7,1.2.6.6.3,1.4.4,2.4" fill="#4a63fe"/>
        <path id="Path_3181" data-name="Path 3181" d="M386,583.7c1.6-11.3,1-33.3,1-33.3" fill="none" stroke="#1f38b2" stroke-miterlimit="10" stroke-width="0.5"/>
        <path id="Path_3182" data-name="Path 3182" d="M407.2,548.2s4.7,19.3,15.5,19.2c10.2-.1,7.5-17.2-7.9-32.6l-9.4,7.9" fill="#4a63fe"/>
        <path id="Path_3183" data-name="Path 3183" d="M417.2,565.4a42.038,42.038,0,0,1-6.4-7.2" fill="none" stroke="#1f38b2" stroke-miterlimit="10" stroke-width="0.5"/>
        <path id="Path_3184" data-name="Path 3184" d="M410.9,538.8c8.7,6.5,13.2,16.4,13.2,16.4" fill="none" stroke="#1f38b2" stroke-miterlimit="10" stroke-width="0.5"/>
      </g>
    </g>
    <g id="Group_5693" data-name="Group 5693">
      <g id="Group_5692" data-name="Group 5692">
        <g id="Group_5691" data-name="Group 5691">
          <path id="Path_3185" data-name="Path 3185" d="M611,481.2c-.2,2.2-2.1,8.6-1.7,8.8.4.3,1.1-2,1.4-1.7s-.5,3.8,0,3.9c.6.2,1.3-3.4,1.3-3.4s-.5,4,.2,4c.4,0,.9-3,1.3-4.1-.2,1.3-.3,3.4.2,3.4s.8-2,1.2-3.6c-.1,1-.3,2.8.1,2.8s1.7-4.9,2.8-9.6" fill="#ffcbbd"/>
        </g>
        <path id="Path_3186" data-name="Path 3186" d="M621.3,449.4c1.8,15.5-4.5,36-4.5,36l-6.2-1.3s2.5-17.8-.3-33.4" fill="#ffcbbd"/>
      </g>
      <path id="Path_3187" data-name="Path 3187" d="M615.1,436.8c5.9,4.2,6.4,13,6.4,13l-11.3,2.1s-.6-6.9-.6-9.3" fill="#f94c43"/>
      <path id="Path_3188" data-name="Path 3188" d="M609.8,452a27.813,27.813,0,0,0-1.3-6" fill="none" stroke="#d62137" stroke-miterlimit="10" stroke-width="0.75"/>
      <path id="Path_3189" data-name="Path 3189" d="M622,449.7c-.3-3.2-.8-5.7-.8-5.7" fill="none" stroke="#d62137" stroke-miterlimit="10" stroke-width="0.75"/>
    </g>
    <g id="Group_5709" data-name="Group 5709">
      <g id="Group_5700" data-name="Group 5700">
        <line id="Line_55" data-name="Line 55" x1="7.9" y1="105.9" transform="translate(660.2 563.5)" fill="none" stroke="#0029b7" stroke-miterlimit="10" stroke-width="1"/>
        <path id="Path_3193" data-name="Path 3193" d="M700.2,669.4l-7.9-105.9H660.2" fill="none" stroke="#0029b7" stroke-miterlimit="10" stroke-width="1"/>
        <line id="Line_56" data-name="Line 56" y1="105.9" x2="7.9" transform="translate(684.4 563.5)" fill="none" stroke="#0029b7" stroke-miterlimit="10" stroke-width="1"/>
        <path id="Path_3194" data-name="Path 3194" d="M652.3,669.4l7.9-105.9h32.1" fill="none" stroke="#0029b7" stroke-miterlimit="10" stroke-width="1"/>
        <line id="Line_57" data-name="Line 57" x1="45.6" transform="translate(653.4 654.4)" fill="none" stroke="#0029b7" stroke-miterlimit="10" stroke-width="1"/>
        <line id="Line_58" data-name="Line 58" x1="43.6" transform="translate(654.3 641.4)" fill="none" stroke="#0029b7" stroke-miterlimit="10" stroke-width="1"/>
        <line id="Line_59" data-name="Line 59" x1="41.4" transform="translate(655.3 628.1)" fill="none" stroke="#0029b7" stroke-miterlimit="10" stroke-width="1"/>
        <line id="Line_60" data-name="Line 60" x1="39.1" transform="translate(656.3 615.4)" fill="none" stroke="#0029b7" stroke-miterlimit="10" stroke-width="1"/>
        <line id="Line_61" data-name="Line 61" x1="37.4" transform="translate(657.2 602.2)" fill="none" stroke="#0029b7" stroke-miterlimit="10" stroke-width="1"/>
        <line id="Line_62" data-name="Line 62" x1="35.6" transform="translate(658.2 589)" fill="none" stroke="#0029b7" stroke-miterlimit="10" stroke-width="1"/>
        <line id="Line_63" data-name="Line 63" x1="33.9" transform="translate(659.2 576.6)" fill="none" stroke="#0029b7" stroke-miterlimit="10" stroke-width="1"/>
      </g>
      <g id="Group_5708" data-name="Group 5708">
        <g id="Group_5702" data-name="Group 5702">
          <path id="Path_3195" data-name="Path 3195" d="M690,516l1.6,7.3s-4,4.3-8.4.5l-.1-4.9Z" fill="#ffcbbd"/>
          <path id="Path_3196" data-name="Path 3196" d="M680.6,509.5s-2,7.7.8,9.2c1.5.8,5.7.5,6.7-1,.8-1.2.7-6.8-.1-7.5C684.7,507.5,680.6,509.5,680.6,509.5Z" fill="#ffcbbd"/>
          <g id="Group_5701" data-name="Group 5701">
            <path id="Path_3197" data-name="Path 3197" d="M689.1,507.3c-1.2-2.2-3.8-1.8-7.7-.2-1.5.6-3.2,0-3.3.7-.4,1.8.5,3.3,1.5,3.6a4.483,4.483,0,0,0,2.3,0c1.7-.6,3.1.2,3.1,1.2,0,.3-.1.7.1.9.1.1.4,0,.6,0,.4,0,.6.5.5.9s.8.3.8.7c-.2.9,1.6,2.1,2.5,2.2.8.1,1.2-.5,1.6-1.6C691.7,514,692.6,507.2,689.1,507.3Z" fill="#f94c43"/>
          </g>
          <path id="Path_3198" data-name="Path 3198" d="M685.4,513.7c.3-1.2,1-1.3,1.5-1,.7.5.5,2.2.2,2.7-.6.8-1.3,1.1-1.6.4" fill="#ffcbbd"/>
          <path id="Path_3199" data-name="Path 3199" d="M683.1,519.3a4.762,4.762,0,0,0,2.9-1.6" fill="none" stroke="#e88872" stroke-linejoin="round" stroke-miterlimit="10" stroke-width="0.75"/>
        </g>
        <g id="Group_5705" data-name="Group 5705">
          <g id="Group_5703" data-name="Group 5703">
            <path id="Path_3200" data-name="Path 3200" d="M714.3,630.5l7.9,6.3-4.4,7.6,12.1-12.5-8.5-8.3" fill="#ffcbbd"/>
            <path id="Path_3201" data-name="Path 3201" d="M720.6,635.6c-.3.5.2.5.2,1.9s-2.8,6.2-4.3,8.3c-1.4,2,.3,3.3.9,2.8,0,0,9.2-7.3,9.9-7.9s.8-1.6,1.4-2c.2-.1.4-.5.6-.4a1.648,1.648,0,0,1,.6.5l3.4-2.7a.7.7,0,0,0,.2-1l-4.2-4.5s-3.7,3.8-5.1,4.4c-.6.2-.4-.5-.7-.6A5.646,5.646,0,0,0,720.6,635.6Z" fill="#0b0b3a"/>
          </g>
          <path id="Path_3202" data-name="Path 3202" d="M708.4,570.2c0,7.6-.1,19.3,1.7,31.4.7,4.8,17.1,26.1,17.1,26.1l-9.7,9.1s-28.2-25-27.5-43.1c.8-19.6-2.7-46.1-2.7-46.1" fill="#4a63fe"/>
          <g id="Group_5704" data-name="Group 5704">
            <path id="Path_3203" data-name="Path 3203" d="M681.3,636.8l.9,10.9-8.2,3.2,17.2-2.2V636.8" fill="#ffcbbd"/>
            <path id="Path_3204" data-name="Path 3204" d="M681.7,645.8c-.5.2-.1.5-1,1.6s-6,3.1-8.5,3.8c-2.4.7-1.8,2.7-1,2.7h12.7c.9,0,1.6-.8,2.3-.8.2,0,.6-.1.7,0a1.232,1.232,0,0,1,.2.7h4.3c.5,0,.8-.3.7-.7l-.5-6.1s-5.2.7-6.7.3c-.6-.2,0-.6-.2-.9C684.4,646.3,682.2,645.6,681.7,645.8Z" fill="#0b0b3a"/>
          </g>
          <path id="Path_3205" data-name="Path 3205" d="M676.6,571.3s-1.8,25.6-1.8,37.8c0,12.3,3.5,34.5,3.5,34.5h14.1s-.8-37.7,7.2-63.9c2.8-9.4,3.2-13.6,2-18.8L684,556.3Z" fill="#4a63fe"/>
          <path id="Path_3206" data-name="Path 3206" d="M681.1,570.5c-5.4,31.8-.1,73-.1,73" fill="none" stroke="#1f38b2" stroke-miterlimit="10" stroke-width="0.75"/>
          <path id="Path_3207" data-name="Path 3207" d="M702.3,573.9c0,3.9-1.2,5.8-4.2,8.9-2.2,9.2-2.4,17.5-3.9,25.7" fill="none" stroke="#1f38b2" stroke-miterlimit="10" stroke-width="0.75"/>
          <path id="Path_3208" data-name="Path 3208" d="M695.3,602.3c8.1,16.5,23.9,32.3,23.9,32.3" fill="none" stroke="#1f38b2" stroke-miterlimit="10" stroke-width="0.75"/>
          <path id="Path_3209" data-name="Path 3209" d="M691.2,575.4a27.42,27.42,0,0,0,8.2.2" fill="none" stroke="#1f38b2" stroke-miterlimit="10" stroke-width="0.75"/>
          <path id="Path_3210" data-name="Path 3210" d="M705.2,575.2a8.327,8.327,0,0,0,3.1-.1" fill="none" stroke="#1f38b2" stroke-miterlimit="10" stroke-width="0.75"/>
        </g>
        <path id="Path_3211" data-name="Path 3211" d="M682.1,523.1a13.606,13.606,0,0,1,.7-2.2c2.6-1.6,6.7-2,8.1-2l.8,2.7" fill="#182270"/>
        <g id="Group_5707" data-name="Group 5707">
          <g id="Group_5706" data-name="Group 5706">
            <path id="Path_3212" data-name="Path 3212" d="M647,541.3c-2.3.1-9.1-.7-9.3-.3s2.2.7,1.9,1.1c-.2.3-3.9.1-4,.6-.1.7,3.7.7,3.7.7s-4.1.2-4.1.8c0,.4,3.2.4,4.4.6-1.3,0-3.5.2-3.5.7,0,.4,2.2.5,3.9.6-1,0-2.9.1-2.9.6,0,.4,5.3.9,10.2,1.2" fill="#ffcbbd"/>
          </g>
          <path id="Path_3213" data-name="Path 3213" d="M646,548.3l-2.6-.1.6-7.4,2.8-.1" fill="#fff"/>
          <path id="Path_3214" data-name="Path 3214" d="M685.8,520.9c.2-.1,3.1-.5,3.4-.5,3-.2,8,1.8,11.8,11.2,4.9,12.1,8.2,39.3,8.2,39.3s-20.7,3.9-35.2,2.6C672.9,554.7,668.3,524.5,685.8,520.9Z" fill="#182270"/>
          <path id="Path_3215" data-name="Path 3215" d="M678.1,544.6a143.43,143.43,0,0,1,4.5,29.3" fill="none" stroke="#2944b7" stroke-linejoin="round" stroke-miterlimit="10" stroke-width="0.75"/>
          <path id="Path_3216" data-name="Path 3216" d="M688.1,520.7a21.322,21.322,0,0,0-13.1,6.1c-3.7,3.9-6.5,8.6-9.3,10.8-3.2,2.5-20.5,2.9-20.5,2.9l.1,8.5s16.8,2.3,22.5.5,12.1-6.7,12.1-6.7" fill="#182270"/>
          <path id="Path_3217" data-name="Path 3217" d="M673.5,547.3a32.421,32.421,0,0,0,6.3-4.1" fill="none" stroke="#2944b7" stroke-linejoin="round" stroke-miterlimit="10" stroke-width="0.75"/>
        </g>
      </g>
    </g>
  </g>
</svg>
