<svg xmlns="http://www.w3.org/2000/svg" width="29.308" height="27.619" viewBox="0 0 29.308 27.619"><defs><style>.a{fill:#59c372;}</style></defs><g transform="translate(0 -14.759)"><g transform="translate(0 14.759)"><path class="a" d="M28.7,35.893,18.346,16.861a4.294,4.294,0,0,0-7.384,0L.61,35.893A4.291,4.291,0,0,0,4.3,42.378H25.008A4.292,4.292,0,0,0,28.7,35.893ZM14.654,38.943a1.717,1.717,0,1,1,1.717-1.717A1.72,1.72,0,0,1,14.654,38.943Zm1.717-6.869a1.717,1.717,0,0,1-3.435,0V23.487a1.717,1.717,0,1,1,3.435,0Z" transform="translate(0 -14.759)"/></g></g></svg>