<svg xmlns="http://www.w3.org/2000/svg" width="14.756" height="17.675" viewBox="0 0 14.756 17.675">
  <g id="export" transform="translate(-68.891 0)">
    <path id="Path_3080" data-name="Path 3080" d="M83.032,172.228H81.188v1.23h1.23v9.067h-12.3v-9.067h1.23v-1.23H69.506a.614.614,0,0,0-.615.615v10.3a.614.614,0,0,0,.615.615H83.032a.614.614,0,0,0,.615-.615v-10.3A.614.614,0,0,0,83.032,172.228Z" transform="translate(0 -166.08)" fill="#103bb5"/>
    <path id="Path_3081" data-name="Path 3081" d="M163.56,2.354v8.713h1.23V2.354l2.639,2.639.869-.869L164.175,0l-4.124,4.124.869.869Z" transform="translate(-87.906)" fill="#103bb5"/>
  </g>
</svg>
