<svg width="20" height="20" viewBox="0 0 17 13" fill="none" xmlns="http://www.w3.org/2000/svg">
<path d="M4.6 0C6.2 0 7.5 1 7.5 2.9C7.5 4.8 6.3 5.8 4.6 5.8C3 5.8 1.7 4.8 1.7 2.9C1.7 1 2.9 0 4.6 0ZM3.6 2.9C3.6 3.9 4 4.3 4.6 4.3C5.2 4.3 5.6 3.9 5.6 2.9C5.6 1.9 5.2 1.5 4.6 1.5C3.9 1.5 3.6 1.9 3.6 2.9ZM10.8 0.2H13.3L6.2 12.8H3.8L10.8 0.2ZM12.5 7.2C14.1 7.2 15.3 8.2 15.3 10.1C15.3 12 14.1 13 12.5 13C10.9 13 9.6 12 9.6 10.1C9.6 8.2 10.8 7.2 12.5 7.2ZM11.4 10.1C11.4 11.1 11.8 11.5 12.4 11.5C13 11.5 13.4 11.1 13.4 10.1C13.4 9.1 13 8.7 12.4 8.7C11.8 8.7 11.4 9.1 11.4 10.1Z" fill="#EF3F3F"/>
</svg>
