<svg xmlns="http://www.w3.org/2000/svg" width="15.786" height="16.322" viewBox="0 0 15.786 16.322">
  <path id="Path_3515" data-name="Path 3515" d="M64.892,48.366l-6.843-.008-6.6.008a1.172,1.172,0,0,0-1.17,1.17v.413a1.34,1.34,0,0,0,.489,1.022L56,55.188v8.385a1.083,1.083,0,0,0,1.082,1.107,1.125,1.125,0,0,0,.77-.312l2.067-1.95a1.386,1.386,0,0,0,.421-.975V55.2l5.215-4.012a1.328,1.328,0,0,0,.51-1.032v-.624a1.174,1.174,0,0,0-1.173-1.17Zm.13,1.794a.289.289,0,0,1-.1.208L59.4,54.613a.3.3,0,0,0-.1.208v6.622a.347.347,0,0,1-.094.218l-2.069,1.953-.052.029c-.026,0-.042-.023-.042-.068V54.824a.3.3,0,0,0-.1-.211l-5.52-4.451a.312.312,0,0,1-.1-.211v-.413a.129.129,0,0,1,.13-.13l6.6-.008h.26l6.583.008a.13.13,0,0,1,.13.13v.621Z" transform="translate(-50.278 -48.358)" fill="#103bb5"/>
</svg>
