<svg xmlns="http://www.w3.org/2000/svg" width="17.323" height="15.213" viewBox="0 0 17.323 15.213">
  <g id="noun_filters_1245150" transform="translate(-16 -20.1)">
    <g id="Group_5921" data-name="Group 5921" transform="translate(16 20.1)">
      <path id="Path_3566" data-name="Path 3566" d="M21.088,20.1a2.266,2.266,0,0,0-2.162,1.628H16.611a.609.609,0,0,0-.611.636.63.63,0,0,0,.636.636h2.315a2.243,2.243,0,0,0,2.162,1.628A2.274,2.274,0,0,0,23.3,23h9.387a.636.636,0,1,0,0-1.272H23.3A2.329,2.329,0,0,0,21.088,20.1Zm.025,1.272a.992.992,0,1,1-.992.992A.993.993,0,0,1,21.113,21.372Z" transform="translate(-16 -20.1)" fill="#103bb5"/>
    </g>
    <g id="Group_5922" data-name="Group 5922" transform="translate(16 25.188)">
      <path id="Path_3567" data-name="Path 3567" d="M28.744,40.1a2.266,2.266,0,0,0-2.162,1.628H16.636a.615.615,0,0,0-.636.636.63.63,0,0,0,.636.636h9.946a2.243,2.243,0,0,0,2.162,1.628A2.274,2.274,0,0,0,30.932,43h1.755a.636.636,0,0,0,0-1.272H30.932A2.274,2.274,0,0,0,28.744,40.1Zm.025,1.272a.992.992,0,1,1-.992.992A.977.977,0,0,1,28.77,41.372Z" transform="translate(-16 -40.1)" fill="#103bb5"/>
    </g>
    <g id="Group_5923" data-name="Group 5923" transform="translate(16 30.784)">
      <path id="Path_3568" data-name="Path 3568" d="M24.14,62.1a2.266,2.266,0,0,0-2.162,1.628H16.636a.615.615,0,0,0-.636.636.63.63,0,0,0,.636.636H22a2.243,2.243,0,0,0,2.162,1.628A2.274,2.274,0,0,0,26.353,65h6.334a.636.636,0,0,0,0-1.272H26.328A2.274,2.274,0,0,0,24.14,62.1Zm.025,1.272a.992.992,0,1,1-.992.992A1.01,1.01,0,0,1,24.166,63.372Z" transform="translate(-16 -62.1)" fill="#103bb5"/>
    </g>
  </g>
</svg>
