<svg xmlns="http://www.w3.org/2000/svg" width="16.889" height="16.71" viewBox="0 0 16.889 16.71">
  <g id="Group_6152" data-name="Group 6152" transform="translate(-134.702 -230.082)">
    <path id="Path_3569" data-name="Path 3569" d="M298.355,502.668h0l-2.476,4.091h0Z" transform="translate(-156.565 -264.128)" fill="#103bb5"/>
    <path id="Path_3570" data-name="Path 3570" d="M410.173,334.289h0l-2.185,3.61h0Z" transform="translate(-265.471 -100.562)" fill="#103bb5"/>
    <path id="Union_10" data-name="Union 10" d="M0,14.675l1.025-1.609h0l.728-1.2h0L4.227,7.772l.729-1.2h0l2.185-3.61.728-1.2L8.932,0l1.1.666-.66,1.09h3.555a.6.6,0,0,1,0,1.2H8.644L6.459,6.569h.691a2.145,2.145,0,0,1,4.116,0h1.661a.6.6,0,0,1,0,1.2H11.266A2.152,2.152,0,0,1,9.2,9.312a2.124,2.124,0,0,1-2.046-1.54H5.731L4.107,10.455a2.1,2.1,0,0,1,.734-.132,2.151,2.151,0,0,1,2.069,1.54h6.017a.6.6,0,1,1,0,1.2H6.935a2.151,2.151,0,0,1-2.069,1.54,2.122,2.122,0,0,1-2.046-1.54H2.525L1.1,15.341Zm3.929-2.211a.938.938,0,1,0,.939-.938A.955.955,0,0,0,3.927,12.464ZM8.282,7.17a.939.939,0,1,0,.939-.938A.924.924,0,0,0,8.282,7.17Z" transform="translate(137.562 230.769)" fill="#103bb5" stroke="rgba(0,0,0,0)" stroke-miterlimit="10" stroke-width="1"/>
    <path id="Path_3574" data-name="Path 3574" d="M135.3,241.058h2.19a2.122,2.122,0,0,0,2.046,1.54,2.151,2.151,0,0,0,2.07-1.54h1.586l.728-1.2h-2.315a2.2,2.2,0,0,0-2.094-1.54,2.144,2.144,0,0,0-2.046,1.54h-2.19a.576.576,0,0,0-.578.6A.6.6,0,0,0,135.3,241.058Zm4.235-1.54a.939.939,0,1,1-.939.939A.94.94,0,0,1,139.539,239.518Z" transform="translate(0 -7.331)" fill="#103bb5"/>
    <path id="Path_3575" data-name="Path 3575" d="M485.156,292.2h0l-.728,1.2h0Z" transform="translate(-339.725 -59.671)" fill="#103bb5"/>
    <path id="Path_3577" data-name="Path 3577" d="M135.3,461.776h4.978l.728-1.2H135.3a.581.581,0,0,0-.6.6A.6.6,0,0,0,135.3,461.776Z" transform="translate(0 -223.236)" fill="#103bb5"/>
    <path id="Path_3578" data-name="Path 3578" d="M383.237,460.573h0l-.728,1.2h0Z" transform="translate(-240.719 -223.236)" fill="#103bb5"/>
    <path id="Path_3579" data-name="Path 3579" d="M135.3,645.789a.581.581,0,0,0-.6.6.6.6,0,0,0,.6.6h1.773l.728-1.2Z" transform="translate(0 -403.158)" fill="#103bb5"/>
    <path id="Path_3580" data-name="Path 3580" d="M271.123,645.789l-.728,1.2h0l.728-1.2Z" transform="translate(-131.814 -403.158)" fill="#103bb5"/>
  </g>
</svg>
