<svg xmlns="http://www.w3.org/2000/svg" width="217" height="68.115" viewBox="0 0 217 68.115">
  <g id="Group_5944" data-name="Group 5944" transform="translate(-326 -37.886)">
    <g id="Group_5943" data-name="Group 5943" transform="translate(235 27.885)">
      <g id="Component_22_53" data-name="Component 22 – 53" transform="translate(165 17.115)">
        <text id="binder_management" data-name="binder
management" transform="translate(0 28)" fill="#103bb5" font-size="27" font-family="Poppins-Medium, Poppins" font-weight="500"><tspan x="0" y="0">Binder</tspan><tspan font-size="20"><tspan x="0" y="18">Management</tspan></tspan></text>
      </g>
      <g id="Group_5926" data-name="Group 5926" transform="translate(91 10.001)">
        <g id="Group_5927" data-name="Group 5927" transform="translate(2.173 2.257)">
          <g id="Group_5926-2" data-name="Group 5926">
            <path id="Path_3591" data-name="Path 3591" d="M1396.1,1759.977s-2-2.545-12.076-3.068l-6.221-1.165s-6.441.284-5.386,7.6c0,0,2.223,14.834,13.743,20.6,0,0,10.706,7.56,17.173-5.951,0,0-2.19-7.454-1.81-11.374C1401.527,1766.623,1398.035,1766.526,1396.1,1759.977Zm3.164,7.883c.624,1.424-1.16,2.454-1.16,2.454-1.76,1.413,1.261,6.208,1.261,6.208,1.661,5.184-4.678,6.751-4.678,6.751-2.34,1.438-3.548.377-3.548.377-.452-1.127,1.794-3.414,1.794-3.414,4.372-2.723.569-5.878.569-5.878-2.277-4.63,3.057-6.719,3.057-6.719C1399.091,1766.18,1399.269,1767.861,1399.269,1767.861Z" transform="translate(-1372.304 -1727.004)" fill="#6d86c2"/>
            <path id="Path_3592" data-name="Path 3592" d="M1566.773,1347.973s3.176-.623,8.23-9.356l3.869-5.01s2.678-5.864-4.316-8.256c0,0-14.221-4.774-24.6,2.857,0,0-11.6,6.091-2.52,18,0,0,7.633,1.443,10.949,3.566C1558.386,1349.774,1560.062,1346.71,1566.773,1347.973Zm-8.46-.773c-1.55-.093-1.657-2.149-1.657-2.149-.456-2.209-6.1-1.7-6.1-1.7-5.372-.881-3.881-7.24-3.881-7.24-.215-2.738,1.28-3.329,1.28-3.329,1.209.11,2.223,3.151,2.223,3.151.434,5.134,4.973,3.184,4.973,3.184,5.16.081,4.592,5.78,4.592,5.78C1559.891,1347.807,1558.313,1347.2,1558.313,1347.2Z" transform="translate(-1532.539 -1323.876)" fill="#6d86c2"/>
            <path id="Path_3593" data-name="Path 3593" d="M1910.4,1708.965s-1.419,2.91,2.5,12.208l1.661,6.106s3.063,5.674,9.191,1.537c0,0,12.384-8.463,12.556-21.345,0,0,2.14-12.929-12.839-12.865,0,0-5.754,5.217-9.449,6.582C1914.017,1701.188,1915.451,1704.375,1910.4,1708.965Zm5.72-6.281c1.009-1.183,2.713-.025,2.713-.025,2.039.968,5.039-3.842,5.039-3.842,3.944-3.751,8.116,1.272,8.116,1.272,2.313,1.479,1.883,3.029,1.883,3.029-.817.9-3.855-.129-3.855-.129-4.357-2.749-5.539,2.05-5.539,2.05-3.177,4.066-7.38.175-7.38.175C1914.678,1703.577,1916.116,1702.684,1916.116,1702.684Z" transform="translate(-1874.352 -1669.934)" fill="#6d86c2"/>
            <path id="Path_3594" data-name="Path 3594" d="M1769.578,1724.281a5.205,5.205,0,1,1-1.905,7.11A5.206,5.206,0,0,1,1769.578,1724.281Z" transform="translate(-1740.708 -1696.981)" fill="#6d86c2"/>
          </g>
        </g>
        <rect id="Rectangle_1496" data-name="Rectangle 1496" width="38.023" height="13.177" transform="translate(15.106 28.018)" fill="#e60019"/>
        <g id="Group_5929" data-name="Group 5929" transform="translate(16.287 30.867)">
          <g id="Group_5928" data-name="Group 5928" transform="translate(0 0)">
            <path id="Path_3595" data-name="Path 3595" d="M1589.334,1753.886h1.673v7.231h-1.673v-2.965h-3.285v2.965h-1.674v-7.231h1.674v2.851h3.285Zm3.884,7.314a.967.967,0,0,1-.713-.289.981.981,0,0,1-.289-.723h0a.943.943,0,0,1,.289-.718,1,1,0,0,1,.713-.274h0a1,1,0,0,1,.713.274.942.942,0,0,1,.289.718h0a.981.981,0,0,1-.289.723.967.967,0,0,1-.713.289Zm3.874-1.426h3.936v1.343h-5.6v-7.231h5.465v1.343h-3.8v1.57h3.358v1.3h-3.358Zm5.868,1.426a.968.968,0,0,1-.713-.289.981.981,0,0,1-.289-.723h0a.943.943,0,0,1,.289-.718,1,1,0,0,1,.713-.274h0a1,1,0,0,1,.713.274.942.942,0,0,1,.29.718h0a.98.98,0,0,1-.29.723.967.967,0,0,1-.713.289Zm4.587.041a5.923,5.923,0,0,1-1.658-.232,3.9,3.9,0,0,1-1.286-.6h0l.568-1.26a3.861,3.861,0,0,0,1.105.548,4.153,4.153,0,0,0,1.281.207h0a2.047,2.047,0,0,0,1.054-.212.639.639,0,0,0,.341-.563h0a.538.538,0,0,0-.2-.429,1.526,1.526,0,0,0-.517-.274q-.315-.1-.852-.227h0a11.789,11.789,0,0,1-1.353-.393,2.2,2.2,0,0,1-.9-.63,1.7,1.7,0,0,1-.377-1.157h0a2.011,2.011,0,0,1,.341-1.142,2.3,2.3,0,0,1,1.028-.811,4.2,4.2,0,0,1,1.679-.3h0a5.552,5.552,0,0,1,1.353.166,4,4,0,0,1,1.157.475h0l-.517,1.271a4.033,4.033,0,0,0-2-.568h0a1.882,1.882,0,0,0-1.038.227.694.694,0,0,0-.336.6h0a.586.586,0,0,0,.387.552,6.08,6.08,0,0,0,1.183.356h0a11.774,11.774,0,0,1,1.353.393,2.241,2.241,0,0,1,.9.62,1.663,1.663,0,0,1,.377,1.147h0a1.976,1.976,0,0,1-.346,1.131,2.324,2.324,0,0,1-1.038.811,4.228,4.228,0,0,1-1.684.3Zm4.917-.041a.968.968,0,0,1-.713-.289.981.981,0,0,1-.289-.723h0a.943.943,0,0,1,.289-.718,1,1,0,0,1,.713-.274h0a1,1,0,0,1,.713.274.941.941,0,0,1,.289.718h0a.98.98,0,0,1-.289.723.967.967,0,0,1-.713.289Zm3.709-.083v-5.868h-2.314v-1.364h6.3v1.364h-2.314v5.868Z" transform="translate(-1584.375 -1753.762)" fill="#1e4a9b"/>
          </g>
        </g>
        <g id="Group_5932" data-name="Group 5932" transform="translate(55.298 31.321)">
          <g id="Group_5931" data-name="Group 5931">
            <g id="Group_5930" data-name="Group 5930">
              <path id="Path_3596" data-name="Path 3596" d="M2178.334,1762.448v.891h-.081v-1.053h-.4v1.053h-.081v-.162h-.405v.162h-.081v-.729h-.405v.729h-.081v-1.3h-.405v1.3h-.081v-1.215h-.405v1.215h-.081v-2.106h-.4v2.106h-.081v-.243h-.405v.243h-.081v-.729h-.4v.729h-.081v-2.106h-.405v2.106h-.081v-1.215h-.405v1.215h-.081v-1.053h-.4v1.053h-.081v-.486h-.405v.486h-.081V1761.8h-.405v1.539h-.081v-2.754h-.405v2.754h-.081v-1.053h-.405v1.053h-.081v-.486h-.405v1.215h.405v-.486h.081v1.053h.405v-1.053h.081v2.754h.405v-2.754h.081v1.539h.405v-1.539h.081v.486h.405v-.486h.081v1.053h.4v-1.053h.081v1.215h.405v-1.215h.081v2.106h.405v-2.106h.081v.729h.4v-.729h.081v.243h.405v-.243h.081v2.106h.4v-2.106h.081v1.215h.405v-1.215h.081v1.3h.405v-1.3h.081v.729h.405v-.729h.081v.162h.405v-.162h.081v1.053h.4v-1.053h.081v.891h.324v-2.025Z" transform="translate(-2170.559 -1760.586)" fill="#e60019"/>
            </g>
          </g>
        </g>
        <g id="Group_5935" data-name="Group 5935" transform="translate(4.965 30.315)">
          <g id="Group_5934" data-name="Group 5934">
            <g id="Group_5933" data-name="Group 5933">
              <path id="Path_3597" data-name="Path 3597" d="M1422.021,1752.751v.485h-7.762v-7.762h.485v7.277Zm-.97-7.277-1.91.312.459.561-4.039,3.3.307.375,4.04-3.305.459.561Zm-.528,2.768-.443-.542v4.566h.97v-5.419Zm-3.354,1.348v2.677h.97v-3.47Zm-1.37,1.121-.085-.1v1.66h.97v-2.28Zm2.826-2.312v3.867h.97v-4.661Z" transform="translate(-1414.259 -1745.474)" fill="#e60019"/>
            </g>
          </g>
        </g>
        <g id="Group_5936" data-name="Group 5936">
          <path id="Path_3598" data-name="Path 3598" d="M1373.707,1358.069a34.309,34.309,0,0,1-6.863-.692,33.868,33.868,0,0,1-12.179-5.125,34.156,34.156,0,0,1-12.339-14.984,33.9,33.9,0,0,1-1.985-6.394,34.391,34.391,0,0,1,0-13.726,33.873,33.873,0,0,1,5.125-12.179,34.155,34.155,0,0,1,14.984-12.339,33.882,33.882,0,0,1,6.394-1.985,34.385,34.385,0,0,1,13.726,0,33.878,33.878,0,0,1,12.179,5.125,34.155,34.155,0,0,1,12.339,14.984,33.876,33.876,0,0,1,1.985,6.394,34.385,34.385,0,0,1,0,13.726,33.874,33.874,0,0,1-5.125,12.179,34.158,34.158,0,0,1-14.984,12.339,33.885,33.885,0,0,1-6.394,1.985A34.306,34.306,0,0,1,1373.707,1358.069Zm0-66.95a32.893,32.893,0,1,0,32.893,32.893A32.93,32.93,0,0,0,1373.707,1291.119Z" transform="translate(-1339.649 -1289.954)" fill="#e60019"/>
        </g>
        <g id="Group_5937" data-name="Group 5937" transform="translate(53.13 28.018)">
          <path id="Path_3599" data-name="Path 3599" d="M2150.3,1724.131h-12.312v-13.177H2150.3Zm-11.447-.865h10.582v-11.447h-10.582Z" transform="translate(-2137.987 -1710.954)" fill="#1e4a9b"/>
        </g>
        <g id="Group_5938" data-name="Group 5938" transform="translate(2.916 28.018)">
          <path id="Path_3600" data-name="Path 3600" d="M1395.781,1724.131h-12.312v-13.177h12.312Zm-11.447-.865h10.582v-11.447h-10.582Z" transform="translate(-1383.469 -1710.954)" fill="#1e4a9b"/>
        </g>
        <g id="Group_5941" data-name="Group 5941" transform="translate(7.511 42.151)">
          <g id="Group_5940" data-name="Group 5940">
            <g id="Group_5939" data-name="Group 5939">
              <path id="Path_3601" data-name="Path 3601" d="M1453.712,1923.7l.508,0,.015,1.8-.508,0-.006-.7-.693.006.006.7-.508,0-.016-1.8.508,0,.006.675.693-.006Zm1.572.37a.784.784,0,0,1,.53.153.607.607,0,0,1,.186.483h0l.006.773-.455,0v-.18a.418.418,0,0,1-.409.206h0a.648.648,0,0,1-.28-.054.416.416,0,0,1-.18-.152.4.4,0,0,1-.062-.219h0a.357.357,0,0,1,.149-.308.807.807,0,0,1,.467-.113h0l.277,0q-.014-.221-.3-.219h0a.687.687,0,0,0-.2.034.531.531,0,0,0-.174.09h0l-.167-.33a.914.914,0,0,1,.28-.121,1.336,1.336,0,0,1,.333-.045Zm-.009,1.13a.267.267,0,0,0,.148-.042.228.228,0,0,0,.092-.122h0v-.121h-.211q-.213,0-.212.143h0a.125.125,0,0,0,.05.1.211.211,0,0,0,.134.038Zm1.625-.952a.459.459,0,0,1,.193-.145.736.736,0,0,1,.273-.049h0l0,.439a.853.853,0,0,0-.11-.006h0a.337.337,0,0,0-.245.086.343.343,0,0,0-.087.26h0l0,.639-.488,0-.01-1.392.465,0Zm.806,1.219-.01-1.391.488,0,.01,1.392Zm.233-1.547a.31.31,0,0,1-.216-.073.239.239,0,0,1-.083-.184h0a.239.239,0,0,1,.081-.186.307.307,0,0,1,.215-.076h0a.321.321,0,0,1,.216.069.226.226,0,0,1,.083.18h0a.25.25,0,0,1-.081.192.3.3,0,0,1-.215.077Zm2.118.838s0,.044-.007.121h0l-1.011.006a.282.282,0,0,0,.12.165.4.4,0,0,0,.223.056h0a.475.475,0,0,0,.173-.03.518.518,0,0,0,.147-.093h0l.259.265a.757.757,0,0,1-.592.23h0a.938.938,0,0,1-.429-.09.681.681,0,0,1-.392-.626h0a.7.7,0,0,1,.1-.369.688.688,0,0,1,.272-.257.825.825,0,0,1,.392-.1h0a.824.824,0,0,1,.378.084.65.65,0,0,1,.27.247.729.729,0,0,1,.1.385Zm-.745-.37a.279.279,0,0,0-.188.066.287.287,0,0,0-.095.175h0l.57,0a.289.289,0,0,0-.1-.174.283.283,0,0,0-.189-.063Zm2.129-.337.465,0,.006,1.137a.752.752,0,0,1-.207.583.865.865,0,0,1-.605.2h0a1.544,1.544,0,0,1-.385-.044.9.9,0,0,1-.306-.134h0l.175-.343a.623.623,0,0,0,.215.108.861.861,0,0,0,.255.039h0a.4.4,0,0,0,.282-.087.333.333,0,0,0,.089-.252h0v-.046a.513.513,0,0,1-.412.167h0a.714.714,0,0,1-.342-.082.632.632,0,0,1-.25-.234.671.671,0,0,1-.094-.352h0a.665.665,0,0,1,.09-.351.637.637,0,0,1,.248-.238.715.715,0,0,1,.341-.085h0a.5.5,0,0,1,.438.19h0Zm-.316.934a.307.307,0,0,0,.217-.081.268.268,0,0,0,.085-.206h0a.267.267,0,0,0-.086-.2.31.31,0,0,0-.219-.077h0a.313.313,0,0,0-.219.08.264.264,0,0,0-.085.2h0a.266.266,0,0,0,.089.2.311.311,0,0,0,.218.078Zm2.65-.248s0,.043-.007.121h0l-1.012.006a.283.283,0,0,0,.121.165.4.4,0,0,0,.222.057h0a.491.491,0,0,0,.173-.029.507.507,0,0,0,.147-.094h0l.258.266a.757.757,0,0,1-.592.229h0a.951.951,0,0,1-.429-.09.681.681,0,0,1-.391-.627h0a.7.7,0,0,1,.1-.369.689.689,0,0,1,.272-.257.819.819,0,0,1,.392-.094h0a.824.824,0,0,1,.378.083.654.654,0,0,1,.27.248.733.733,0,0,1,.1.386Zm-.744-.37a.277.277,0,0,0-.188.065.292.292,0,0,0-.1.175h0l.57,0a.29.29,0,0,0-.1-.174.284.284,0,0,0-.189-.063Zm1.1,1.062-.01-1.905.488,0,.01,1.905Zm2.334-.4.94,0,0,.393-1.443.006-.008-1.8,1.41-.006,0,.393-.906,0v.3l.8,0v.38l-.8,0Zm2.232-1.03a.574.574,0,0,1,.418.153.624.624,0,0,1,.16.464h0l0,.8-.488,0,0-.716q0-.285-.229-.284h0a.26.26,0,0,0-.2.083.353.353,0,0,0-.075.246h0l0,.673-.488,0,0-1.392.465,0v.151a.56.56,0,0,1,.2-.13.663.663,0,0,1,.246-.046Zm2.064.017h.465l0,1.137a.751.751,0,0,1-.208.582.864.864,0,0,1-.605.2h0a1.512,1.512,0,0,1-.385-.046.914.914,0,0,1-.306-.135h0l.176-.342a.618.618,0,0,0,.214.108.883.883,0,0,0,.256.039h0a.4.4,0,0,0,.282-.085.333.333,0,0,0,.089-.252h0v-.046a.515.515,0,0,1-.413.165h0a.7.7,0,0,1-.342-.083.637.637,0,0,1-.249-.235.669.669,0,0,1-.094-.353h0a.658.658,0,0,1,.092-.35.629.629,0,0,1,.248-.237.709.709,0,0,1,.341-.085h0a.5.5,0,0,1,.437.191h0Zm-.318.933a.3.3,0,0,0,.216-.08.265.265,0,0,0,.085-.205h0a.264.264,0,0,0-.085-.2.31.31,0,0,0-.218-.078h0a.317.317,0,0,0-.22.079.267.267,0,0,0-.085.2h0a.264.264,0,0,0,.088.2.311.311,0,0,0,.219.079Zm1.23.456,0-1.391h.488l0,1.391Zm.24-1.546a.306.306,0,0,1-.216-.074.236.236,0,0,1-.083-.184h0a.239.239,0,0,1,.082-.186.31.31,0,0,1,.216-.075h0a.319.319,0,0,1,.216.071.228.228,0,0,1,.083.18h0a.251.251,0,0,1-.082.192.3.3,0,0,1-.215.076Zm1.6.128a.571.571,0,0,1,.418.153.623.623,0,0,1,.158.464h0v.8h-.488v-.716q0-.285-.229-.285h0a.259.259,0,0,0-.2.082.353.353,0,0,0-.076.246h0v.673h-.488l0-1.391h.465v.152a.541.541,0,0,1,.194-.13.665.665,0,0,1,.246-.045Zm2.455.717s0,.044-.007.122h-1.012a.283.283,0,0,0,.119.165.4.4,0,0,0,.222.058h0a.481.481,0,0,0,.173-.028.526.526,0,0,0,.148-.093h0l.257.267a.755.755,0,0,1-.593.227h0a.952.952,0,0,1-.429-.092.681.681,0,0,1-.389-.628h0a.7.7,0,0,1,.1-.369.685.685,0,0,1,.273-.255.822.822,0,0,1,.393-.093h0a.826.826,0,0,1,.377.085.657.657,0,0,1,.269.249.726.726,0,0,1,.1.386Zm-.742-.374a.282.282,0,0,0-.189.064.294.294,0,0,0-.1.175h.57a.288.288,0,0,0-.1-.174.283.283,0,0,0-.189-.064Zm2.521.372s0,.044-.008.121h-1.011a.285.285,0,0,0,.12.165.4.4,0,0,0,.222.058h0a.476.476,0,0,0,.173-.028.513.513,0,0,0,.148-.093h0l.257.267a.755.755,0,0,1-.593.227h0a.955.955,0,0,1-.429-.092.683.683,0,0,1-.388-.629h0a.686.686,0,0,1,.372-.624.822.822,0,0,1,.393-.093h0a.821.821,0,0,1,.378.086.656.656,0,0,1,.268.248.732.732,0,0,1,.1.386Zm-.742-.374a.281.281,0,0,0-.188.064.29.29,0,0,0-.1.175h.57a.29.29,0,0,0-.1-.175.282.282,0,0,0-.189-.064Zm1.563-.157a.453.453,0,0,1,.194-.142.732.732,0,0,1,.273-.048h0v.439a1,1,0,0,0-.111-.008h0a.3.3,0,0,0-.334.344h0v.639h-.488v-1.392h.465Zm.8,1.225v-1.392h.488v1.392Zm.244-1.545a.31.31,0,0,1-.216-.074.24.24,0,0,1-.082-.185h0a.24.24,0,0,1,.082-.185.31.31,0,0,1,.216-.074h0a.319.319,0,0,1,.216.071.227.227,0,0,1,.082.181h0a.249.249,0,0,1-.082.191.306.306,0,0,1-.216.076Zm1.6.132a.572.572,0,0,1,.417.154.627.627,0,0,1,.157.465h0v.8h-.488v-.716q0-.285-.229-.285h0a.26.26,0,0,0-.2.082.352.352,0,0,0-.076.247h0v.673h-.488v-1.392h.465v.151a.556.556,0,0,1,.2-.129.659.659,0,0,1,.246-.045Zm2.064.025h.465l0,1.137a.752.752,0,0,1-.211.582.865.865,0,0,1-.606.193h0a1.566,1.566,0,0,1-.385-.047.923.923,0,0,1-.306-.137h0l.178-.341a.626.626,0,0,0,.214.109.862.862,0,0,0,.255.04h0a.4.4,0,0,0,.282-.084.329.329,0,0,0,.09-.251h0v-.046a.514.514,0,0,1-.413.164h0a.714.714,0,0,1-.341-.084.632.632,0,0,1-.249-.237.669.669,0,0,1-.092-.353h0a.669.669,0,0,1,.093-.351.631.631,0,0,1,.249-.236.721.721,0,0,1,.342-.083h0a.5.5,0,0,1,.436.193h0Zm-.322.932a.307.307,0,0,0,.217-.079.267.267,0,0,0,.086-.206h0a.263.263,0,0,0-.084-.2.307.307,0,0,0-.218-.078h0a.31.31,0,0,0-.22.078.266.266,0,0,0-.087.2h0a.265.265,0,0,0,.087.205.314.314,0,0,0,.218.08Zm2.759.5a1.66,1.66,0,0,1-.423-.055,1.034,1.034,0,0,1-.334-.144h0l.167-.374a1.107,1.107,0,0,0,.28.129,1.084,1.084,0,0,0,.313.049h0q.293,0,.293-.146h0a.12.12,0,0,0-.083-.114,1.5,1.5,0,0,0-.268-.079h0a2.61,2.61,0,0,1-.339-.094.571.571,0,0,1-.233-.161.433.433,0,0,1-.1-.3h0a.51.51,0,0,1,.091-.3.6.6,0,0,1,.268-.208,1.1,1.1,0,0,1,.438-.076h0a1.569,1.569,0,0,1,.349.04,1.1,1.1,0,0,1,.3.117h0l-.157.377a1.047,1.047,0,0,0-.5-.14h0a.423.423,0,0,0-.221.044.135.135,0,0,0-.069.117h0a.116.116,0,0,0,.082.108,1.453,1.453,0,0,0,.265.075h0a2.492,2.492,0,0,1,.34.094.592.592,0,0,1,.233.16.426.426,0,0,1,.1.3h0a.5.5,0,0,1-.09.292.61.61,0,0,1-.27.209,1.094,1.094,0,0,1-.437.078Zm1.835-.008a.871.871,0,0,1-.4-.094.687.687,0,0,1-.381-.63h0a.684.684,0,0,1,.383-.624.875.875,0,0,1,.4-.09h0a.883.883,0,0,1,.406.093.677.677,0,0,1,.279.255.688.688,0,0,1,.1.371h0a.7.7,0,0,1-.1.372.687.687,0,0,1-.28.256.874.874,0,0,1-.406.091Zm0-.388a.276.276,0,0,0,.211-.088.348.348,0,0,0,.083-.245h0a.336.336,0,0,0-.082-.241.275.275,0,0,0-.211-.088h0a.276.276,0,0,0-.21.087.342.342,0,0,0-.083.241h0a.345.345,0,0,0,.082.245.274.274,0,0,0,.21.089Zm1.141.368.006-1.905h.488l-.006,1.905Zm1.913-1.385.488,0,0,1.392-.465,0v-.149a.492.492,0,0,1-.185.128.6.6,0,0,1-.229.043h0a.586.586,0,0,1-.429-.161.645.645,0,0,1-.159-.478h0l0-.778h.487l0,.7a.362.362,0,0,0,.058.229.211.211,0,0,0,.172.073h0a.244.244,0,0,0,.189-.08.359.359,0,0,0,.074-.248h0Zm1.767,1,.119.342a.474.474,0,0,1-.15.058.843.843,0,0,1-.189.02h0a.6.6,0,0,1-.418-.135.512.512,0,0,1-.144-.4h0l0-.467h-.2v-.365h.2l0-.362.488,0,0,.362h.319v.365h-.318l0,.462a.164.164,0,0,0,.039.117.139.139,0,0,0,.107.042h0a.256.256,0,0,0,.149-.043Zm.436.4.006-1.392.488,0-.007,1.391Zm.251-1.544a.307.307,0,0,1-.215-.076.237.237,0,0,1-.081-.185h0a.241.241,0,0,1,.083-.185.31.31,0,0,1,.216-.073h0a.317.317,0,0,1,.215.072.226.226,0,0,1,.082.181h0a.25.25,0,0,1-.083.191.307.307,0,0,1-.216.075Zm1.381,1.575a.869.869,0,0,1-.4-.094.688.688,0,0,1-.379-.631h0a.686.686,0,0,1,.384-.623.885.885,0,0,1,.405-.089h0a.884.884,0,0,1,.405.093.68.68,0,0,1,.377.627h0a.7.7,0,0,1-.1.372.682.682,0,0,1-.281.255.871.871,0,0,1-.406.09Zm0-.388a.273.273,0,0,0,.21-.087.346.346,0,0,0,.083-.245h0a.34.34,0,0,0-.081-.242.275.275,0,0,0-.21-.089h0a.276.276,0,0,0-.211.087.336.336,0,0,0-.083.241h0a.348.348,0,0,0,.081.246.276.276,0,0,0,.211.089Zm2.054-1.039a.573.573,0,0,1,.416.156.621.621,0,0,1,.155.465h0l0,.8-.488,0,0-.717q0-.285-.227-.286h0a.263.263,0,0,0-.2.081.358.358,0,0,0-.077.247h0l0,.673-.488,0,.008-1.392.465,0v.152a.555.555,0,0,1,.2-.128.659.659,0,0,1,.247-.044Zm2.285,1.429.009-1.394-.552,0,0-.4,1.61.011,0,.4-.549,0-.009,1.394Zm2.64-.675s0,.044-.008.121h0l-1.012-.007a.285.285,0,0,0,.118.167.4.4,0,0,0,.222.059h0a.487.487,0,0,0,.173-.027.512.512,0,0,0,.148-.091h0l.255.269a.756.756,0,0,1-.594.221h0a.937.937,0,0,1-.428-.095.679.679,0,0,1-.383-.632h0a.687.687,0,0,1,.376-.621.823.823,0,0,1,.393-.089h0a.822.822,0,0,1,.377.089.658.658,0,0,1,.267.251.727.727,0,0,1,.1.387Zm-.739-.38a.279.279,0,0,0-.189.063.288.288,0,0,0-.1.174h0l.57,0a.291.291,0,0,0-.095-.175.28.28,0,0,0-.188-.065Zm1.655-.334a.784.784,0,0,1,.527.162.606.606,0,0,1,.179.485h0l-.006.773-.454,0v-.18a.419.419,0,0,1-.412.2h0a.643.643,0,0,1-.28-.059.413.413,0,0,1-.177-.154.4.4,0,0,1-.058-.219h0a.357.357,0,0,1,.154-.306.809.809,0,0,1,.469-.105h0l.277,0q-.012-.221-.294-.223h0a.656.656,0,0,0-.2.03.546.546,0,0,0-.175.087h0l-.162-.333a.923.923,0,0,1,.282-.117,1.348,1.348,0,0,1,.333-.04Zm-.027,1.129a.272.272,0,0,0,.149-.04.23.23,0,0,0,.093-.12h0v-.121h-.211q-.213,0-.214.14h0a.124.124,0,0,0,.048.1.21.21,0,0,0,.133.039Zm2.99-1.105a.551.551,0,0,1,.408.157.635.635,0,0,1,.149.466h0l-.006.8-.488,0,.006-.717a.346.346,0,0,0-.053-.216.186.186,0,0,0-.155-.071h0a.222.222,0,0,0-.178.076.349.349,0,0,0-.069.233h0l-.006.691-.488,0,.006-.717q0-.285-.208-.286h0a.225.225,0,0,0-.18.075.35.35,0,0,0-.069.233h0l-.006.691-.488,0,.012-1.392.465,0v.146a.488.488,0,0,1,.185-.125.622.622,0,0,1,.233-.04h0a.6.6,0,0,1,.262.056.442.442,0,0,1,.186.166h0a.539.539,0,0,1,.21-.16.665.665,0,0,1,.275-.054Z" transform="translate(-1452.51 -1923.322)" fill="#e60019"/>
            </g>
          </g>
        </g>
      </g>
    </g>
  </g>
</svg>
