<svg xmlns="http://www.w3.org/2000/svg" width="102.709" height="40.239" viewBox="0 0 102.709 40.239">
  <g id="Group_6447" data-name="Group 6447" transform="translate(409.855 -6494.835)">
    <g id="Group_6441" data-name="Group 6441" transform="translate(2910.145 28.835)">
      <g id="Group_5942" data-name="Group 5942" transform="translate(-3320 6466)">
        <g id="Component_22_52" data-name="Component 22 – 52" transform="translate(45.739 12.329)">
          <g id="Group" transform="translate(0)">
            <path id="Path_3827" data-name="Path 3827" d="M.805-8.657a7.984,7.984,0,0,1,.96-3.93,6.967,6.967,0,0,1,2.621-2.705,7.258,7.258,0,0,1,3.726-.969,7.167,7.167,0,0,1,4.232,1.278,6.669,6.669,0,0,1,2.539,3.536H11.559a3.517,3.517,0,0,0-1.393-1.6,3.989,3.989,0,0,0-2.074-.533,4.167,4.167,0,0,0-2.24.607,4.1,4.1,0,0,0-1.527,1.715,5.8,5.8,0,0,0-.547,2.6,5.821,5.821,0,0,0,.547,2.588A4.083,4.083,0,0,0,5.852-4.344a4.167,4.167,0,0,0,2.24.607,3.929,3.929,0,0,0,2.074-.543,3.582,3.582,0,0,0,1.393-1.608h3.323a6.635,6.635,0,0,1-2.529,3.546A7.2,7.2,0,0,1,8.112-1.074a7.258,7.258,0,0,1-3.726-.969A6.987,6.987,0,0,1,1.765-4.738,7.924,7.924,0,0,1,.805-8.657Zm28.506-7.412V-1.2h-2.89V-7.528H20.249V-1.2h-2.89V-16.069h2.89v6.113h6.172v-6.113Zm5.738,0V-1.2h-2.89V-16.069Zm5.738,2.407v3.728h4.851v2.364H40.788V-3.63h5.47V-1.2H37.9V-16.091h8.36v2.428Zm16.988-2.407v2.407H51.769V-9.85h4.6v2.364h-4.6V-1.2h-2.89V-16.069Z" transform="translate(-0.805 16.261)" fill="#8f9ec7"/>
          </g>
        </g>
        <g id="Group_5926" data-name="Group 5926" transform="translate(0 0)">
          <g id="Group_5927" data-name="Group 5927" transform="translate(1.282 1.34)">
            <g id="Group_5926-2" data-name="Group 5926" transform="translate(0 0)">
              <path id="Path_3591" data-name="Path 3591" d="M1386.362,1758.241s-1.181-1.5-7.134-1.812l-3.675-.688s-3.808.168-3.182,4.491c0,0,1.313,8.766,8.12,12.17,0,0,6.323,4.466,10.144-3.515,0,0-1.293-4.4-1.069-6.718C1389.567,1762.171,1387.5,1762.114,1386.362,1758.241Zm1.868,4.657c.369.841-.685,1.449-.685,1.449-1.04.835.745,3.665.745,3.665.981,3.062-2.763,3.988-2.763,3.988-1.382.849-2.1.223-2.1.223-.267-.665,1.06-2.017,1.06-2.017a1.992,1.992,0,0,0,.336-3.473c-1.345-2.736,1.806-3.969,1.806-3.969,1.5-.858,1.6.141,1.6.141Z" transform="translate(-1372.302 -1738.767)" fill="#6d86c2"/>
              <path id="Path_3592" data-name="Path 3592" d="M1557.442,1338.114s1.876-.368,4.862-5.527l2.286-2.96s1.581-3.464-2.549-4.877c0,0-8.4-2.82-14.532,1.688,0,0-6.855,3.6-1.488,10.634,0,0,4.509.852,6.467,2.107C1552.484,1339.177,1553.475,1337.366,1557.442,1338.114Zm-5-.456c-.916-.055-.979-1.27-.979-1.27-.269-1.3-3.6-1.006-3.6-1.006-3.174-.521-2.293-4.277-2.293-4.277-.127-1.617.756-1.967.756-1.967.714.065,1.314,1.861,1.314,1.861a1.991,1.991,0,0,0,2.937,1.881c3.048.048,2.713,3.415,2.713,3.415.088,1.718-.846,1.359-.846,1.359Z" transform="translate(-1537.214 -1323.878)" fill="#6d86c2"/>
              <path id="Path_3593" data-name="Path 3593" d="M1910.292,1703.088s-.838,1.719,1.477,7.212l.981,3.607s1.809,3.352,5.429.908c0,0,7.315-5,7.417-12.609,0,0,1.264-7.638-7.584-7.6,0,0-3.4,3.082-5.582,3.888C1912.433,1698.5,1913.281,1700.379,1910.292,1703.088Zm3.377-3.71c.6-.7,1.6-.015,1.6-.015,1.2.575,2.976-2.269,2.976-2.269,2.33-2.216,4.794.752,4.794.752,1.365.874,1.112,1.789,1.112,1.789-.483.53-2.277-.076-2.277-.076a1.991,1.991,0,0,0-3.272,1.211c-1.877,2.4-4.359.1-4.359.1-1.425-.967-.577-1.492-.577-1.492Z" transform="translate(-1888.999 -1680.033)" fill="#6d86c2"/>
              <path id="Path_3594" data-name="Path 3594" d="M1768.508,1724a3.075,3.075,0,1,1-1.125,4.2A3.075,3.075,0,0,1,1768.508,1724Z" transform="translate(-1751.456 -1707.871)" fill="#6d86c2"/>
            </g>
          </g>
          <rect id="Rectangle_1496" data-name="Rectangle 1496" width="22.461" height="7.784" transform="translate(8.923 16.556)" fill="#e60019"/>
          <g id="Group_5929" data-name="Group 5929" transform="translate(9.62 18.232)">
            <g id="Group_5928" data-name="Group 5928" transform="translate(0 0)">
              <path id="Path_3595" data-name="Path 3595" d="M1587.3,1753.83h.989v4.272h-.989v-1.752h-1.94v1.752h-.989v-4.272h.989v1.684h1.94Zm2.294,4.321a.584.584,0,0,1-.592-.6h0a.558.558,0,0,1,.171-.424.589.589,0,0,1,.421-.162h0a.59.59,0,0,1,.421.162.557.557,0,0,1,.171.424h0a.585.585,0,0,1-.592.6Zm2.288-.842h2.325v.79h-3.305v-4.272h3.228v.79h-2.246v.928h1.983v.769h-1.983Zm3.466.842a.584.584,0,0,1-.592-.6h0a.557.557,0,0,1,.171-.424.59.59,0,0,1,.421-.162h0a.59.59,0,0,1,.421.162.556.556,0,0,1,.171.424h0a.585.585,0,0,1-.592.6Zm2.71.024a3.5,3.5,0,0,1-.979-.137,2.3,2.3,0,0,1-.759-.359h0l.335-.745a2.279,2.279,0,0,0,.653.323,2.449,2.449,0,0,0,.757.122h0a1.21,1.21,0,0,0,.622-.125.378.378,0,0,0,.2-.333h0a.319.319,0,0,0-.119-.254.9.9,0,0,0-.305-.162q-.186-.061-.5-.135h0a6.941,6.941,0,0,1-.8-.232,1.3,1.3,0,0,1-.534-.372,1.006,1.006,0,0,1-.223-.683h0a1.188,1.188,0,0,1,.2-.674,1.354,1.354,0,0,1,.607-.479,2.476,2.476,0,0,1,.992-.177h0a3.265,3.265,0,0,1,.8.1,2.369,2.369,0,0,1,.683.281h0l-.305.751a2.38,2.38,0,0,0-1.184-.336h0a1.111,1.111,0,0,0-.614.134.411.411,0,0,0-.2.354h0a.346.346,0,0,0,.229.326,3.6,3.6,0,0,0,.7.21h0a6.925,6.925,0,0,1,.8.232,1.323,1.323,0,0,1,.534.367.98.98,0,0,1,.223.677h0a1.168,1.168,0,0,1-.2.668,1.374,1.374,0,0,1-.614.479,2.5,2.5,0,0,1-.995.177Zm2.9-.024a.575.575,0,0,1-.421-.171.581.581,0,0,1-.171-.427h0a.558.558,0,0,1,.171-.424.589.589,0,0,1,.421-.162h0a.589.589,0,0,1,.421.162.556.556,0,0,1,.171.424h0a.585.585,0,0,1-.592.6Zm2.191-.049v-3.466h-1.365v-.806h3.723v.806h-1.365v3.466Z" transform="translate(-1584.374 -1753.754)" fill="#1e4a9b"/>
            </g>
          </g>
          <g id="Group_5932" data-name="Group 5932" transform="translate(32.663 18.509)">
            <g id="Group_5931" data-name="Group 5931" transform="translate(0 0)">
              <g id="Group_5930" data-name="Group 5930">
                <path id="Path_3596" data-name="Path 3596" d="M2175.15,1761.689v.526h-.048v-.622h-.239v.622h-.048v-.1h-.239v.1h-.048v-.431h-.239v.431h-.047v-.765H2174v.765h-.048v-.719h-.239v.719h-.048v-1.244h-.239v1.244h-.048v-.144h-.239v.144h-.048v-.431h-.24v.431h-.048v-1.244h-.239v1.244h-.048v-.719h-.24v.719h-.048v-.622h-.239v.622h-.048v-.287h-.24v.287h-.048v-.909h-.239v.909h-.047v-1.627h-.24v1.627h-.048v-.622h-.239v.622h-.047v-.287h-.239v.719h.239v-.287h.047v.622h.239v-.622h.048v1.627h.24v-1.627h.047v.909h.239v-.909h.048v.287h.24v-.287h.048v.622h.239v-.622h.048v.718h.24v-.718h.048v1.244h.239v-1.244h.048v.431h.24v-.431h.048v.144h.239v-.144h.048v1.244h.239v-1.244h.048v.718h.239v-.718H2174v.766h.239v-.766h.047v.431h.239v-.431h.048v.1h.239v-.1h.048v.622h.239v-.622h.048v.527h.191v-1.2Z" transform="translate(-2170.554 -1760.588)" fill="#e60019"/>
              </g>
            </g>
          </g>
          <g id="Group_5935" data-name="Group 5935" transform="translate(2.931 17.914)">
            <g id="Group_5934" data-name="Group 5934" transform="translate(0 0)">
              <g id="Group_5933" data-name="Group 5933">
                <path id="Path_3597" data-name="Path 3597" d="M1418.844,1749.776v.287h-4.586v-4.586h.288v4.3Zm-.575-4.3-1.128.185.271.332-2.386,1.952.181.222,2.386-1.952.271.331Zm-.312,1.635-.262-.32v2.7h.575v-3.206Zm-1.981.8v1.581h.575v-2.05Zm-.81.663-.05-.062v.981h.575v-1.347Zm1.669-1.365v2.284h.575v-2.753Z" transform="translate(-1414.258 -1745.477)" fill="#e60019"/>
              </g>
            </g>
          </g>
          <g id="Group_5936" data-name="Group 5936">
            <path id="Path_3598" data-name="Path 3598" d="M1359.769,1330.188a20.261,20.261,0,0,1-4.058-.41,20.113,20.113,0,0,1-15.652-15.656,20.315,20.315,0,0,1,0-8.109,20.116,20.116,0,0,1,15.656-15.656,20.312,20.312,0,0,1,8.109,0,20.112,20.112,0,0,1,15.656,15.656,20.315,20.315,0,0,1,0,8.109,20.111,20.111,0,0,1-15.656,15.656A20.248,20.248,0,0,1,1359.769,1330.188Zm0-39.549a19.431,19.431,0,1,0,19.431,19.431,19.431,19.431,0,0,0-19.431-19.431Z" transform="translate(-1339.65 -1289.948)" fill="#e60019"/>
          </g>
          <g id="Group_5937" data-name="Group 5937" transform="translate(31.385 16.558)">
            <path id="Path_3599" data-name="Path 3599" d="M2145.261,1718.741h-7.273v-7.784h7.273Zm-6.762-.511h6.251v-6.762H2138.5Z" transform="translate(-2137.988 -1710.957)" fill="#1e4a9b"/>
          </g>
          <g id="Group_5938" data-name="Group 5938" transform="translate(1.721 16.558)">
            <path id="Path_3600" data-name="Path 3600" d="M1390.741,1718.741h-7.273v-7.784h7.273Zm-6.762-.511h6.251v-6.762h-6.251Z" transform="translate(-1383.468 -1710.957)" fill="#1e4a9b"/>
          </g>
          <g id="Group_5941" data-name="Group 5941" transform="translate(4.438 24.91)">
            <g id="Group_5940" data-name="Group 5940" transform="translate(0 0)">
              <g id="Group_5939" data-name="Group 5939">
                <path id="Path_3601" data-name="Path 3601" d="M1453.222,1923.546h.3l.009,1.062h-.3l0-.414h-.409l0,.414h-.3l-.009-1.062h.3v.4h.409Zm.928.216a.463.463,0,0,1,.313.09.359.359,0,0,1,.11.288h0v.456h-.269v-.106a.247.247,0,0,1-.242.121h0a.379.379,0,0,1-.165-.032.233.233,0,0,1-.143-.219h0a.211.211,0,0,1,.088-.182.477.477,0,0,1,.276-.067h.164q-.008-.13-.175-.13h0a.41.41,0,0,0-.119.02.311.311,0,0,0-.1.053h0l-.1-.195a.54.54,0,0,1,.165-.072.794.794,0,0,1,.2-.027Zm-.006.667a.157.157,0,0,0,.088-.025.135.135,0,0,0,.054-.072h0v-.072h-.124q-.125,0-.125.085h0a.072.072,0,0,0,.029.06.125.125,0,0,0,.079.023Zm.96-.562a.271.271,0,0,1,.114-.086.431.431,0,0,1,.161-.03h0v.26a.529.529,0,0,0-.065,0h0a.2.2,0,0,0-.144.051.2.2,0,0,0-.051.154h0v.378h-.287l-.006-.822h.274Zm.476.719-.006-.822h.288l.006.822Zm.138-.914a.184.184,0,0,1-.128-.043.145.145,0,0,1-.049-.109h0a.144.144,0,0,1,.048-.109.182.182,0,0,1,.127-.045h0a.19.19,0,0,1,.128.041.135.135,0,0,1,.049.106h0a.148.148,0,0,1-.047.114.18.18,0,0,1-.127.045Zm1.251.495s0,.026,0,.072h0l-.6,0a.168.168,0,0,0,.072.1.237.237,0,0,0,.131.033h0a.279.279,0,0,0,.1-.017.3.3,0,0,0,.087-.055h0l.153.157a.447.447,0,0,1-.349.136h0a.557.557,0,0,1-.254-.053.4.4,0,0,1-.232-.37h0a.414.414,0,0,1,.057-.216.407.407,0,0,1,.161-.152.486.486,0,0,1,.232-.056h0a.487.487,0,0,1,.223.049.386.386,0,0,1,.16.144.435.435,0,0,1,.059.228Zm-.44-.215a.163.163,0,0,0-.111.039.168.168,0,0,0-.056.1h.337a.172.172,0,0,0-.057-.1.168.168,0,0,0-.112-.037Zm1.258-.2h.274l0,.672a.444.444,0,0,1-.122.344.511.511,0,0,1-.359.116h0a.922.922,0,0,1-.228-.026.534.534,0,0,1-.181-.079h0l.1-.2a.37.37,0,0,0,.127.064.517.517,0,0,0,.151.023h0a.238.238,0,0,0,.167-.051.2.2,0,0,0,.052-.149h0v-.027a.3.3,0,0,1-.244.1h0a.422.422,0,0,1-.2-.048.372.372,0,0,1-.148-.139.4.4,0,0,1-.056-.208h0a.394.394,0,0,1,.053-.207.376.376,0,0,1,.144-.144.422.422,0,0,1,.2-.05h0a.3.3,0,0,1,.259.112h0Zm-.187.552a.183.183,0,0,0,.128-.047.159.159,0,0,0,.05-.122h0a.158.158,0,0,0-.051-.12.183.183,0,0,0-.129-.045h0a.184.184,0,0,0-.129.047.156.156,0,0,0-.05.121h0a.156.156,0,0,0,.052.121.184.184,0,0,0,.129.046Zm1.566-.144s0,.026,0,.072h-.6a.167.167,0,0,0,.072.1.235.235,0,0,0,.132.034h0a.286.286,0,0,0,.1-.017.294.294,0,0,0,.087-.055h0l.152.157a.447.447,0,0,1-.35.135h0a.562.562,0,0,1-.254-.053.4.4,0,0,1-.231-.371h0a.413.413,0,0,1,.057-.215.408.408,0,0,1,.161-.152.489.489,0,0,1,.231-.056h0a.488.488,0,0,1,.224.05.386.386,0,0,1,.16.144.431.431,0,0,1,.06.228Zm-.44-.216a.163.163,0,0,0-.111.038.172.172,0,0,0-.057.1h.337a.171.171,0,0,0-.057-.1.167.167,0,0,0-.112-.037Zm.652.627-.006-1.125h.287l.006,1.125Zm1.379-.239h.555v.232h-.852l0-1.062h.833v.232h-.535v.179h.471v.224h-.472Zm1.318-.609a.339.339,0,0,1,.247.09.369.369,0,0,1,.094.274h0v.47h-.287v-.423q0-.168-.135-.168h0a.153.153,0,0,0-.119.049.21.21,0,0,0-.045.144h0v.4h-.287v-.822h.274v.09a.332.332,0,0,1,.116-.077.39.39,0,0,1,.144-.027Zm1.222.01h.275v.672a.445.445,0,0,1-.123.344.51.51,0,0,1-.359.116h0a.906.906,0,0,1-.228-.027.537.537,0,0,1-.181-.08h0l.1-.2a.363.363,0,0,0,.126.064.514.514,0,0,0,.151.023h0a.235.235,0,0,0,.166-.05.2.2,0,0,0,.052-.149h0v-.027a.305.305,0,0,1-.244.1h0a.418.418,0,0,1-.2-.049.376.376,0,0,1-.147-.139.4.4,0,0,1-.056-.208h0a.391.391,0,0,1,.054-.207.372.372,0,0,1,.143-.14.42.42,0,0,1,.2-.051h0a.3.3,0,0,1,.258.113h0Zm-.187.551a.179.179,0,0,0,.128-.047.156.156,0,0,0,.05-.121h0a.156.156,0,0,0-.05-.121.185.185,0,0,0-.129-.046h0a.186.186,0,0,0-.13.047.158.158,0,0,0-.05.121h0a.156.156,0,0,0,.052.121.184.184,0,0,0,.129.047Zm.726.27v-.822h.287v.822Zm.144-.913a.181.181,0,0,1-.127-.044.144.144,0,0,1-.049-.108h0a.144.144,0,0,1,.048-.109.183.183,0,0,1,.127-.044h0a.188.188,0,0,1,.127.042.134.134,0,0,1,.049.106h0a.147.147,0,0,1-.049.114.179.179,0,0,1-.127.044Zm.943.075a.338.338,0,0,1,.247.09.37.37,0,0,1,.094.275h0v.47h-.288v-.423q0-.168-.136-.168h0a.153.153,0,0,0-.119.049.209.209,0,0,0-.044.144h0v.4h-.288v-.822h.275v.083a.32.32,0,0,1,.115-.077.4.4,0,0,1,.143-.027Zm1.45.424s0,.026,0,.072h-.6a.168.168,0,0,0,.072.1.237.237,0,0,0,.132.034h0a.3.3,0,0,0,.1-.016.313.313,0,0,0,.087-.055h0l.152.157a.446.446,0,0,1-.35.134h0a.565.565,0,0,1-.254-.055.406.406,0,0,1-.169-.152.412.412,0,0,1-.06-.22h0a.414.414,0,0,1,.058-.216.4.4,0,0,1,.161-.151.489.489,0,0,1,.232-.055h0a.489.489,0,0,1,.223.05.389.389,0,0,1,.159.144.436.436,0,0,1,.058.228Zm-.438-.221a.166.166,0,0,0-.111.038.175.175,0,0,0-.057.1h.337a.168.168,0,0,0-.057-.1.165.165,0,0,0-.111-.038Zm1.489.22s0,.026,0,.072h-.6a.17.17,0,0,0,.072.1.235.235,0,0,0,.131.034h0a.278.278,0,0,0,.1-.016.307.307,0,0,0,.087-.055h0l.152.157a.446.446,0,0,1-.351.134h0a.565.565,0,0,1-.254-.054.4.4,0,0,1-.229-.371h0a.4.4,0,0,1,.22-.369.489.489,0,0,1,.232-.055h0a.486.486,0,0,1,.223.051.39.39,0,0,1,.158.144.432.432,0,0,1,.058.229Zm-.438-.221a.166.166,0,0,0-.111.038.173.173,0,0,0-.057.1h.337a.171.171,0,0,0-.057-.1.169.169,0,0,0-.111-.038Zm.923-.093a.27.27,0,0,1,.115-.084.433.433,0,0,1,.161-.028h0v.259a.584.584,0,0,0-.065,0h0a.2.2,0,0,0-.144.05.2.2,0,0,0-.052.153h0v.378h-.287v-.822h.274Zm.471.724v-.822h.287v.822Zm.144-.913a.185.185,0,0,1-.127-.044.144.144,0,0,1-.049-.109h0a.145.145,0,0,1,.049-.109.183.183,0,0,1,.127-.044h0a.188.188,0,0,1,.127.042.134.134,0,0,1,.049.107h0a.143.143,0,0,1-.049.113.18.18,0,0,1-.127.045Zm.943.078a.338.338,0,0,1,.246.091.371.371,0,0,1,.093.275h0v.47h-.288v-.423q0-.168-.135-.168h0a.153.153,0,0,0-.119.049.208.208,0,0,0-.045.144h0v.4h-.287v-.822h.274v.084a.325.325,0,0,1,.115-.076.389.389,0,0,1,.144-.027Zm1.221.015h.274v.672a.442.442,0,0,1-.125.344.51.51,0,0,1-.359.114h0a.92.92,0,0,1-.228-.028.549.549,0,0,1-.18-.081h0l.105-.2a.367.367,0,0,0,.126.065.506.506,0,0,0,.151.024h0a.234.234,0,0,0,.167-.05.194.194,0,0,0,.053-.149h0v-.027a.3.3,0,0,1-.244.1h0a.424.424,0,0,1-.2-.05.374.374,0,0,1-.143-.14.392.392,0,0,1-.055-.208h0a.393.393,0,0,1,.055-.207.376.376,0,0,1,.144-.139.424.424,0,0,1,.2-.05h0a.3.3,0,0,1,.257.114h0Zm-.19.55a.181.181,0,0,0,.128-.047.157.157,0,0,0,.051-.121h0a.155.155,0,0,0-.049-.121.181.181,0,0,0-.129-.046h0a.185.185,0,0,0-.13.046.158.158,0,0,0-.051.121h0a.158.158,0,0,0,.052.121.186.186,0,0,0,.129.047Zm1.63.3a.975.975,0,0,1-.25-.032.608.608,0,0,1-.2-.085h0l.1-.221a.647.647,0,0,0,.165.076.621.621,0,0,0,.185.03h0c.116,0,.173-.029.173-.086h0a.072.072,0,0,0-.049-.067.877.877,0,0,0-.159-.047h0a1.586,1.586,0,0,1-.2-.056.333.333,0,0,1-.137-.095.255.255,0,0,1-.057-.176h0a.3.3,0,0,1,.053-.175.352.352,0,0,1,.159-.123.645.645,0,0,1,.258-.045h0a.927.927,0,0,1,.206.023.646.646,0,0,1,.178.072h0l-.093.223a.618.618,0,0,0-.294-.082h0a.251.251,0,0,0-.131.026.08.08,0,0,0-.041.072h0a.072.072,0,0,0,.048.064.87.87,0,0,0,.157.045h0a1.517,1.517,0,0,1,.2.056.349.349,0,0,1,.138.094.253.253,0,0,1,.058.176h0a.294.294,0,0,1-.053.172.358.358,0,0,1-.16.123.644.644,0,0,1-.258.046Zm1.084-.005a.516.516,0,0,1-.238-.055.406.406,0,0,1-.225-.372h0a.4.4,0,0,1,.226-.369.522.522,0,0,1,.239-.053h0a.522.522,0,0,1,.239.055.4.4,0,0,1,.165.15.408.408,0,0,1,.059.216h0a.414.414,0,0,1-.06.22.407.407,0,0,1-.166.152.517.517,0,0,1-.24.054Zm0-.229a.163.163,0,0,0,.125-.052.206.206,0,0,0,.049-.144h0a.2.2,0,0,0-.048-.144.163.163,0,0,0-.124-.052h0a.162.162,0,0,0-.124.051.2.2,0,0,0-.049.144h0a.2.2,0,0,0,.048.144.161.161,0,0,0,.124.052Zm.674.216v-1.125h.288v1.125Zm1.13-.819h.287v.822h-.274v-.088a.294.294,0,0,1-.109.072.351.351,0,0,1-.135.025h0a.346.346,0,0,1-.254-.095.381.381,0,0,1-.093-.282h0v-.46h.287v.412a.216.216,0,0,0,.034.135.125.125,0,0,0,.1.043h0a.144.144,0,0,0,.111-.047.215.215,0,0,0,.044-.144h0Zm1.044.591.072.2a.279.279,0,0,1-.088.034.51.51,0,0,1-.112.012h0a.355.355,0,0,1-.247-.08.3.3,0,0,1-.086-.236h0v-.276h-.12v-.216h.12v-.215h.288v.215h.188v.216h-.188v.273a.1.1,0,0,0,.023.072.082.082,0,0,0,.063.025h0a.152.152,0,0,0,.088-.025Zm.257.236,0-.822h.287l0,.822Zm.148-.912a.181.181,0,0,1-.127-.045.139.139,0,0,1-.048-.109h0a.144.144,0,0,1,.049-.109.182.182,0,0,1,.128-.043h0a.188.188,0,0,1,.127.042.133.133,0,0,1,.048.107h0a.148.148,0,0,1-.049.113.183.183,0,0,1-.128.044Zm.816.931a.512.512,0,0,1-.238-.056.406.406,0,0,1-.224-.373h0a.405.405,0,0,1,.227-.368.523.523,0,0,1,.239-.052h0a.526.526,0,0,1,.239.055.4.4,0,0,1,.223.371h0a.41.41,0,0,1-.06.22.405.405,0,0,1-.166.151.513.513,0,0,1-.239.053Zm0-.229a.16.16,0,0,0,.124-.052.2.2,0,0,0,.05-.144h0a.2.2,0,0,0-.048-.144.162.162,0,0,0-.123-.052h0a.163.163,0,0,0-.125.051.2.2,0,0,0-.05.144h0a.207.207,0,0,0,.048.144.163.163,0,0,0,.124.052Zm1.214-.614a.338.338,0,0,1,.246.093.367.367,0,0,1,.092.275h0v.47h-.287v-.423q0-.168-.134-.169h0a.155.155,0,0,0-.119.047.209.209,0,0,0-.045.144h0v.4h-.288l0-.822h.274v.09a.33.33,0,0,1,.116-.076.391.391,0,0,1,.144-.026Zm1.349.844.005-.823h-.326v-.238l.951.007v.238h-.324l-.006.823Zm1.559-.4s0,.026,0,.072h0l-.6,0a.169.169,0,0,0,.072.1.237.237,0,0,0,.132.036h0a.279.279,0,0,0,.1-.016.294.294,0,0,0,.087-.054h0l.15.159a.448.448,0,0,1-.351.13h0a.553.553,0,0,1-.253-.056.4.4,0,0,1-.226-.374h0a.4.4,0,0,1,.222-.365.488.488,0,0,1,.232-.052h0a.484.484,0,0,1,.223.052.39.39,0,0,1,.157.148.429.429,0,0,1,.057.229Zm-.436-.224a.165.165,0,0,0-.112.037.17.17,0,0,0-.057.1h.337a.172.172,0,0,0-.056-.1.165.165,0,0,0-.111-.039Zm.978-.2a.464.464,0,0,1,.312.1.358.358,0,0,1,.106.287h0v.456h-.269v-.106a.247.247,0,0,1-.243.118h0a.376.376,0,0,1-.165-.035.243.243,0,0,1-.1-.091.233.233,0,0,1-.034-.129h0a.21.21,0,0,1,.09-.181.478.478,0,0,1,.277-.063h.164q-.007-.131-.174-.131h0a.384.384,0,0,0-.12.018.324.324,0,0,0-.1.052h0l-.1-.2a.54.54,0,0,1,.167-.072.787.787,0,0,1,.2-.024Zm-.016.667a.161.161,0,0,0,.089-.024.136.136,0,0,0,.055-.072h0v-.072h-.124q-.126,0-.127.083h0a.071.071,0,0,0,.029.061.122.122,0,0,0,.078.023Zm1.766-.653a.326.326,0,0,1,.241.093.374.374,0,0,1,.089.275h0l0,.47h-.287v-.423a.2.2,0,0,0-.032-.128.109.109,0,0,0-.091-.042h0a.13.13,0,0,0-.1.045.207.207,0,0,0-.041.138h0v.408h-.287v-.423c0-.112-.041-.168-.123-.169h0a.132.132,0,0,0-.106.044.208.208,0,0,0-.041.138h0v.408h-.288l.007-.822h.274v.086a.289.289,0,0,1,.109-.072.372.372,0,0,1,.137-.024h0a.358.358,0,0,1,.154.033.26.26,0,0,1,.11.1h0a.317.317,0,0,1,.124-.095.4.4,0,0,1,.163-.032Z" transform="translate(-1452.512 -1923.331)" fill="#e60019"/>
              </g>
            </g>
          </g>
        </g>
      </g>
    </g>
  </g>
</svg>
