<svg xmlns="http://www.w3.org/2000/svg" width="17.145" height="11.858" viewBox="0 0 17.145 11.858">
  <g id="Group_5579" data-name="Group 5579" transform="translate(-16 -26)">
    <path id="Path_3090" data-name="Path 3090" d="M33.119,27.536A1.542,1.542,0,0,0,31.584,26H17.536A1.542,1.542,0,0,0,16,27.536v8.786a1.542,1.542,0,0,0,1.536,1.536H31.609a1.542,1.542,0,0,0,1.536-1.536V27.536Zm-15.584-.529H31.609c.076,0,.126.025.2.025l-6.948,5.186a.571.571,0,0,1-.629,0l-6.9-5.186C17.385,27.032,17.46,27.007,17.536,27.007ZM32.112,36.3a.532.532,0,0,1-.529.529H17.536a.532.532,0,0,1-.529-.529V28.064l6.646,4.96a1.508,1.508,0,0,0,.906.3,1.456,1.456,0,0,0,.906-.3l6.646-4.96Z" transform="translate(0 0)" fill="#103bb5"/>
  </g>
</svg>
