<svg xmlns="http://www.w3.org/2000/svg" width="25.306" height="16.424" viewBox="0 0 25.306 16.424">
  <g id="Group_5311" data-name="Group 5311" transform="translate(-364 -30.104)">
    <path id="Path_1715" data-name="Path 1715" d="M.975,0H24.331a.975.975,0,0,1,0,1.95H.975A.975.975,0,0,1,.975,0Z" transform="translate(364 30.104)" fill="#fff"/>
    <path id="Path_1716" data-name="Path 1716" d="M.975,0H15.285a.975.975,0,0,1,0,1.95H.975A.975.975,0,0,1,.975,0Z" transform="translate(368.805 37.34)" fill="#fff"/>
    <path id="Path_1717" data-name="Path 1717" d="M.975,0H24.331a.975.975,0,0,1,0,1.95H.975A.975.975,0,0,1,.975,0Z" transform="translate(364 44.577)" fill="#fff"/>
  </g>
</svg>
