<svg width="48" height="48" xmlns="http://www.w3.org/2000/svg">

 <g>
  <title>background</title>
  <rect fill="none" id="canvas_background" height="402" width="582" y="-1" x="-1"/>
 </g>
 <g>
  <title>Layer 1</title>
  <path id="svg_2" fill="#F4F4F4" d="m-8.571881,15.255236c-2.02119,1.16029 -4.41312,1.75142 -6.95133,1.54892c-5.60281,-0.44698 -10.246,-4.86713 -10.93402,-10.44548c-0.96609,-7.83286 5.63094,-14.42033 13.46651,-13.43782c5.44026,0.68216 9.79877,5.12997 10.38719,10.58117c0.31703,2.937 -0.43073,5.68612 -1.89043,7.90987c-0.05619,0.08561 -0.08127,0.18688 -0.06976,0.28864l0.4722,4.17286l-4.17938,-0.6741c-0.1041,-0.01678 -0.20954,0.00345 -0.30098,0.05594z"/>
  <path id="svg_3" fill="none" stroke="#2534db" stroke-width="0.7" stroke-linecap="round" stroke-linejoin="round" stroke-miterlimit="10" d="m15.63247,22.08547c0,-3.75297 3.91996,-6.98451 7.67292,-6.98451"/>
  <path id="svg_4" fill="none" stroke="#2534db" stroke-width="0.7" stroke-linecap="round" stroke-linejoin="round" stroke-miterlimit="10" d="m30.177973,33.796833c-2.02119,1.16029 -4.41312,1.75142 -6.95133,1.54892c-5.60281,-0.44698 -10.246,-4.86713 -10.93402,-10.44548c-0.96609,-7.83286 5.63094,-14.42033 13.46651,-13.43782c5.44026,0.68216 9.79877,5.12997 10.38719,10.58117c0.31703,2.937 -0.43073,5.68612 -1.89043,7.90987c-0.05619,0.08561 -0.08127,0.18688 -0.06976,0.28864l0.4722,4.17286l-4.17938,-0.6741c-0.1041,-0.01678 -0.20954,0.00345 -0.30098,0.05594z"/>
  <path id="svg_5" fill="none" stroke="#2534db" stroke-width="0.7" stroke-linecap="round" stroke-linejoin="round" stroke-miterlimit="10" d="m15.63247,24.19004c0,0 -0.0191,0.71453 0.23147,1.42906"/>
 </g>
</svg>