<svg xmlns="http://www.w3.org/2000/svg" width="61.166" height="64.299" viewBox="0 0 61.166 64.299">
  <g id="Group_5558" data-name="Group 5558" transform="translate(-1360.399 0)">
    <path id="Path_2767" data-name="Path 2767" d="M188.361,171.906V138.14a9.949,9.949,0,0,0-7.521-9.644v47.268c0,12.129,6.3,17.031,18.42,17.031h42.746v-.977a9.953,9.953,0,0,0-9.949-9.956H198.311A9.952,9.952,0,0,1,188.361,171.906Z" transform="translate(1179.559 -128.496)" fill="#d1d3d4" opacity="0.07" style="mix-blend-mode: multiply;isolation: isolate"/>
    <path id="Path_2768" data-name="Path 2768" d="M214.331,159.358,187.72,132.73a10.637,10.637,0,0,1,3.149,7.263v33.767a9.951,9.951,0,0,0,9.949,9.955h33.747a9.9,9.9,0,0,1,6.939,2.83Z" transform="translate(1177.052 -130.038)" fill="#fff"/>
  </g>
</svg>
