<svg id="Group_7" data-name="Group 7" xmlns="http://www.w3.org/2000/svg" width="65" height="65" viewBox="0 0 65 65">
  <path id="Path_10041" data-name="Path 10041" d="M35.736,18.533a1,1,0,0,0-1.414,0L30.1,22.758a1,1,0,0,0,0,1.414l.949.949L28.7,27.467,25,27.06c-.175-.017-.349-.029-.518-.029a4.712,4.712,0,0,0-3.347,1.385l-1.211,1.211a1,1,0,0,0,0,1.414l6.315,6.315-7.706,7.706a1,1,0,1,0,1.409,1.414l7.712-7.712,6.315,6.315a1,1,0,0,0,1.409,0l1.211-1.211A4.69,4.69,0,0,0,37.948,40l-.407-3.7,2.346-2.346.943.943a1,1,0,0,0,1.414,0l4.226-4.226a1,1,0,0,0,0-1.408Zm5.809,14.26-.943-.949a1.035,1.035,0,0,0-1.414,0L35.8,35.238a.987.987,0,0,0-.285.815l.46,4.167a2.7,2.7,0,0,1-.786,2.235l-.506.506L22.046,30.325l.506-.5a2.747,2.747,0,0,1,2.235-.786l4.173.46a.987.987,0,0,0,.815-.285l3.388-3.388a1,1,0,0,0,0-1.414l-.949-.949,2.811-2.811,9.33,9.33Z" fill="#103bb5"/>
  <path id="Path_10042" data-name="Path 10042" d="M22.75,32.533,34.722,44.008l1.89-1.36V35.916l3.25-3.383,2.288,1.592,3.25-4.278L34.722,19.666l-3.615,3.482L32.4,25.569l-2.454,2.985-4.112-.6-3.084.6-2.255,1.293Z" fill="#103bb5"/>
  <path id="Path_10043" data-name="Path 10043" d="M62.446,19.851A32.483,32.483,0,0,0,9.524,9.518c-.212.212-.418.424-.623.637l.531-6.546-5.9-.478L2.023,21.662l18.81-2.746-.849-5.85-5.167.756A25.721,25.721,0,1,1,6.765,32.5c0-.431.013-.862.033-1.287-2.242-.292-4.477-.677-6.712-1.081C.027,30.915,0,31.7,0,32.5A32.506,32.506,0,0,0,62.44,45.155a32.58,32.58,0,0,0,.007-25.3Z" fill="#103bb5"/>
</svg>
