<svg xmlns="http://www.w3.org/2000/svg" width="79.361" height="79.361" viewBox="0 0 79.361 79.361"><defs><style>.a{fill:#dee4f8;}.b{fill:#103bb5;}</style></defs><g transform="translate(-5938 -10320)"><g transform="translate(5938 10320)"><circle class="a" cx="36" cy="36" r="36" transform="translate(3.681 3.681)"/><path class="b" d="M76.055,36.374a3.308,3.308,0,0,0-3.307,3.307,33.076,33.076,0,1,1-9.606-23.3,3.306,3.306,0,1,0,4.694-4.658A39.676,39.676,0,1,0,79.361,39.681,3.308,3.308,0,0,0,76.055,36.374Z"/></g><path class="b" d="M-68.687-214.87h5.253v-.41c.032-3.344,1.12-4.874,3.691-6.452,2.9-1.735,4.716-4.1,4.716-7.713,0-5.332-4.149-8.676-10.174-8.676-5.521,0-10,3.06-10.158,9.054h5.615a4.347,4.347,0,0,1,4.511-4.385,4.085,4.085,0,0,1,4.354,4.085c0,2.208-1.467,3.723-3.376,4.921-2.792,1.735-4.4,3.486-4.432,9.165Zm2.76,9.843a3.511,3.511,0,0,0,3.47-3.47,3.505,3.505,0,0,0-3.47-3.439A3.444,3.444,0,0,0-69.4-208.5,3.45,3.45,0,0,0-65.926-205.027Z" transform="translate(6043.359 10581.121)"/></g></svg>