<svg xmlns="http://www.w3.org/2000/svg" width="20.685" height="27.156" viewBox="0 0 20.685 27.156">
  <g id="google-docs" transform="translate(-61)">
    <path id="Path_1771" data-name="Path 1771" d="M63.387,27.156H79.3a2.389,2.389,0,0,0,2.387-2.387V7.956H76.116a2.389,2.389,0,0,1-2.387-2.387V0H63.387A2.389,2.389,0,0,0,61,2.387V24.769A2.389,2.389,0,0,0,63.387,27.156Zm3.182-14.965h9.547a.8.8,0,0,1,0,1.591H66.569a.8.8,0,0,1,0-1.591Zm0,3.182h9.547a.8.8,0,0,1,0,1.591H66.569a.8.8,0,0,1,0-1.591Zm0,3.182h9.547a.8.8,0,0,1,0,1.591H66.569a.8.8,0,0,1,0-1.591Z" transform="translate(0)" fill="#c5d2f8"/>
    <path id="Path_1772" data-name="Path 1772" d="M331.8,14.687h5.1l-5.9-5.9v5.1A.8.8,0,0,0,331.8,14.687Z" transform="translate(-255.68 -8.323)" fill="#c5d2f8"/>
  </g>
</svg>
