<svg xmlns="http://www.w3.org/2000/svg" width="21.97" height="15.945" viewBox="0 0 21.97 15.945">
  <g id="Group_6109" data-name="Group 6109" transform="translate(1498.5 -4170.211)">
    <g id="noun_reset_1921242" transform="translate(-1387 4111.489)">
      <g id="Group_6108" data-name="Group 6108" transform="translate(-114 43.211)">
        <path id="Path_3678" data-name="Path 3678" d="M7.074,26.574l1.8-3.373.762.416-2.5,4.644L2.5,25.765,2.916,25l3.3,1.779a7.974,7.974,0,0,1,11.32-10.165l-.624.624a7.114,7.114,0,0,0-9.841,9.333Z" transform="translate(0 0)" fill="#103bb5"/>
        <path id="Path_3679" data-name="Path 3679" d="M32.4,40.943l.624-.624a7.129,7.129,0,0,0,9.865-9.333l-1.8,3.373-.762-.416,2.5-4.644,4.644,2.5-.416.762-3.3-1.779A7.982,7.982,0,0,1,32.4,40.943Z" transform="translate(-22.992 -10.604)" fill="#103bb5"/>
      </g>
    </g>
  </g>
</svg>
