<svg xmlns="http://www.w3.org/2000/svg" width="19.884" height="24.651" viewBox="0 0 19.884 24.651">
  <g id="Group_6425" data-name="Group 6425" transform="translate(0 0)">
    <g id="Group_6426" data-name="Group 6426" transform="translate(0 0)">
      <path id="Subtraction_7" data-name="Subtraction 7" d="M7.554,22.241a.583.583,0,0,1-.589-.595V12.269l-1.95-2.126.822-.851L8,11.644a.569.569,0,0,1,.161.393v8.317L11.728,17.3V12.037a.568.568,0,0,1,.161-.393L17.931,5.06H9.924l1.15-1.191h7.618V1.191H13.661L14.811,0h4.471a.619.619,0,0,1,.6.619V4.441a.238.238,0,0,1,0,.035.182.182,0,0,0,0,.025.041.041,0,0,1,0,.012.041.041,0,0,0,0,.012.047.047,0,0,1,0,.015.048.048,0,0,0,0,.015.047.047,0,0,1,0,.015.047.047,0,0,0,0,.015.041.041,0,0,1,0,.012.041.041,0,0,0,0,.012.12.12,0,0,0-.005.015.122.122,0,0,1-.005.015.035.035,0,0,1,0,.016.021.021,0,0,0,0,.009.043.043,0,0,1-.01.024.087.087,0,0,0-.007.016.029.029,0,0,1-.006.013.058.058,0,0,0-.01.013l-.007.01a.051.051,0,0,1-.012.025.085.085,0,0,0-.018.023.068.068,0,0,1-.013.019.214.214,0,0,1-.022.028l-.012.012-6.8,7.423v5.31a.583.583,0,0,1-.2.453L7.942,22.1A.574.574,0,0,1,7.554,22.241ZM2.962,7.9h0L.161,4.851l0-.008h0l-.007,0a.076.076,0,0,0-.018-.024L.122,4.8.113,4.793.1,4.78.1,4.768a.027.027,0,0,1-.007-.013.027.027,0,0,0-.005-.011A.03.03,0,0,0,.077,4.73L.071,4.72l0-.011A.029.029,0,0,0,.06,4.7.093.093,0,0,1,.053,4.68l0-.013a.04.04,0,0,0,0-.016.1.1,0,0,1-.009-.023.076.076,0,0,0,0-.014.041.041,0,0,0,0-.012.04.04,0,0,1,0-.012.048.048,0,0,0,0-.014.053.053,0,0,1,0-.016.047.047,0,0,0,0-.014.047.047,0,0,1,0-.014.039.039,0,0,0,0-.012.04.04,0,0,1,0-.012A.236.236,0,0,1,0,4.448V.625A.622.622,0,0,1,.6,0H10.6L9.445,1.191H1.191V3.869H6.859L5.709,5.06H1.952l1.83,1.995-.82.849Z" transform="translate(0 2.41)" fill="#103bb5"/>
      <rect id="Rectangle_1527" data-name="Rectangle 1527" width="1.212" height="18.191" transform="matrix(0.719, 0.695, -0.695, 0.719, 15.715, 0)" fill="#103bb5"/>
    </g>
  </g>
</svg>
