<?xml version="1.0" encoding="utf-8"?>
<!-- Generator: Adobe Illustrator 16.0.0, SVG Export Plug-In . SVG Version: 6.00 Build 0)  -->
<!DOCTYPE svg PUBLIC "-//W3C//DTD SVG 1.1//EN" "http://www.w3.org/Graphics/SVG/1.1/DTD/svg11.dtd">
<svg version="1.1" id="_x31__px" xmlns="http://www.w3.org/2000/svg" xmlns:xlink="http://www.w3.org/1999/xlink" x="0px" y="0px"
	 width="63.444px" height="64.001px" viewBox="0 -7.501 63.444 64.001" enable-background="new 0 -7.501 63.444 64.001"
	 xml:space="preserve">
<g>
	<g>
		<path fill="#646E7F" d="M131.046-1.956h10.574c0.74,0,1.321-0.582,1.321-1.322s-0.582-1.322-1.321-1.322h-10.574
			c-0.74,0-1.322,0.582-1.322,1.322S130.306-1.956,131.046-1.956z"/>
		<path fill="#646E7F" d="M141.62,21.835h-10.574c-0.74,0-1.322,0.582-1.322,1.322s0.582,1.321,1.322,1.321h10.574
			c0.74,0,1.321-0.581,1.321-1.321S142.36,21.835,141.62,21.835z"/>
		<path fill="#646E7F" d="M141.62,29.766h-10.574c-0.74,0-1.322,0.582-1.322,1.322s0.582,1.322,1.322,1.322h10.574
			c0.74,0,1.321-0.582,1.321-1.322S142.36,29.766,141.62,29.766z"/>
		<path fill="#646E7F" d="M99.324-1.956h3.965V2.01c0,0.74,0.582,1.322,1.322,1.322s1.322-0.582,1.322-1.322v-3.965h3.965
			c0.74,0,1.322-0.582,1.322-1.322s-0.582-1.322-1.322-1.322h-3.965v-3.965c0-0.74-0.582-1.322-1.322-1.322
			s-1.322,0.582-1.322,1.322v3.965h-3.965c-0.74,0-1.322,0.582-1.322,1.322S98.584-1.956,99.324-1.956z"/>
		<path fill="#646E7F" d="M106.461,27.123l-1.851,1.851l3.04,3.04c0.238,0.264,0.582,0.396,0.925,0.396s0.688-0.132,0.925-0.396
			c0.529-0.502,0.529-1.348,0-1.851L106.461,27.123z"/>
		<path fill="#646E7F" d="M109.501,24.083c0.529-0.502,0.529-1.348,0-1.85c-0.502-0.529-1.348-0.529-1.851,0l-3.04,3.04l1.851,1.851
			L109.501,24.083z"/>
		<path fill="#646E7F" d="M106.453,27.12l-1.845-1.845l0.002-0.003l-3.04-3.04c-0.502-0.529-1.348-0.529-1.85,0
			c-0.529,0.502-0.529,1.348,0,1.85l3.035,3.035l-0.002,0.002l0.005,0.005l-3.037,3.037c-0.529,0.502-0.529,1.348,0,1.851
			c0.238,0.264,0.582,0.396,0.925,0.396c0.344,0,0.688-0.132,0.925-0.396l3.04-3.04l-0.005-0.005L106.453,27.12z"/>
		<path fill="#646E7F" d="M88.75-21.39v64.001h63.444V-21.39H88.75z M149.561,9.155h-27.633V-18.54h27.633V9.155z M119.016-18.54
			V9.155H91.383V-18.54H119.016z M91.383,12.067h27.633v27.695H91.383V12.067z M121.928,39.762V12.067h27.633v27.695H121.928z"/>
	</g>
</g>
<g>
	<path fill="#646E7F" d="M0.063,5.215v51.188H51.25V5.215H0.063z M47.725,52.949H3.588V8.669h44.137V52.949z"/>
</g>
<g>
	<polygon fill="none" points="51.25,38.193 60.069,38.193 60.069,-4.196 17.819,-4.196 17.819,5.215 51.25,5.215 	"/>
	<polygon fill="#646E7F" points="14.444,-7.501 14.444,5.215 17.819,5.215 17.819,-4.196 60.069,-4.196 60.069,38.193 51.25,38.193 
		51.25,41.499 63.444,41.499 63.444,-7.501 	"/>
</g>
</svg>
