<svg xmlns="http://www.w3.org/2000/svg" width="23.097" height="22.187" viewBox="0 0 23.097 22.187">
  <g id="Group_5576" data-name="Group 5576" transform="translate(-1909.521 -211.82)">
    <g id="Path_3084" data-name="Path 3084" transform="translate(1909.521 223.495) rotate(-48)" fill="none">
      <path d="M7.855,0A7.855,7.855,0,1,1,0,7.855,7.855,7.855,0,0,1,7.855,0Z" stroke="none"/>
      <path d="M 7.855048179626465 2.000038146972656 L 7.855058193206787 2.000038146972656 C 6.291268348693848 2.000038146972656 4.820988655090332 2.609107971191406 3.715047836303711 3.715038299560547 C 2.609098434448242 4.820978164672852 2.000028610229492 6.291287422180176 2.000038146972656 7.855097770690918 C 2.000058174133301 11.0836181640625 4.62669849395752 13.71023750305176 7.855238437652588 13.71024799346924 C 9.419028282165527 13.71024799346924 10.88930892944336 13.10118770599365 11.99523830413818 11.99525833129883 C 13.10117816925049 10.88931846618652 13.71024799346924 9.419017791748047 13.71023845672607 7.855197906494141 C 13.71021842956543 4.626677513122559 11.08358764648438 2.000058174133301 7.855048179626465 2.000038146972656 M 7.855061054229736 3.814697265625e-05 C 7.855326175689697 3.814697265625e-05 7.854833602905273 3.814697265625e-05 7.855098247528076 3.814697265625e-05 C 12.1933479309082 6.771087646484375e-05 15.71020793914795 3.516938209533691 15.71023845672607 7.855187892913818 C 15.71025848388672 12.19318294525146 12.19311904907227 15.71024799346924 7.855233669281006 15.71024799346924 C 7.854969024658203 15.71024799346924 7.855443000793457 15.71024799346924 7.855178356170654 15.71024799346924 C 3.516928672790527 15.71022796630859 6.866455078125e-05 12.19335746765137 3.814697265625e-05 7.85510778427124 C 1.811981201171875e-05 3.517112731933594 3.517176628112793 3.814697265625e-05 7.855061054229736 3.814697265625e-05 Z" stroke="none" fill="#103bb5"/>
    </g>
    <path id="Path_3082" data-name="Path 3082" d="M0,0V7.538" transform="translate(1926.348 228.076) rotate(-48)" fill="none" stroke="#103bb5" stroke-width="2"/>
  </g>
</svg>
