<svg xmlns="http://www.w3.org/2000/svg" width="28.57" height="28.57" viewBox="0 0 28.57 28.57">
  <path id="Path_1581" data-name="Path 1581" d="M27.427,11.771l-1.851-.343A2.138,2.138,0,0,1,24.25,8.251l1.063-1.394a1.462,1.462,0,0,0-.171-1.9L23.6,3.428a1.463,1.463,0,0,0-1.886-.171L20.228,4.32a2.207,2.207,0,0,1-1.92.149,2.286,2.286,0,0,1-1.166-1.474L16.8,1.143A1.463,1.463,0,0,0,15.394,0H13.188a1.463,1.463,0,0,0-1.417,1.143l-.343,1.851A2.137,2.137,0,0,1,8.3,4.32L6.857,3.257a1.463,1.463,0,0,0-1.886.171L3.428,4.96a1.463,1.463,0,0,0-.171,1.9L4.32,8.342a2.137,2.137,0,0,1-1.326,3.086l-1.851.343A1.463,1.463,0,0,0,0,13.177v2.206A1.463,1.463,0,0,0,1.143,16.8l1.851.343A2.138,2.138,0,0,1,4.32,20.319L3.257,21.713a1.463,1.463,0,0,0,.171,1.9l1.543,1.531a1.463,1.463,0,0,0,1.886.171L8.342,24.25a2.137,2.137,0,0,1,3.086,1.326l.343,1.851a1.463,1.463,0,0,0,1.406,1.143h2.206a1.463,1.463,0,0,0,1.406-1.143l.354-1.851a2.138,2.138,0,0,1,3.177-1.326L21.8,25.313a1.461,1.461,0,0,0,1.794-.171l1.543-1.531a1.463,1.463,0,0,0,.171-1.9L24.25,20.228a2.137,2.137,0,0,1,1.326-3.086l1.852-.343a1.463,1.463,0,0,0,1.143-1.406V13.188A1.463,1.463,0,0,0,27.427,11.771Zm-8,2.514a5.143,5.143,0,1,1-5.143-5.143A5.143,5.143,0,0,1,19.428,14.285Z" 
  	fill="#c5d2f8"/>
</svg>
