<svg xmlns="http://www.w3.org/2000/svg" width="29.83" height="28.907" viewBox="0 0 29.83 28.907">
  <g id="noun_profile_1325966" transform="translate(-15.953 -16)">
    <g id="Group_1849" data-name="Group 1849" transform="translate(15.953 16)">
      <path id="Path_1574" data-name="Path 1574" d="M21.273,36.717c-.964.307-1.883.613-2.584.92-3.154,1.533-2.716,6.263-2.716,6.482a.9.9,0,0,0,.876.788H44.881a.9.9,0,0,0,.876-.788c0-.219.482-4.949-2.672-6.482h0a19.329,19.329,0,0,0-2.584-.92c-2.19-.7-4.905-1.533-5.387-3.154a2.674,2.674,0,0,1,.745-1.621c1.183-1.183,2.453-4.467,2.453-7.709V24.19c0-.175-.35-4.73-2.935-6.657A6.4,6.4,0,0,0,30.865,16h-.044a6.641,6.641,0,0,0-4.467,1.489c-2.628,1.927-2.935,6.482-2.935,6.657v.044c0,3.241,1.27,6.526,2.453,7.709a2.891,2.891,0,0,1,.745,1.621C26.179,35.184,23.463,36.016,21.273,36.717Z" transform="translate(-15.953 -16)" fill="#fff"/>
    </g>
  </g>
</svg>
