<svg width="24" height="24" viewBox="0 0 24 24" fill="none" xmlns="http://www.w3.org/2000/svg">
<path d="M4.17445 15.2494H2.80375C2.83368 15.0454 2.8761 14.8415 2.93098 14.6752C3.0583 14.2933 3.26566 13.9866 3.49434 13.836L3.49682 13.8344C4.10993 13.4273 4.80959 13.1957 5.6146 12.9292C5.73557 12.8891 5.85891 12.8483 5.9847 12.8059L5.98472 12.806L5.99341 12.803C6.00715 12.7981 6.02135 12.7932 6.03599 12.7881C6.23495 12.7188 6.51362 12.6217 6.77289 12.4677L6.77296 12.4677C7.25616 12.1808 7.37086 11.6542 7.41044 11.4725L7.41112 11.4694L7.41399 11.4562L7.41639 11.4429C7.43433 11.3435 7.44507 11.2494 7.45267 11.167L7.47163 10.9614C7.68241 11.8048 7.99013 12.6241 8.36993 13.3369C8.29758 13.361 8.22491 13.3847 8.15048 13.4091C8.1074 13.4232 8.06374 13.4375 8.01921 13.4521L8.01841 13.4524C7.999 13.4588 7.97953 13.4652 7.96002 13.4717C6.89016 13.8246 5.67991 14.2238 4.57833 14.955C4.57016 14.9604 4.56178 14.9659 4.55321 14.9715C4.44851 15.0401 4.3148 15.1276 4.17445 15.2494ZM7.15451 8.52136C7.15451 9.25983 7.25444 10.0444 7.43564 10.8132L7.29578 10.6351C6.71625 9.8968 6.28473 8.53083 6.28473 7.41412C6.28473 6.611 6.50699 6.25071 6.71917 6.06991C6.94296 5.87921 7.3008 5.76239 7.83124 5.75101C7.37311 6.51569 7.15451 7.45907 7.15451 8.52136Z" stroke="#C5D2F8" stroke-width="1.5"/>
<path d="M21.0554 15.2492H19.6621C19.5353 15.1425 19.417 15.0681 19.337 15.0178C19.3167 15.005 19.2988 14.9938 19.2838 14.984C18.1612 14.2393 16.9278 13.8301 15.8341 13.4671C15.8096 13.459 15.7851 13.4509 15.7607 13.4428L21.0554 15.2492ZM21.0554 15.2492C21.0254 15.0452 20.983 14.8414 20.9282 14.675C20.8047 14.3051 20.6007 14.0097 20.3647 13.8542L20.3625 13.8527C19.7313 13.4338 19.0052 13.1921 18.1764 12.9162C18.0772 12.8832 17.9766 12.8497 17.8744 12.8153L17.8656 12.8123L17.8656 12.8123C17.6522 12.7375 17.3606 12.6354 17.0863 12.4723L21.0554 15.2492ZM15.7599 13.4425L15.3942 13.3206C16.1391 11.9194 16.5986 10.121 16.5986 8.52219C16.5986 7.45964 16.3802 6.51563 15.9218 5.75044C16.4668 5.75845 16.8328 5.87601 17.0603 6.06996C17.2726 6.25089 17.4949 6.61141 17.4949 7.41476C17.4949 8.48816 17.0945 9.80306 16.5399 10.5618L16.3819 10.7781L16.3966 11.0456C16.4037 11.1757 16.4184 11.3101 16.443 11.4455L16.4452 11.4579L16.4479 11.4703L16.4487 11.4742C16.4878 11.6551 16.6022 12.1846 17.086 12.4721L15.7599 13.4425Z" stroke="#C5D2F8" stroke-width="1.5"/>
<path d="M19.0907 19.25H11.9294H4.76822C4.80681 18.8662 4.88013 18.4717 4.98984 18.1396C5.17199 17.5928 5.47638 17.1148 5.84083 16.8749L5.84331 16.8733C6.69012 16.3109 7.65699 15.9911 8.72676 15.6372C8.88853 15.5837 9.05264 15.5294 9.21905 15.4734L9.21907 15.4734L9.22792 15.4703C9.24661 15.4638 9.26577 15.4571 9.28537 15.4502C9.55212 15.3571 9.90028 15.2356 10.2224 15.0443C10.7678 14.7202 10.9035 14.1175 10.9564 13.8755L10.9593 13.862L10.9618 13.8485C10.9839 13.7256 10.9974 13.6079 11.0071 13.5032L11.0348 13.2057L10.8503 12.9707C10.037 11.9343 9.44883 10.0557 9.44883 8.52141C9.44883 7.40344 9.76003 6.84201 10.1159 6.53875C10.4954 6.21539 11.0786 6.0527 11.8764 6.0527C12.6741 6.0527 13.2573 6.21551 13.6369 6.53906C13.9929 6.84253 14.3041 7.40428 14.3041 8.52238C14.3041 9.99919 13.7575 11.8061 12.9827 12.8662L12.8245 13.0826L12.8393 13.3502C12.8484 13.5146 12.8669 13.6833 12.8973 13.8523L12.8997 13.8654L12.9025 13.8784C12.9545 14.1181 13.0893 14.7271 13.6369 15.0525M13.6369 15.0525C13.6368 15.0524 13.6367 15.0523 13.6365 15.0523L14.0201 14.4077L13.6369 15.0525Z" stroke="#C5D2F8" stroke-width="1.5"/>
</svg>
