<svg xmlns="http://www.w3.org/2000/svg" width="35.865" height="23.088" viewBox="0 0 35.865 23.088"><defs><style>.a{fill:#f23e3e;}</style></defs><g transform="translate(0 -82.176)"><g transform="translate(12.161 87.948)"><path class="a" d="M162.188,156.416a5.772,5.772,0,1,0,5.772,5.772A5.776,5.776,0,0,0,162.188,156.416Zm-.438,4.06a1.325,1.325,0,0,0-1.314,1.314h-1.911a3.262,3.262,0,0,1,3.224-3.224Z" transform="translate(-156.416 -156.416)"/></g><g transform="translate(0 82.176)"><g transform="translate(0)"><path class="a" d="M35.447,92.526c-1.95-2.428-8.917-10.35-17.515-10.35S2.368,90.1.418,92.526a1.915,1.915,0,0,0,0,2.388c1.95,2.428,8.917,10.35,17.515,10.35S33.5,97.342,35.447,94.914A1.915,1.915,0,0,0,35.447,92.526Zm-17.515,9.553a8.359,8.359,0,1,1,8.359-8.359A8.358,8.358,0,0,1,17.933,102.079Z" transform="translate(0 -82.176)"/></g></g></g></svg>