<svg xmlns="http://www.w3.org/2000/svg" width="178" height="56" viewBox="0 0 178 56">
  <g id="Group_5942" data-name="Group 5942" transform="translate(-91 -10.001)">
    <g id="Component_22_52" data-name="Component 22 – 52" transform="translate(152 16)">
      <text id="binder_management" data-name="binder
management" transform="translate(0 24)" fill="rgba(255,255,255,0.47)" font-size="23" font-family="Poppins-Medium, Poppins" font-weight="500"><tspan x="0" y="0">Binder</tspan><tspan fill="rgba(246,250,255,0.47)" font-size="17"><tspan x="0" y="15">Management</tspan></tspan></text>
    </g>
    <g id="Group_5926" data-name="Group 5926" transform="translate(-1248.649 -1279.953)">
      <g id="Group_5927" data-name="Group 5927" transform="translate(1341.436 1291.81)">
        <g id="Group_5926-2" data-name="Group 5926">
          <path id="Path_3591" data-name="Path 3591" d="M1391.871,1759.224s-1.644-2.093-9.928-2.522l-5.115-.957s-5.3.234-4.428,6.25c0,0,1.828,12.2,11.3,16.937,0,0,8.8,6.215,14.118-4.892,0,0-1.8-6.128-1.488-9.35C1396.329,1764.688,1393.458,1764.608,1391.871,1759.224Zm2.6,6.481c.513,1.171-.954,2.017-.954,2.017-1.447,1.162,1.037,5.1,1.037,5.1,1.365,4.262-3.846,5.55-3.846,5.55-1.924,1.182-2.917.31-2.917.31-.372-.926,1.475-2.807,1.475-2.807,3.594-2.239.468-4.833.468-4.833-1.872-3.807,2.513-5.524,2.513-5.524C1394.326,1764.324,1394.473,1765.706,1394.473,1765.706Z" transform="translate(-1372.304 -1732.116)" fill="#6d86c2"/>
          <path id="Path_3592" data-name="Path 3592" d="M1562.716,1343.687s2.611-.512,6.766-7.692l3.181-4.119s2.2-4.821-3.548-6.788c0,0-11.692-3.925-20.224,2.349,0,0-9.541,5.007-2.071,14.8,0,0,6.275,1.186,9,2.932C1555.82,1345.167,1557.2,1342.648,1562.716,1343.687Zm-6.956-.635c-1.275-.076-1.362-1.767-1.362-1.767-.375-1.816-5.016-1.4-5.016-1.4-4.417-.725-3.191-5.952-3.191-5.952-.177-2.251,1.052-2.737,1.052-2.737.994.091,1.828,2.59,1.828,2.59.357,4.221,4.088,2.618,4.088,2.618,4.242.067,3.775,4.752,3.775,4.752C1557.058,1343.55,1555.76,1343.051,1555.76,1343.051Z" transform="translate(-1534.571 -1323.876)" fill="#6d86c2"/>
          <path id="Path_3593" data-name="Path 3593" d="M1910.351,1706.411s-1.166,2.392,2.056,10.037l1.365,5.02s2.518,4.665,7.556,1.264c0,0,10.181-6.958,10.323-17.548,0,0,1.759-10.63-10.555-10.577,0,0-4.73,4.289-7.769,5.411C1913.328,1700.018,1914.508,1702.638,1910.351,1706.411Zm4.7-5.164c.83-.973,2.231-.021,2.231-.021,1.676.8,4.142-3.158,4.142-3.158,3.243-3.084,6.672,1.046,6.672,1.046,1.9,1.216,1.548,2.49,1.548,2.49-.672.738-3.169-.106-3.169-.106-3.582-2.26-4.554,1.685-4.554,1.685-2.612,3.343-6.067.144-6.067.144C1913.872,1701.981,1915.054,1701.247,1915.054,1701.247Z" transform="translate(-1880.718 -1674.322)" fill="#6d86c2"/>
          <path id="Path_3594" data-name="Path 3594" d="M1769.115,1724.156a4.279,4.279,0,1,1-1.566,5.846A4.28,4.28,0,0,1,1769.115,1724.156Z" transform="translate(-1745.38 -1701.713)" fill="#6d86c2"/>
        </g>
      </g>
      <rect id="Rectangle_1496" data-name="Rectangle 1496" width="31.26" height="10.833" transform="translate(1352.068 1312.989)" fill="#e60019"/>
      <g id="Group_5929" data-name="Group 5929" transform="translate(1353.039 1315.331)">
        <g id="Group_5928" data-name="Group 5928" transform="translate(0 0)">
          <path id="Path_3595" data-name="Path 3595" d="M1588.452,1753.864h1.376v5.945h-1.376v-2.438h-2.7v2.438h-1.376v-5.945h1.376v2.344h2.7Zm3.193,6.013a.8.8,0,0,1-.586-.238.807.807,0,0,1-.238-.594h0a.775.775,0,0,1,.238-.59.82.82,0,0,1,.586-.225h0a.82.82,0,0,1,.586.225.775.775,0,0,1,.238.59h0a.806.806,0,0,1-.238.594.8.8,0,0,1-.586.238Zm3.185-1.172h3.236v1.1h-4.6v-5.945h4.493v1.1h-3.125v1.291h2.76v1.07h-2.76Zm4.824,1.172a.8.8,0,0,1-.586-.238.807.807,0,0,1-.238-.594h0a.775.775,0,0,1,.238-.59.821.821,0,0,1,.586-.225h0a.82.82,0,0,1,.586.225.775.775,0,0,1,.238.59h0a.806.806,0,0,1-.238.594.8.8,0,0,1-.586.238Zm3.771.034a4.867,4.867,0,0,1-1.363-.191,3.2,3.2,0,0,1-1.057-.5h0l.467-1.036a3.171,3.171,0,0,0,.909.45,3.412,3.412,0,0,0,1.053.17h0a1.684,1.684,0,0,0,.866-.174.526.526,0,0,0,.28-.463h0a.443.443,0,0,0-.166-.353,1.258,1.258,0,0,0-.425-.225q-.259-.085-.7-.187h0a9.72,9.72,0,0,1-1.113-.323,1.809,1.809,0,0,1-.743-.518,1.4,1.4,0,0,1-.31-.951h0a1.653,1.653,0,0,1,.28-.938,1.886,1.886,0,0,1,.845-.667,3.451,3.451,0,0,1,1.38-.246h0a4.571,4.571,0,0,1,1.113.136,3.289,3.289,0,0,1,.951.391h0l-.425,1.045a3.315,3.315,0,0,0-1.648-.467h0a1.546,1.546,0,0,0-.854.187.571.571,0,0,0-.276.493h0a.482.482,0,0,0,.318.454,5,5,0,0,0,.973.293h0a9.678,9.678,0,0,1,1.113.323,1.842,1.842,0,0,1,.743.51,1.366,1.366,0,0,1,.31.943h0a1.625,1.625,0,0,1-.285.93,1.911,1.911,0,0,1-.854.667,3.477,3.477,0,0,1-1.384.246Zm4.043-.034a.8.8,0,0,1-.586-.238.807.807,0,0,1-.238-.594h0a.775.775,0,0,1,.238-.59.821.821,0,0,1,.586-.225h0a.82.82,0,0,1,.586.225.775.775,0,0,1,.238.59h0a.806.806,0,0,1-.238.594.8.8,0,0,1-.586.238Zm3.049-.068v-4.824h-1.9v-1.121h5.181v1.121h-1.9v4.824Z" transform="translate(-1584.375 -1753.762)" fill="#1e4a9b"/>
        </g>
      </g>
      <g id="Group_5932" data-name="Group 5932" transform="translate(1385.112 1315.704)">
        <g id="Group_5931" data-name="Group 5931">
          <g id="Group_5930" data-name="Group 5930">
            <path id="Path_3596" data-name="Path 3596" d="M2176.951,1762.117v.732h-.067v-.866h-.333v.866h-.067v-.133h-.333v.133h-.067v-.6h-.333v.6h-.066v-1.065h-.333v1.065h-.067v-1h-.333v1h-.067v-1.731h-.333v1.731h-.067v-.2h-.333v.2h-.067v-.6h-.333v.6h-.067v-1.731h-.333v1.731h-.067v-1h-.333v1h-.067v-.866h-.333v.866h-.067v-.4h-.333v.4h-.067v-1.265h-.333v1.265h-.066v-2.264h-.333v2.264h-.067v-.866h-.333v.866h-.066v-.4h-.333v1h.333v-.4h.066v.866h.333v-.866h.067v2.264h.333v-2.264h.066v1.265h.333v-1.265h.067v.4h.333v-.4h.067v.866h.333v-.866h.067v1h.333v-1h.067v1.731h.333v-1.731h.067v.6h.333v-.6h.067v.2h.333v-.2h.067v1.731h.333v-1.731h.067v1h.333v-1h.067v1.066h.333v-1.066h.066v.6h.333v-.6h.067v.133h.333v-.133h.067v.866h.333v-.866h.067v.733h.266v-1.665Z" transform="translate(-2170.559 -1760.585)" fill="#e60019"/>
          </g>
        </g>
      </g>
      <g id="Group_5935" data-name="Group 5935" transform="translate(1343.731 1314.877)">
        <g id="Group_5934" data-name="Group 5934">
          <g id="Group_5933" data-name="Group 5933">
            <path id="Path_3597" data-name="Path 3597" d="M1420.641,1751.457v.4h-6.382v-6.382h.4v5.983Zm-.8-5.983-1.57.257.377.462-3.321,2.717.252.309,3.321-2.717.377.461Zm-.434,2.276-.364-.445v3.754h.8V1746.6Zm-2.757,1.108v2.2h.8v-2.853Zm-1.127.922-.07-.086v1.365h.8v-1.874Zm2.323-1.9v3.179h.8v-3.832Z" transform="translate(-1414.259 -1745.474)" fill="#e60019"/>
          </g>
        </g>
      </g>
      <g id="Group_5936" data-name="Group 5936" transform="translate(1339.649 1289.954)">
        <path id="Path_3598" data-name="Path 3598" d="M1367.649,1345.954a28.206,28.206,0,0,1-5.642-.569,27.848,27.848,0,0,1-10.013-4.214,28.08,28.08,0,0,1-10.144-12.319,27.86,27.86,0,0,1-1.632-5.257,28.274,28.274,0,0,1,0-11.285,27.851,27.851,0,0,1,4.214-10.013,28.08,28.08,0,0,1,12.319-10.144,27.855,27.855,0,0,1,5.256-1.632,28.268,28.268,0,0,1,11.285,0,27.851,27.851,0,0,1,10.013,4.213,28.081,28.081,0,0,1,10.144,12.319,27.85,27.85,0,0,1,1.632,5.257,28.268,28.268,0,0,1,0,11.285,27.848,27.848,0,0,1-4.213,10.013,28.082,28.082,0,0,1-12.319,10.144,27.855,27.855,0,0,1-5.256,1.632A28.205,28.205,0,0,1,1367.649,1345.954Zm0-55.042a27.042,27.042,0,1,0,27.042,27.042A27.073,27.073,0,0,0,1367.649,1290.912Z" transform="translate(-1339.649 -1289.954)" fill="#e60019"/>
      </g>
      <g id="Group_5937" data-name="Group 5937" transform="translate(1383.329 1312.989)">
        <path id="Path_3599" data-name="Path 3599" d="M2148.109,1721.787h-10.122v-10.833h10.122Zm-9.411-.711h8.7v-9.411h-8.7Z" transform="translate(-2137.987 -1710.954)" fill="#1e4a9b"/>
      </g>
      <g id="Group_5938" data-name="Group 5938" transform="translate(1342.047 1312.989)">
        <path id="Path_3600" data-name="Path 3600" d="M1393.591,1721.787h-10.122v-10.833h10.122Zm-9.411-.711h8.7v-9.411h-8.7Z" transform="translate(-1383.469 -1710.954)" fill="#1e4a9b"/>
      </g>
      <g id="Group_5941" data-name="Group 5941" transform="translate(1345.824 1324.608)">
        <g id="Group_5940" data-name="Group 5940">
          <g id="Group_5939" data-name="Group 5939">
            <path id="Path_3601" data-name="Path 3601" d="M1453.5,1923.629l.418,0,.013,1.478-.418,0-.005-.576-.57,0,.005.576-.418,0-.013-1.478.418,0,0,.555.57,0Zm1.292.3a.644.644,0,0,1,.436.126.5.5,0,0,1,.153.4h0l0,.635-.374,0v-.148a.344.344,0,0,1-.337.169h0a.53.53,0,0,1-.23-.044.341.341,0,0,1-.148-.125.333.333,0,0,1-.051-.18h0a.294.294,0,0,1,.122-.253.663.663,0,0,1,.384-.093h0l.228,0q-.012-.181-.244-.18h0a.567.567,0,0,0-.166.028.439.439,0,0,0-.143.074h0l-.137-.271a.753.753,0,0,1,.23-.1,1.1,1.1,0,0,1,.273-.037Zm-.008.929a.219.219,0,0,0,.122-.035.188.188,0,0,0,.076-.1h0v-.1h-.173q-.175,0-.174.118h0a.1.1,0,0,0,.041.084.173.173,0,0,0,.11.031Zm1.336-.783a.376.376,0,0,1,.159-.119.606.606,0,0,1,.224-.041h0l0,.361a.745.745,0,0,0-.091-.005h0a.278.278,0,0,0-.2.071.283.283,0,0,0-.071.214h0l0,.526-.4,0-.008-1.144.382,0Zm.662,1-.008-1.144.4,0,.008,1.144Zm.192-1.272a.255.255,0,0,1-.178-.06.2.2,0,0,1-.069-.151h0a.2.2,0,0,1,.067-.152.252.252,0,0,1,.177-.062h0a.264.264,0,0,1,.178.057.186.186,0,0,1,.068.148h0a.206.206,0,0,1-.066.158.25.25,0,0,1-.177.063Zm1.741.689s0,.036-.006.1h0l-.832.005a.232.232,0,0,0,.1.136.331.331,0,0,0,.183.046h0a.392.392,0,0,0,.142-.024.425.425,0,0,0,.121-.077h0l.213.218a.622.622,0,0,1-.486.189h0a.772.772,0,0,1-.353-.074.56.56,0,0,1-.323-.515h0a.576.576,0,0,1,.079-.3.567.567,0,0,1,.224-.211.677.677,0,0,1,.323-.078h0a.677.677,0,0,1,.311.069.536.536,0,0,1,.222.2.6.6,0,0,1,.083.317Zm-.612-.3a.229.229,0,0,0-.155.054.236.236,0,0,0-.078.144h0l.469,0a.237.237,0,0,0-.08-.143.232.232,0,0,0-.156-.052Zm1.75-.277.382,0,.005.935a.618.618,0,0,1-.17.479.711.711,0,0,1-.5.162h0a1.271,1.271,0,0,1-.317-.036.739.739,0,0,1-.252-.11h0l.144-.282a.512.512,0,0,0,.177.089.709.709,0,0,0,.21.032h0a.33.33,0,0,0,.232-.071.274.274,0,0,0,.073-.208h0v-.038a.422.422,0,0,1-.339.137h0a.586.586,0,0,1-.281-.067.518.518,0,0,1-.206-.193.552.552,0,0,1-.078-.29h0a.547.547,0,0,1,.074-.289.525.525,0,0,1,.2-.2.589.589,0,0,1,.28-.07h0a.412.412,0,0,1,.36.156h0Zm-.26.768a.253.253,0,0,0,.178-.066.221.221,0,0,0,.07-.17h0a.22.22,0,0,0-.071-.167.255.255,0,0,0-.18-.063h0a.256.256,0,0,0-.18.065.217.217,0,0,0-.07.168h0a.218.218,0,0,0,.073.168.256.256,0,0,0,.179.064Zm2.179-.2s0,.036-.006.1h0l-.832,0a.232.232,0,0,0,.1.135.327.327,0,0,0,.183.047h0a.4.4,0,0,0,.142-.024.418.418,0,0,0,.121-.077h0l.212.218a.622.622,0,0,1-.487.188h0a.782.782,0,0,1-.353-.074.56.56,0,0,1-.321-.516h0a.579.579,0,0,1,.08-.3.566.566,0,0,1,.224-.211.673.673,0,0,1,.322-.078h0a.678.678,0,0,1,.311.069.539.539,0,0,1,.222.2.6.6,0,0,1,.083.317Zm-.612-.3a.228.228,0,0,0-.155.053.239.239,0,0,0-.079.144h0l.469,0a.238.238,0,0,0-.08-.143.233.233,0,0,0-.156-.052Zm.907.873-.008-1.566.4,0,.008,1.566Zm1.919-.332.773,0,0,.323-1.186,0-.006-1.478,1.159,0,0,.323-.745,0v.249l.656,0v.312l-.657,0Zm1.835-.847a.472.472,0,0,1,.344.125.513.513,0,0,1,.131.382h0l0,.654-.4,0,0-.589q0-.234-.188-.234h0a.214.214,0,0,0-.166.068.291.291,0,0,0-.062.2h0l0,.553-.4,0,0-1.144.382,0v.125a.46.46,0,0,1,.161-.107.545.545,0,0,1,.2-.037Zm1.7.014h.382l0,.935a.617.617,0,0,1-.171.479.71.71,0,0,1-.5.161h0a1.254,1.254,0,0,1-.317-.038.749.749,0,0,1-.252-.111h0l.145-.281a.505.505,0,0,0,.176.089.721.721,0,0,0,.21.032h0a.33.33,0,0,0,.232-.07.274.274,0,0,0,.073-.207h0v-.038a.424.424,0,0,1-.34.136h0a.582.582,0,0,1-.281-.068.525.525,0,0,1-.205-.193.549.549,0,0,1-.077-.29h0a.541.541,0,0,1,.075-.288.518.518,0,0,1,.2-.195.585.585,0,0,1,.28-.07h0a.413.413,0,0,1,.359.157h0Zm-.261.767a.249.249,0,0,0,.178-.066.218.218,0,0,0,.07-.169h0a.217.217,0,0,0-.07-.168.255.255,0,0,0-.179-.064h0a.26.26,0,0,0-.181.065.219.219,0,0,0-.07.168h0a.217.217,0,0,0,.072.168.256.256,0,0,0,.18.065Zm1.011.375,0-1.144h.4l0,1.144Zm.2-1.271a.252.252,0,0,1-.177-.061.2.2,0,0,1-.068-.151h0a.2.2,0,0,1,.067-.152.255.255,0,0,1,.177-.062h0a.262.262,0,0,1,.177.058.187.187,0,0,1,.068.148h0a.206.206,0,0,1-.068.158.249.249,0,0,1-.177.062Zm1.312.105a.47.47,0,0,1,.344.126.512.512,0,0,1,.13.382h0v.654h-.4v-.589q0-.234-.189-.234h0a.213.213,0,0,0-.165.068.29.29,0,0,0-.062.2h0v.553h-.4l0-1.144h.382V1924a.447.447,0,0,1,.16-.107.551.551,0,0,1,.2-.037Zm2.018.59s0,.036-.006.1h-.832a.233.233,0,0,0,.1.136.329.329,0,0,0,.183.047h0a.4.4,0,0,0,.142-.023.432.432,0,0,0,.121-.077h0l.211.219a.621.621,0,0,1-.487.186h0a.783.783,0,0,1-.353-.076.565.565,0,0,1-.236-.211.571.571,0,0,1-.084-.306h0a.576.576,0,0,1,.081-.3.564.564,0,0,1,.224-.21.675.675,0,0,1,.323-.077h0a.68.68,0,0,1,.31.07.54.54,0,0,1,.221.2.6.6,0,0,1,.081.317Zm-.61-.307a.231.231,0,0,0-.155.053.242.242,0,0,0-.079.144h.469a.236.236,0,0,0-.079-.143.232.232,0,0,0-.155-.053Zm2.072.306s0,.036-.006.1h-.832a.234.234,0,0,0,.1.136.327.327,0,0,0,.182.047h0a.394.394,0,0,0,.142-.023.426.426,0,0,0,.122-.076h0l.211.219a.621.621,0,0,1-.488.186h0a.784.784,0,0,1-.353-.075.561.561,0,0,1-.319-.517h0a.564.564,0,0,1,.306-.513.676.676,0,0,1,.323-.077h0a.676.676,0,0,1,.31.071.54.54,0,0,1,.22.2.6.6,0,0,1,.081.318Zm-.61-.307a.231.231,0,0,0-.155.053.239.239,0,0,0-.079.144h.469a.237.237,0,0,0-.079-.143.232.232,0,0,0-.155-.053Zm1.285-.129a.373.373,0,0,1,.159-.117.6.6,0,0,1,.225-.039h0v.361a.837.837,0,0,0-.091-.006h0a.279.279,0,0,0-.2.07.283.283,0,0,0-.073.213h0v.526h-.4v-1.144h.382Zm.656,1.007v-1.144h.4v1.144Zm.2-1.271a.255.255,0,0,1-.177-.061.2.2,0,0,1-.068-.152h0a.2.2,0,0,1,.068-.152.254.254,0,0,1,.177-.061h0a.262.262,0,0,1,.177.058.187.187,0,0,1,.068.149h0a.2.2,0,0,1-.068.157.251.251,0,0,1-.177.062Zm1.312.108a.471.471,0,0,1,.343.127.515.515,0,0,1,.129.383h0v.654h-.4v-.589q0-.234-.188-.234h0a.214.214,0,0,0-.166.068.289.289,0,0,0-.062.2h0v.553h-.4v-1.144h.382V1924a.456.456,0,0,1,.16-.106.543.543,0,0,1,.2-.037Zm1.7.021h.382l0,.935a.618.618,0,0,1-.174.478.711.711,0,0,1-.5.159h0a1.28,1.28,0,0,1-.317-.039.755.755,0,0,1-.251-.112h0l.146-.28a.513.513,0,0,0,.176.09.71.71,0,0,0,.21.033h0a.328.328,0,0,0,.232-.069.271.271,0,0,0,.074-.207h0v-.038a.422.422,0,0,1-.34.135h0a.587.587,0,0,1-.281-.069.52.52,0,0,1-.2-.195.55.55,0,0,1-.076-.29h0a.549.549,0,0,1,.077-.288.519.519,0,0,1,.2-.194.592.592,0,0,1,.281-.069h0a.412.412,0,0,1,.358.159h0Zm-.265.766a.252.252,0,0,0,.178-.065.22.22,0,0,0,.071-.169h0a.216.216,0,0,0-.069-.168.253.253,0,0,0-.179-.064h0a.256.256,0,0,0-.181.064.219.219,0,0,0-.071.168h0a.218.218,0,0,0,.072.169.258.258,0,0,0,.18.066Zm2.268.411a1.362,1.362,0,0,1-.348-.045.848.848,0,0,1-.274-.119h0l.138-.307a.905.905,0,0,0,.23.106.889.889,0,0,0,.258.041h0q.241,0,.241-.12h0a.1.1,0,0,0-.068-.094,1.224,1.224,0,0,0-.221-.065h0a2.156,2.156,0,0,1-.279-.078.469.469,0,0,1-.191-.132.356.356,0,0,1-.08-.245h0a.42.42,0,0,1,.074-.243.491.491,0,0,1,.221-.172.905.905,0,0,1,.36-.063h0a1.29,1.29,0,0,1,.287.033.894.894,0,0,1,.248.1h0l-.129.31a.862.862,0,0,0-.41-.115h0a.348.348,0,0,0-.182.036.111.111,0,0,0-.057.1h0a.1.1,0,0,0,.067.089,1.187,1.187,0,0,0,.218.062h0a2.067,2.067,0,0,1,.28.078.486.486,0,0,1,.192.131.35.35,0,0,1,.081.244h0a.411.411,0,0,1-.074.24.5.5,0,0,1-.222.172.9.9,0,0,1-.359.064Zm1.509-.007a.714.714,0,0,1-.331-.077.565.565,0,0,1-.313-.518h0a.563.563,0,0,1,.315-.513.72.72,0,0,1,.332-.074h0a.726.726,0,0,1,.333.076.556.556,0,0,1,.229.209.567.567,0,0,1,.082.3h0a.577.577,0,0,1-.083.306.566.566,0,0,1-.231.211.719.719,0,0,1-.333.075Zm0-.319a.227.227,0,0,0,.174-.072.287.287,0,0,0,.068-.2h0a.277.277,0,0,0-.067-.2.227.227,0,0,0-.173-.072h0a.226.226,0,0,0-.173.071.281.281,0,0,0-.068.2h0a.284.284,0,0,0,.067.2.225.225,0,0,0,.173.073Zm.938.3,0-1.566h.4l0,1.566Zm1.573-1.139.4,0,0,1.144-.382,0v-.122a.406.406,0,0,1-.152.1.493.493,0,0,1-.188.035h0a.481.481,0,0,1-.353-.132.53.53,0,0,1-.13-.393h0l0-.64h.4l0,.574a.3.3,0,0,0,.047.188.174.174,0,0,0,.141.06h0a.2.2,0,0,0,.155-.066.3.3,0,0,0,.061-.2h0Zm1.453.823.1.281a.391.391,0,0,1-.123.048.7.7,0,0,1-.156.016h0a.493.493,0,0,1-.344-.111.421.421,0,0,1-.119-.328h0v-.384h-.167v-.3h.167v-.3l.4,0,0,.3h.262v.3h-.262l0,.38a.135.135,0,0,0,.032.1.115.115,0,0,0,.088.035h0a.21.21,0,0,0,.122-.035Zm.358.329.005-1.144.4,0-.005,1.144Zm.206-1.27a.252.252,0,0,1-.177-.062.194.194,0,0,1-.067-.152h0a.2.2,0,0,1,.068-.152.255.255,0,0,1,.178-.06h0a.261.261,0,0,1,.177.059.185.185,0,0,1,.067.149h0a.206.206,0,0,1-.068.157.253.253,0,0,1-.178.061Zm1.135,1.295a.712.712,0,0,1-.332-.078.565.565,0,0,1-.312-.519h0a.564.564,0,0,1,.316-.512.726.726,0,0,1,.333-.073h0a.728.728,0,0,1,.333.076.559.559,0,0,1,.31.516h0a.574.574,0,0,1-.084.306.562.562,0,0,1-.231.21.714.714,0,0,1-.333.074Zm0-.319a.224.224,0,0,0,.173-.072.284.284,0,0,0,.069-.2h0a.279.279,0,0,0-.067-.2.226.226,0,0,0-.172-.073h0a.227.227,0,0,0-.174.071.276.276,0,0,0-.069.2h0a.286.286,0,0,0,.067.2.227.227,0,0,0,.173.073Zm1.689-.854a.471.471,0,0,1,.342.129.511.511,0,0,1,.128.383h0l0,.654-.4,0,0-.589q0-.234-.187-.235h0a.215.215,0,0,0-.166.066.293.293,0,0,0-.063.2h0l0,.553-.4,0,.006-1.144.382,0v.125a.456.456,0,0,1,.161-.106.546.546,0,0,1,.2-.036Zm1.878,1.175.007-1.146-.454,0,0-.331,1.324.009,0,.331-.452,0-.008,1.146Zm2.17-.555s0,.036-.007.1h0l-.832-.006a.234.234,0,0,0,.1.137.328.328,0,0,0,.183.049h0a.4.4,0,0,0,.142-.022.419.419,0,0,0,.122-.075h0l.209.221a.622.622,0,0,1-.489.182h0a.771.771,0,0,1-.352-.078.558.558,0,0,1-.315-.52h0a.571.571,0,0,1,.083-.3.565.565,0,0,1,.226-.208.677.677,0,0,1,.323-.073h0a.675.675,0,0,1,.31.073.542.542,0,0,1,.219.206.6.6,0,0,1,.079.318Zm-.607-.312a.23.23,0,0,0-.156.052.237.237,0,0,0-.08.143h0l.469,0a.239.239,0,0,0-.078-.144.23.23,0,0,0-.155-.054Zm1.361-.275a.645.645,0,0,1,.434.133.5.5,0,0,1,.147.4h0l0,.635-.374,0v-.148a.344.344,0,0,1-.339.165h0a.529.529,0,0,1-.23-.049.339.339,0,0,1-.146-.127.328.328,0,0,1-.048-.18h0a.293.293,0,0,1,.126-.252.664.664,0,0,1,.385-.087h0l.228,0q-.01-.182-.242-.183h0a.543.543,0,0,0-.167.025.448.448,0,0,0-.144.072h0l-.133-.273a.757.757,0,0,1,.232-.1,1.1,1.1,0,0,1,.274-.033Zm-.022.928a.224.224,0,0,0,.123-.033.189.189,0,0,0,.077-.1h0v-.1h-.173q-.175,0-.176.115h0a.1.1,0,0,0,.04.085.171.171,0,0,0,.109.032Zm2.458-.909a.453.453,0,0,1,.336.129.522.522,0,0,1,.123.383h0l-.005.654-.4,0,0-.589a.284.284,0,0,0-.044-.178.153.153,0,0,0-.127-.058h0a.182.182,0,0,0-.146.062.287.287,0,0,0-.057.192h0l0,.568-.4,0,0-.589q0-.234-.171-.235h0a.184.184,0,0,0-.148.062.287.287,0,0,0-.057.192h0l0,.568-.4,0,.01-1.144.382,0v.12a.4.4,0,0,1,.152-.1.513.513,0,0,1,.191-.033h0a.5.5,0,0,1,.215.046.363.363,0,0,1,.153.136h0a.443.443,0,0,1,.173-.132.546.546,0,0,1,.226-.044Z" transform="translate(-1452.51 -1923.322)" fill="#e60019"/>
          </g>
        </g>
      </g>
    </g>
  </g>
</svg>
