<svg xmlns="http://www.w3.org/2000/svg" width="15.784" height="16.077" viewBox="0 0 15.784 16.077">
  <g id="Group_15" data-name="Group 15" transform="translate(0 0)">
    <g id="Group_14" data-name="Group 14">
      <g id="Group_9" data-name="Group 9" transform="translate(0 0)">
        <g id="Group_8" data-name="Group 8" transform="translate(0 0)">
          <path id="Path_29" data-name="Path 29" d="M15.586,14.927l-3.4-3.694a6.875,6.875,0,1,0-.953.953l3.4,3.694a.674.674,0,0,0,.953-.953ZM10.78,10.78a5.527,5.527,0,1,1,0-7.816A5.533,5.533,0,0,1,10.78,10.78Z" transform="translate(0 0)" fill="#007bff"/>
        </g>
      </g>
      <path id="Path_30" data-name="Path 30" d="M93.279,89.3H90.653V86.679a.674.674,0,1,0-1.348,0V89.3H86.679a.674.674,0,1,0,0,1.348H89.3v2.626a.674.674,0,0,0,1.348,0V90.653h2.626a.674.674,0,0,0,0-1.348Z" transform="translate(-83.107 -83.108)" fill="#007bff"/>
    </g>
  </g>
</svg>
